<?xml version="1.0" encoding="utf-8"?>
<!-- Generator: Adobe Illustrator 15.0.0, SVG Export Plug-In . SVG Version: 6.00 Build 0)  -->
<!DOCTYPE svg PUBLIC "-//W3C//DTD SVG 1.1//EN" "http://www.w3.org/Graphics/SVG/1.1/DTD/svg11.dtd">
<svg version="1.1" id="Layer_1" xmlns="http://www.w3.org/2000/svg" xmlns:xlink="http://www.w3.org/1999/xlink" x="0px" y="0px"
	 width="820px" height="1220px" viewBox="0 0 820 1220" enable-background="new 0 0 820 1220" xml:space="preserve">
<path fill="#A6D262" d="M0,0H0.06C0.04,0.01,0.01,0.04,0,0.06V0z"/>
<path fill="#A6D262" d="M761.56,74.93c2.8,0.01,5.6,0.01,8.42,0.01c0.03,0.66,0.09,1.98,0.12,2.65c1,0.95,2.02,1.91,3.04,2.87
	c-1.061,0.99-2.101,1.99-3.13,2.99c-0.021,0.55-0.05,1.65-0.061,2.2c1.84,1.73,3.82,3.61,6.561,3.2c1.83-0.14,3.67-0.3,5.51-0.53
	c0.65-0.11,1.97-0.33,2.62-0.44c1-1.07,1.99-2.14,3.01-3.21c1.811,0.44,3.62,0.92,5.43,1.41c-0.02,0.8-0.05,2.38-0.069,3.17
	c0.109,0.25,0.33,0.73,0.439,0.97c-0.21,1.9-0.22,3.82,0.04,5.71c-0.71,1.22-1.439,2.43-2.17,3.63c-0.43,2.35-0.97,4.67-1.6,6.97
	c-1.681-1.311-3.38-2.59-5.021-3.94c-1.02,4.74-4.59,8.05-8.02,11.14c-2.8,0.26-5.561,0.7-8.3,1.27c-0.46,0.5-1.381,1.5-1.841,2
	c-0.96-0.06-1.899-0.12-2.829-0.18c-2.461-1.65-5-3.17-7.421-4.89c-0.64-2.66-1.34-5.3-2.079-7.93c-0.091-2.99-0.171-5.99-0.45-8.97
	c-0.69-4.17,0.52-8.36,0.41-12.55C756.32,79.67,758.68,77.02,761.56,74.93z"/>
<path fill="#A6D262" d="M49.26,360.87C52.21,359.27,49.45,364.2,49.26,360.87z"/>
</svg>
