<?xml version="1.0" encoding="UTF-8" ?>
<!DOCTYPE svg PUBLIC "-//W3C//DTD SVG 1.1//EN" "http://www.w3.org/Graphics/SVG/1.1/DTD/svg11.dtd">
<svg width="820pt" height="1220pt" viewBox="0 0 820 1220" version="1.1" xmlns="http://www.w3.org/2000/svg">
<path fill="#a6d262" d=" M 0.00 0.00 L 0.06 0.00 C 0.04 0.01 0.01 0.04 0.00 0.06 L 0.00 0.00 Z" />

<path fill="#a6d262" d=" M 628.28 31.79 C 631.25 32.38 634.28 33.05 637.32 32.46 C 638.88 33.13 640.51 33.57 642.22 33.62 C 642.25 33.84 642.33 34.29 642.37 34.52 C 644.88 37.19 646.80 40.42 649.64 42.78 C 650.74 42.80 651.85 42.63 652.96 42.52 C 653.34 45.94 654.53 49.26 657.05 51.69 C 657.12 52.29 657.26 53.50 657.33 54.10 C 659.32 59.76 660.63 65.63 661.70 71.52 C 661.09 73.47 660.53 75.42 659.95 77.38 C 660.45 77.86 661.45 78.84 661.95 79.32 C 662.34 81.44 662.80 83.55 663.27 85.65 C 664.24 86.56 665.20 87.47 666.19 88.38 C 666.19 88.92 666.20 90.02 666.21 90.57 C 668.72 93.13 671.25 95.76 674.38 97.58 C 678.18 99.51 679.11 104.11 679.85 107.93 C 680.55 113.67 680.04 119.48 680.14 125.25 C 680.39 125.62 680.88 126.36 681.13 126.73 C 681.15 129.03 681.02 131.35 681.38 133.64 C 682.34 134.80 684.06 134.80 685.39 135.35 C 686.89 133.69 688.45 132.08 689.98 130.44 C 690.19 128.62 690.43 126.81 690.71 125.00 C 690.70 123.96 690.71 122.92 690.72 121.88 C 691.16 119.94 691.65 118.02 692.17 116.11 C 694.26 115.66 696.35 115.16 698.46 114.72 C 701.62 117.86 704.80 120.98 707.68 124.39 C 711.14 125.82 714.14 128.09 717.14 130.29 C 717.13 131.95 717.12 133.61 717.11 135.28 C 713.16 139.32 709.85 143.93 705.73 147.81 C 703.64 149.60 703.01 152.32 703.05 154.97 C 704.80 156.67 705.24 158.88 704.36 161.12 C 691.45 161.26 680.29 153.74 668.03 150.87 C 664.13 150.14 661.02 147.57 658.43 144.71 C 657.91 142.26 658.43 138.22 655.18 137.64 C 655.23 140.45 656.15 143.21 655.97 146.03 C 655.50 148.49 654.53 150.81 653.87 153.22 C 655.99 155.25 658.09 157.30 660.20 159.35 C 660.21 160.04 660.22 161.43 660.23 162.13 C 662.29 162.94 664.40 163.66 666.55 164.25 C 669.33 165.88 672.09 167.56 674.67 169.51 C 677.54 169.87 680.30 170.84 682.75 172.40 C 687.44 173.86 692.96 175.49 694.62 180.73 C 697.96 181.57 701.34 182.26 704.71 183.01 C 705.49 183.76 706.28 184.51 707.08 185.26 C 707.51 187.67 708.41 190.17 707.56 192.60 C 706.43 196.35 705.65 200.30 703.38 203.58 C 703.29 204.13 703.11 205.25 703.02 205.80 C 699.90 208.65 695.93 210.19 692.46 212.51 C 689.49 212.81 686.59 213.55 683.90 214.85 C 680.69 212.80 677.37 210.94 673.92 209.37 C 671.43 207.03 668.50 205.27 665.58 203.54 C 661.05 199.01 660.02 192.12 654.91 188.08 C 653.51 187.68 652.11 187.27 650.72 186.85 C 650.15 187.45 649.59 188.05 649.03 188.65 C 651.12 192.92 652.66 197.48 652.33 202.30 C 654.65 205.73 657.25 208.97 659.30 212.57 C 661.95 217.63 665.40 222.55 670.32 225.64 C 673.01 227.37 675.43 229.48 677.66 231.78 C 681.12 231.83 684.62 231.55 688.06 232.05 C 690.17 232.69 691.95 234.05 693.82 235.18 C 694.66 237.74 696.02 240.21 696.16 242.95 C 695.56 245.90 693.68 248.35 692.02 250.78 C 692.32 253.06 692.74 255.33 693.19 257.59 C 694.36 258.06 695.55 258.54 696.75 259.02 C 697.56 260.69 698.39 262.35 699.24 264.02 C 698.75 265.42 698.28 266.83 697.83 268.25 C 695.83 269.82 693.92 271.47 692.02 273.13 C 691.17 272.33 690.34 271.53 689.51 270.73 C 684.00 270.74 678.43 271.18 672.98 270.14 C 671.82 269.97 670.66 269.81 669.51 269.65 C 668.77 268.94 668.03 268.24 667.30 267.54 C 667.24 267.00 667.13 265.93 667.07 265.39 C 665.51 263.68 663.98 261.95 662.54 260.15 C 661.57 259.61 660.61 259.07 659.66 258.54 C 658.08 254.93 654.72 252.74 652.49 249.62 C 651.44 246.99 650.50 244.32 649.75 241.60 C 648.65 239.53 647.62 237.42 646.73 235.26 C 646.37 234.81 645.67 233.90 645.32 233.45 C 645.28 232.91 645.22 231.82 645.19 231.28 C 644.71 230.85 643.75 229.98 643.28 229.54 C 643.26 228.98 643.21 227.87 643.19 227.31 C 639.78 224.30 636.47 218.51 631.12 220.58 C 631.17 222.20 631.23 223.82 631.29 225.45 C 631.70 225.90 632.50 226.80 632.91 227.25 C 633.93 232.70 636.01 237.93 638.96 242.62 C 639.06 243.10 639.27 244.06 639.37 244.54 C 639.82 244.98 640.72 245.87 641.17 246.31 C 640.95 250.97 641.50 255.64 643.15 260.02 C 644.17 264.07 647.26 267.02 649.71 270.23 C 651.96 273.15 651.01 277.09 651.36 280.51 C 649.11 281.98 646.56 285.04 643.68 283.18 C 640.01 281.84 639.59 277.56 638.91 274.27 C 634.72 269.67 631.04 264.61 626.33 260.50 C 626.30 259.94 626.23 258.82 626.20 258.25 C 625.74 257.82 624.80 256.96 624.34 256.53 C 624.28 256.01 624.17 254.96 624.12 254.44 C 620.01 250.81 618.51 245.43 616.89 240.40 C 614.35 236.81 612.03 233.06 608.92 229.92 C 604.82 225.34 605.40 218.81 603.59 213.29 C 602.56 210.41 602.19 207.38 602.09 204.34 C 603.01 203.50 603.94 202.65 604.87 201.81 C 606.71 201.83 608.57 201.86 610.43 201.89 C 612.97 203.62 615.59 205.22 618.11 206.99 C 618.47 209.65 618.94 212.30 619.32 214.96 C 620.92 216.06 622.72 216.75 624.64 217.05 C 622.06 212.63 619.75 207.87 620.26 202.62 C 621.32 200.39 622.45 198.19 623.74 196.09 C 625.30 192.97 626.81 189.77 627.33 186.28 C 626.74 184.49 626.31 182.66 625.94 180.83 C 624.69 177.29 623.27 173.78 621.05 170.73 C 619.68 170.80 618.32 170.87 616.97 170.94 C 617.26 171.35 617.82 172.17 618.11 172.59 C 618.22 176.12 618.94 179.60 619.20 183.12 C 619.31 186.65 617.10 189.62 614.88 192.13 C 607.34 191.43 598.72 189.75 594.17 183.05 C 592.01 179.55 589.52 176.27 586.45 173.52 C 586.13 169.45 585.44 165.43 585.13 161.36 C 584.74 160.91 583.98 160.02 583.59 159.58 C 582.52 154.84 580.55 150.32 580.00 145.46 C 576.08 141.02 573.45 135.61 569.36 131.32 C 569.34 130.33 569.32 129.34 569.31 128.35 C 568.82 127.90 567.83 127.01 567.34 126.57 C 567.28 125.04 567.22 123.51 567.16 121.99 C 565.13 117.88 564.72 113.27 564.11 108.80 C 558.10 99.64 563.43 88.63 562.36 78.61 C 562.14 78.38 561.72 77.92 561.51 77.69 C 562.51 72.49 563.44 67.28 564.52 62.10 C 565.90 61.92 567.30 61.74 568.70 61.56 C 569.24 61.57 570.32 61.59 570.86 61.60 C 571.76 61.81 573.03 61.38 573.61 62.35 C 575.91 65.03 578.26 67.71 581.19 69.74 C 581.22 70.21 581.29 71.16 581.32 71.64 C 582.36 72.58 583.39 73.52 584.45 74.46 C 584.03 74.84 583.20 75.60 582.78 75.97 C 583.20 76.36 584.05 77.14 584.47 77.53 C 584.15 77.79 583.51 78.31 583.19 78.57 C 583.76 80.51 584.29 82.46 584.83 84.41 C 584.23 86.74 583.67 89.09 583.09 91.43 C 584.16 92.41 585.24 93.39 586.32 94.38 C 586.29 96.09 586.27 97.81 586.26 99.53 C 587.64 100.84 589.02 102.15 590.41 103.46 C 590.01 103.82 589.20 104.55 588.79 104.91 C 590.20 106.86 591.65 108.78 593.19 110.62 C 593.23 111.56 593.27 112.50 593.33 113.44 C 598.56 118.46 602.39 124.65 606.74 130.40 C 609.76 135.40 610.34 141.47 610.34 147.20 C 610.50 147.59 610.81 148.36 610.96 148.75 C 611.61 151.77 612.52 154.73 613.44 157.68 C 614.54 161.29 613.96 165.26 615.61 168.73 C 616.55 170.30 618.68 169.61 620.21 169.96 C 618.32 165.64 619.92 161.20 620.76 156.89 C 620.68 152.02 619.66 147.13 620.50 142.26 C 622.04 135.27 619.85 128.26 619.11 121.30 C 618.17 120.38 617.22 119.47 616.28 118.56 C 616.27 118.01 616.26 116.90 616.25 116.34 C 615.75 115.90 614.76 115.03 614.26 114.59 C 614.26 114.04 614.25 112.94 614.24 112.39 C 612.28 110.46 610.33 108.52 608.36 106.59 C 605.52 96.28 608.42 85.78 610.55 75.65 C 611.13 73.70 611.91 71.70 613.38 70.24 C 617.00 69.41 620.79 70.54 624.14 71.89 C 626.89 73.01 627.26 76.40 627.24 78.98 C 627.28 85.63 626.94 92.85 630.72 98.67 C 631.42 102.60 634.02 105.62 636.81 108.29 C 638.00 111.99 639.75 115.49 641.99 118.66 C 642.09 119.12 642.27 120.04 642.37 120.50 C 648.11 125.40 650.26 133.36 656.43 137.79 C 655.64 132.66 653.80 127.78 652.89 122.68 C 648.37 117.52 650.18 110.14 646.59 104.59 C 644.69 100.52 640.71 97.69 639.65 93.21 C 638.51 88.26 639.39 83.03 641.19 78.34 C 642.24 75.43 644.45 73.06 645.25 70.05 C 645.08 68.49 644.63 67.00 644.22 65.50 C 638.26 62.96 634.77 57.04 629.07 54.04 C 625.11 52.03 621.76 49.11 619.26 45.43 C 619.23 44.32 619.20 43.21 619.18 42.10 C 619.83 42.06 621.13 41.98 621.78 41.94 C 622.75 40.95 623.72 39.96 624.71 38.97 C 624.32 38.64 623.54 37.99 623.14 37.66 C 624.07 36.82 624.99 35.96 625.91 35.10 C 626.48 35.05 627.64 34.94 628.21 34.89 C 628.23 34.12 628.26 32.57 628.28 31.79 Z" />
<path fill="#a6d262" d=" M 504.02 57.23 C 506.34 56.92 508.67 56.59 510.98 56.13 C 513.85 58.94 516.68 61.79 519.57 64.59 C 519.21 64.80 518.48 65.21 518.11 65.42 C 520.35 67.53 522.58 69.64 524.97 71.58 C 525.49 72.82 526.01 74.06 526.56 75.29 C 526.21 75.56 525.51 76.10 525.16 76.37 C 526.19 77.77 527.22 79.18 528.28 80.57 C 528.31 81.11 528.37 82.20 528.40 82.74 C 528.94 83.15 530.02 83.96 530.56 84.36 C 530.23 84.69 529.57 85.33 529.23 85.65 C 531.00 89.81 531.92 94.24 532.55 98.70 C 532.88 101.11 534.75 102.83 536.26 104.57 C 536.30 106.23 536.33 107.89 536.36 109.56 C 537.35 110.49 538.34 111.41 539.35 112.34 C 539.35 112.89 539.36 114.00 539.36 114.55 C 540.29 115.45 541.21 116.36 542.13 117.27 C 542.78 121.95 543.76 126.78 546.83 130.54 C 548.52 137.54 554.25 142.45 557.19 148.86 C 558.76 152.43 561.13 155.54 563.89 158.27 C 564.84 160.88 565.99 163.42 567.25 165.89 C 567.29 168.77 567.31 171.64 567.31 174.52 C 568.30 175.44 569.29 176.37 570.30 177.30 C 570.31 177.86 570.33 179.00 570.34 179.57 C 571.32 180.47 572.30 181.38 573.29 182.29 C 573.31 182.85 573.33 183.97 573.35 184.53 C 579.12 189.26 583.09 195.56 587.25 201.65 C 587.23 206.14 587.52 210.64 587.17 215.12 C 586.79 219.62 581.78 223.26 577.44 221.39 C 570.18 219.63 565.54 213.47 559.66 209.39 C 555.08 204.85 553.64 197.47 557.18 191.88 C 557.31 185.40 557.92 178.79 556.22 172.45 C 552.86 169.19 550.69 165.01 547.87 161.33 C 545.02 157.63 542.46 153.66 540.88 149.24 C 540.52 148.82 539.80 147.97 539.45 147.55 C 539.39 147.04 539.26 146.03 539.20 145.52 C 536.66 141.88 534.27 138.08 530.97 135.06 C 528.64 132.96 526.91 130.33 525.38 127.62 C 525.47 127.34 525.66 126.77 525.75 126.48 C 523.32 122.72 523.38 117.94 520.68 114.31 C 520.12 112.71 519.58 111.10 519.06 109.49 C 517.48 107.52 515.18 105.44 515.98 102.62 C 514.35 99.09 512.77 95.49 512.04 91.64 C 511.91 91.30 511.64 90.62 511.51 90.28 C 511.50 88.61 511.46 86.94 511.42 85.27 C 510.94 84.87 509.99 84.08 509.51 83.69 C 508.82 79.55 508.43 75.18 505.94 71.64 C 506.50 69.60 505.63 67.77 504.54 66.10 C 504.56 65.18 504.60 64.25 504.65 63.33 C 505.77 62.60 506.90 61.86 508.04 61.13 C 506.70 59.82 505.37 58.52 504.02 57.23 Z" />
<path fill="#a6d262" d=" M 761.56 74.93 C 764.36 74.94 767.16 74.94 769.98 74.94 C 770.01 75.60 770.07 76.92 770.10 77.59 C 771.10 78.54 772.12 79.50 773.14 80.46 C 772.08 81.45 771.04 82.45 770.01 83.45 C 769.99 84.00 769.96 85.10 769.95 85.65 C 771.79 87.38 773.77 89.26 776.51 88.85 C 778.34 88.71 780.18 88.55 782.02 88.32 C 782.67 88.21 783.99 87.99 784.64 87.88 C 785.64 86.81 786.63 85.74 787.65 84.67 C 789.46 85.11 791.27 85.59 793.08 86.08 C 793.06 86.88 793.03 88.46 793.01 89.25 C 793.12 89.50 793.34 89.98 793.45 90.22 C 793.24 92.12 793.23 94.04 793.49 95.93 C 792.78 97.15 792.05 98.36 791.32 99.56 C 790.89 101.91 790.35 104.23 789.72 106.53 C 788.04 105.22 786.34 103.94 784.70 102.59 C 783.68 107.33 780.11 110.64 776.68 113.73 C 773.88 113.99 771.12 114.43 768.38 115.00 C 767.92 115.50 767.00 116.50 766.54 117.00 C 765.58 116.94 764.64 116.88 763.71 116.82 C 761.25 115.17 758.71 113.65 756.29 111.93 C 755.65 109.27 754.95 106.63 754.21 104.00 C 754.12 101.01 754.04 98.01 753.76 95.03 C 753.07 90.86 754.28 86.67 754.17 82.48 C 756.32 79.67 758.68 77.02 761.56 74.93 Z" />
<path fill="#a6d262" d=" M 417.41 90.95 C 419.94 92.85 422.87 94.12 426.08 94.22 C 427.57 95.59 429.03 96.97 430.51 98.36 C 430.49 99.06 430.45 100.46 430.43 101.17 C 432.08 101.55 433.73 101.90 435.40 102.24 C 435.46 102.76 435.56 103.79 435.61 104.30 C 437.05 104.58 438.49 104.85 439.94 105.12 C 440.85 105.89 441.76 106.66 442.68 107.43 C 442.25 107.82 441.38 108.59 440.95 108.97 C 441.94 109.94 442.95 110.92 443.96 111.89 C 445.19 111.93 446.41 111.98 447.65 112.03 C 452.63 115.47 458.05 118.40 462.09 123.03 C 458.44 124.65 454.80 126.31 451.39 128.41 C 448.12 130.34 445.71 133.37 442.73 135.69 C 437.27 139.88 432.95 145.30 428.68 150.64 C 427.88 152.56 430.26 153.95 431.08 155.47 C 431.92 159.06 433.46 162.44 434.46 165.99 C 434.04 169.08 431.30 171.26 430.58 174.26 C 430.07 178.49 430.22 182.91 432.13 186.80 C 432.45 190.22 433.55 193.48 434.73 196.67 C 435.16 197.07 436.02 197.87 436.45 198.26 C 436.46 198.85 436.48 200.03 436.49 200.62 C 436.98 201.02 437.98 201.82 438.47 202.21 C 438.46 202.81 438.45 204.02 438.44 204.62 C 440.55 206.68 442.83 208.65 445.71 209.55 C 446.14 202.77 439.35 199.09 437.95 192.94 C 436.80 189.15 435.81 185.31 435.22 181.40 C 435.68 180.96 436.59 180.10 437.04 179.66 C 438.12 176.79 439.50 174.04 440.78 171.26 C 441.36 170.64 441.94 170.01 442.53 169.39 C 442.63 165.06 442.31 160.73 441.31 156.51 C 442.20 157.28 443.09 158.07 443.99 158.85 C 444.73 158.87 446.22 158.90 446.97 158.91 C 448.36 157.49 449.76 156.08 451.16 154.66 C 453.06 155.00 454.97 155.36 456.88 155.75 C 460.57 151.56 466.02 149.94 471.13 148.24 C 476.77 150.24 481.48 145.27 486.92 145.03 C 491.59 145.44 494.39 149.57 497.56 152.49 L 496.18 153.41 C 496.64 153.83 497.54 154.67 497.99 155.09 C 494.52 157.53 490.99 159.88 487.39 162.12 C 487.41 162.90 487.43 164.44 487.45 165.21 C 486.15 167.38 484.85 169.54 483.47 171.65 C 483.47 172.31 483.47 173.62 483.47 174.28 C 482.22 175.59 480.99 176.89 479.76 178.21 C 481.42 178.77 483.09 179.34 484.76 179.91 C 485.47 179.34 486.18 178.77 486.90 178.21 C 489.48 177.65 492.23 177.15 494.30 175.36 C 497.68 172.58 501.88 170.99 506.14 170.19 C 508.58 169.45 510.64 171.32 512.74 172.23 C 516.63 174.35 521.06 175.14 525.14 176.72 C 528.02 180.27 533.46 183.68 531.81 188.94 C 531.42 191.58 531.30 194.25 531.10 196.91 C 530.25 199.02 529.54 201.19 529.03 203.40 C 527.69 205.21 526.60 207.45 524.43 208.39 C 521.74 209.65 518.74 209.81 515.84 210.10 C 513.67 207.20 511.42 204.37 508.91 201.78 C 507.27 201.81 505.65 201.84 504.02 201.87 C 505.28 207.06 506.91 212.23 506.44 217.65 C 507.85 218.77 509.27 219.87 510.69 221.00 C 512.54 223.73 515.24 225.65 517.83 227.63 C 522.05 228.03 526.30 229.34 530.56 228.65 C 534.85 226.60 538.33 222.86 543.14 221.86 C 546.13 221.41 549.03 222.86 551.39 224.57 C 553.46 226.55 554.58 229.29 556.48 231.42 C 559.65 232.02 562.90 231.85 566.10 232.23 C 564.22 232.59 562.35 232.96 560.48 233.32 C 562.45 236.40 566.49 235.42 569.19 237.39 C 577.56 238.39 584.03 245.31 592.68 244.97 C 595.33 246.82 597.85 248.85 600.15 251.14 C 600.61 254.85 601.21 258.57 602.25 262.18 C 601.92 264.27 601.55 266.35 601.19 268.44 C 600.12 268.97 599.04 269.50 597.98 270.04 C 591.92 268.80 587.69 263.82 581.79 262.30 C 578.87 260.58 575.84 258.92 572.45 258.38 C 564.86 257.05 557.26 255.74 549.78 253.86 C 548.05 254.72 546.33 255.59 544.58 256.39 C 545.70 255.50 546.84 254.63 547.99 253.77 C 546.59 252.49 545.15 251.26 543.71 250.05 C 543.01 252.36 542.43 254.70 541.98 257.07 C 539.32 261.35 537.89 267.33 541.49 271.51 C 544.87 273.88 548.85 275.41 551.70 278.52 C 554.84 279.25 558.07 279.62 561.12 280.72 C 565.94 282.53 568.39 287.54 572.75 290.05 C 577.27 292.79 582.64 293.94 586.86 297.22 C 590.04 299.61 593.19 302.04 596.48 304.29 C 600.49 306.97 603.35 311.31 608.09 312.86 C 615.34 314.84 620.80 320.86 624.41 327.20 C 620.02 326.13 615.72 324.52 612.05 321.83 C 607.74 318.42 602.12 317.74 597.15 315.72 C 589.59 312.67 581.40 312.06 573.51 310.31 C 570.77 309.62 568.01 310.34 565.32 310.85 C 565.30 312.77 565.29 314.69 565.27 316.62 C 569.31 320.80 575.33 321.64 580.87 321.87 C 582.99 323.93 585.46 325.97 586.02 329.06 C 588.69 331.52 591.75 333.50 594.72 335.56 C 595.25 335.63 596.31 335.77 596.83 335.84 C 598.68 338.53 600.83 340.99 603.16 343.28 C 603.22 343.80 603.36 344.84 603.43 345.36 C 604.39 346.50 605.35 347.65 606.32 348.81 C 601.58 351.16 596.58 353.16 592.53 356.65 C 588.31 356.74 584.10 356.73 579.89 356.65 C 578.31 355.55 576.70 354.48 575.10 353.42 C 573.81 354.01 572.52 354.60 571.24 355.19 C 571.29 356.80 571.35 358.40 571.43 360.02 C 573.01 362.35 575.01 364.90 574.09 367.92 C 572.32 377.02 572.05 386.26 572.28 395.50 C 572.82 395.59 573.91 395.76 574.45 395.85 C 574.79 399.94 573.66 403.86 571.05 407.03 C 569.57 406.77 568.06 406.65 566.63 406.21 C 563.06 402.68 560.16 398.52 557.55 394.24 C 557.10 392.19 556.61 390.16 556.16 388.12 C 554.92 386.89 553.68 385.67 552.44 384.45 C 552.39 383.89 552.31 382.75 552.26 382.18 C 549.95 379.91 547.66 377.62 545.34 375.36 C 545.35 373.68 545.36 372.01 545.39 370.35 C 544.77 369.78 544.16 369.22 543.55 368.67 C 545.60 366.97 545.32 364.29 545.41 361.92 C 544.33 358.93 543.26 355.93 542.53 352.84 C 541.85 350.60 543.44 348.65 544.34 346.74 C 547.52 346.74 550.70 346.64 553.85 346.18 C 553.09 345.62 551.57 344.49 550.81 343.92 C 551.67 343.80 552.53 343.69 553.40 343.57 C 553.82 338.16 552.15 332.91 552.17 327.52 C 551.56 326.76 550.95 326.01 550.35 325.26 C 550.32 321.59 550.32 317.93 550.34 314.27 C 549.86 313.83 548.89 312.96 548.41 312.52 C 548.38 311.96 548.32 310.82 548.29 310.26 C 546.00 308.00 543.73 305.73 541.43 303.48 C 541.39 302.93 541.31 301.83 541.27 301.28 C 540.41 300.38 539.57 299.48 538.73 298.58 C 538.14 296.24 537.39 293.92 536.24 291.79 C 533.74 287.36 532.68 282.09 528.90 278.45 C 526.02 277.08 524.18 274.43 522.09 272.15 C 520.37 271.70 518.33 271.59 517.36 269.86 C 513.92 264.96 508.30 262.26 504.81 257.40 C 504.51 257.39 503.91 257.38 503.61 257.37 C 499.88 254.51 495.69 252.33 491.25 250.81 C 489.56 251.99 487.86 253.14 486.15 254.28 C 494.92 261.02 500.93 270.59 508.98 278.12 C 510.77 279.20 512.24 280.69 513.51 282.34 C 513.96 282.32 514.84 282.26 515.28 282.23 C 521.42 285.91 524.59 292.51 528.03 298.48 C 528.99 302.29 529.57 306.55 532.46 309.47 C 533.65 310.76 534.92 311.97 536.18 313.21 C 537.30 320.40 537.11 327.71 538.24 334.89 C 539.12 340.92 535.33 346.43 536.28 352.52 C 535.03 353.31 533.78 354.09 532.53 354.88 C 530.52 360.07 532.10 365.34 533.54 370.43 C 530.89 369.38 529.72 366.82 528.83 364.32 C 524.21 358.10 521.99 350.21 516.10 344.94 C 511.75 340.95 507.07 337.35 502.98 333.08 C 498.16 332.74 494.62 329.17 491.88 325.54 C 489.22 321.63 488.78 316.78 487.07 312.47 C 485.86 310.42 484.80 308.29 483.94 306.08 C 483.11 305.19 482.30 304.31 481.49 303.44 C 481.48 302.84 481.48 301.64 481.47 301.04 C 478.29 296.98 472.04 297.58 469.59 292.84 C 467.67 292.79 465.75 292.76 463.83 292.74 C 463.11 292.00 462.39 291.25 461.68 290.51 C 457.78 291.12 454.01 292.63 450.03 292.71 C 447.29 291.02 446.33 287.72 444.53 285.22 C 442.00 280.95 437.62 278.35 433.59 275.71 C 433.54 274.55 433.50 273.39 433.47 272.24 C 430.66 269.55 427.71 267.02 425.02 264.22 C 421.38 262.03 417.51 260.26 413.92 258.00 C 413.07 254.95 412.00 251.97 410.75 249.06 C 409.82 242.17 408.77 235.17 406.49 228.57 C 402.34 225.99 399.81 221.72 396.52 218.25 C 396.54 217.47 396.57 215.93 396.58 215.15 C 395.08 214.03 393.57 212.93 392.07 211.83 C 390.67 207.52 387.96 203.88 385.67 200.03 C 383.46 196.48 385.52 191.95 383.66 188.29 C 382.89 186.59 381.98 184.95 381.18 183.27 C 380.62 182.64 380.06 182.00 379.51 181.37 C 379.53 180.62 379.56 179.11 379.58 178.36 C 378.92 177.75 378.26 177.14 377.61 176.53 C 377.73 172.97 377.54 169.36 375.97 166.10 C 374.55 160.62 372.54 155.06 368.35 151.07 C 368.69 149.28 369.07 147.50 369.48 145.73 C 368.66 144.46 367.86 143.19 367.07 141.92 C 366.36 141.91 364.93 141.91 364.21 141.90 C 364.67 141.34 365.59 140.22 366.04 139.66 C 364.29 139.46 362.53 139.29 360.78 139.16 C 361.91 140.64 363.08 142.10 364.22 143.58 C 362.46 142.13 360.76 140.63 359.04 139.16 C 356.09 138.99 353.22 138.33 350.50 137.19 C 350.57 135.78 350.64 134.37 350.72 132.95 C 352.64 128.56 353.14 123.69 355.33 119.39 C 356.93 116.46 356.43 113.05 356.57 109.85 C 356.92 109.89 357.62 109.97 357.96 110.01 C 359.21 113.22 361.32 115.94 363.46 118.61 C 365.99 121.91 366.75 126.11 366.79 130.18 C 370.57 128.67 374.50 127.18 377.35 124.13 C 378.51 124.00 379.68 123.89 380.86 123.77 C 384.40 122.00 387.64 119.69 390.36 116.79 C 390.43 116.47 390.59 115.82 390.66 115.49 C 393.59 113.92 396.58 112.15 398.47 109.31 C 398.41 107.70 398.12 106.13 397.58 104.59 C 399.13 103.84 400.68 103.08 402.21 102.29 C 404.12 101.78 406.01 101.23 407.92 100.67 C 407.42 100.22 406.43 99.32 405.93 98.86 C 408.32 97.89 410.85 97.53 413.42 97.73 C 413.46 97.28 413.55 96.38 413.60 95.93 C 414.58 95.93 416.54 95.91 417.52 95.91 C 417.48 94.25 417.44 92.60 417.41 90.95 Z" />
<path fill="#a6d262" d=" M 320.83 125.20 C 326.42 128.92 332.13 132.68 336.78 137.59 C 335.08 140.76 333.91 144.18 333.28 147.73 C 333.98 148.11 335.38 148.87 336.08 149.25 C 338.04 146.30 339.34 142.32 342.85 140.89 C 349.82 143.01 357.18 147.21 359.11 154.78 C 361.11 156.33 363.09 157.91 365.04 159.53 C 364.34 161.86 363.42 164.11 362.45 166.33 C 363.31 166.83 364.18 167.33 365.06 167.84 C 365.86 170.26 366.97 172.57 368.40 174.69 C 368.48 175.82 368.57 176.95 368.65 178.08 C 370.66 182.26 372.89 186.56 372.67 191.34 C 374.75 195.15 377.45 198.60 379.37 202.52 C 380.60 205.05 382.34 207.27 384.24 209.34 C 385.15 211.78 386.06 214.21 386.86 216.69 C 388.10 217.93 389.35 219.18 390.61 220.42 C 390.19 220.86 389.34 221.74 388.91 222.18 C 391.47 224.59 394.65 226.19 398.24 226.01 C 401.86 229.52 403.87 234.19 406.27 238.53 C 407.24 242.67 408.07 246.84 408.68 251.05 C 407.48 252.71 406.51 254.59 405.05 256.04 C 403.29 257.28 401.11 257.64 399.08 258.17 C 398.21 258.81 397.34 259.45 396.48 260.10 C 396.51 261.48 396.55 262.86 396.59 264.25 C 401.39 265.91 406.86 265.30 411.14 268.37 C 414.54 269.17 418.09 269.93 421.03 271.92 C 421.89 273.39 422.33 275.05 422.86 276.66 C 426.92 281.58 432.72 284.46 437.53 288.50 C 440.45 292.62 440.91 297.91 442.59 302.59 C 444.17 302.87 445.77 303.17 447.36 303.47 C 450.05 303.02 452.77 302.77 455.50 302.65 C 457.10 303.81 458.73 304.94 460.38 306.05 C 460.39 306.69 460.42 307.96 460.43 308.59 C 463.80 311.82 467.89 314.12 471.50 317.05 C 471.46 318.83 471.43 320.61 471.40 322.39 C 473.08 324.01 474.75 325.65 476.44 327.28 C 476.42 330.57 476.41 333.86 476.37 337.16 C 473.22 337.90 470.04 338.47 466.85 339.01 C 463.47 339.58 460.75 341.83 457.75 343.33 C 454.92 348.25 451.50 352.80 447.23 356.56 C 446.68 356.63 445.58 356.77 445.03 356.84 C 444.39 357.34 443.75 357.86 443.12 358.38 C 441.55 358.85 439.99 359.36 438.45 359.88 C 443.39 362.81 449.60 363.73 454.70 360.58 C 459.68 356.98 463.26 350.80 469.73 349.68 C 477.37 349.08 482.04 356.47 488.94 358.32 C 495.27 361.60 500.65 367.04 503.57 373.62 C 504.76 376.31 506.14 378.91 507.83 381.33 C 508.82 383.38 509.86 385.41 510.93 387.43 C 511.94 390.72 513.61 393.75 515.83 396.39 C 510.83 399.73 504.44 400.00 499.58 403.68 C 499.49 404.10 499.30 404.96 499.21 405.38 C 495.92 406.57 492.54 408.34 488.92 407.57 C 483.45 406.38 478.83 402.13 472.97 402.65 C 468.07 402.79 463.09 401.37 459.62 397.79 C 458.83 397.75 457.25 397.66 456.47 397.62 C 456.45 398.76 456.44 399.91 456.44 401.06 C 459.00 402.70 461.50 404.45 463.76 406.49 C 467.10 407.47 470.57 407.60 473.99 408.14 C 478.21 408.72 480.97 412.55 485.05 413.53 C 489.12 414.34 492.76 417.07 497.05 416.71 C 501.40 416.57 505.44 414.77 509.48 413.32 C 513.28 411.82 517.36 413.03 521.19 413.77 C 521.72 414.74 522.26 415.71 522.80 416.69 C 525.77 416.66 528.76 416.63 531.74 416.61 C 531.93 419.16 531.57 421.71 531.66 424.26 C 532.39 426.15 533.77 427.68 534.93 429.31 C 535.56 432.10 536.55 434.79 537.86 437.34 C 537.38 438.55 536.89 439.75 536.43 440.97 C 537.05 443.01 537.82 445.02 538.53 447.04 C 538.38 449.06 538.29 451.08 538.21 453.11 C 537.84 453.57 537.09 454.50 536.72 454.96 C 536.76 457.89 535.86 460.67 534.22 463.09 C 535.06 463.93 535.90 464.76 536.76 465.60 C 535.25 465.89 533.77 466.20 532.27 466.50 C 532.31 464.53 532.34 462.56 532.38 460.60 C 531.30 460.62 529.13 460.68 528.04 460.70 C 528.35 461.46 528.97 462.99 529.28 463.75 C 528.33 465.67 527.28 467.55 526.35 469.49 C 527.90 470.73 529.46 471.98 531.04 473.20 C 532.08 476.02 532.76 479.02 534.21 481.66 C 538.86 485.77 544.49 488.52 549.63 491.95 C 547.88 495.16 545.55 498.41 545.55 502.22 C 546.62 508.90 544.39 515.67 546.54 522.26 C 546.91 522.72 547.65 523.65 548.03 524.11 C 548.44 525.85 548.90 527.60 549.40 529.33 C 547.68 532.39 545.87 535.41 544.15 538.48 C 543.81 538.52 543.13 538.60 542.79 538.63 C 541.50 537.35 540.21 536.07 538.93 534.80 C 535.00 534.38 531.19 533.37 527.40 532.34 C 527.38 531.77 527.33 530.64 527.31 530.08 C 525.19 527.99 523.08 525.90 520.96 523.83 C 519.33 523.49 517.73 523.14 516.13 522.74 C 515.48 522.68 514.17 522.56 513.51 522.50 C 511.17 519.00 508.45 515.68 504.71 513.60 C 504.55 512.41 504.38 511.21 504.24 510.03 C 502.99 508.80 501.74 507.58 500.50 506.36 C 500.45 505.79 500.36 504.65 500.31 504.08 C 495.17 499.65 491.39 493.21 484.61 491.08 C 481.48 488.42 478.19 485.91 475.55 482.74 C 474.56 482.68 473.56 482.62 472.58 482.58 C 470.59 480.40 468.72 478.11 466.99 475.73 C 466.52 475.67 465.58 475.54 465.11 475.48 C 462.05 472.82 458.73 470.49 455.53 468.01 C 455.27 466.19 455.77 464.38 456.11 462.62 C 455.59 459.49 454.47 456.50 452.62 453.92 C 452.51 452.54 452.40 451.15 452.28 449.79 C 449.94 441.90 447.27 434.10 444.41 426.39 C 436.64 426.75 429.32 430.17 421.46 429.74 C 419.85 425.57 418.08 421.35 414.76 418.22 C 414.06 414.05 412.74 410.01 412.05 405.85 C 412.51 398.89 412.70 391.91 412.45 384.93 C 412.16 379.33 409.41 374.26 406.23 369.79 C 404.15 367.30 404.51 363.98 404.44 360.97 C 398.92 356.68 392.32 353.43 388.57 347.25 C 388.52 344.86 388.46 342.48 388.35 340.10 C 387.21 340.95 386.09 341.83 384.97 342.71 C 381.58 342.72 378.18 342.72 374.79 342.69 C 374.28 342.11 373.25 340.95 372.74 340.37 C 372.35 340.77 371.57 341.58 371.19 341.98 C 370.29 343.15 369.43 344.36 368.36 345.36 C 364.92 345.89 361.41 345.85 358.00 346.54 C 352.99 345.62 347.81 345.46 342.99 343.72 C 335.93 340.89 331.12 334.75 325.95 329.47 C 325.23 326.16 323.82 323.05 321.36 320.67 C 323.04 318.91 324.74 317.19 326.46 315.48 C 327.14 311.98 327.48 308.43 326.90 304.89 C 329.05 303.68 331.57 303.48 333.93 302.91 C 332.60 301.43 331.28 299.95 329.95 298.48 C 326.80 299.03 323.70 299.77 320.62 300.63 C 320.18 303.42 321.68 307.24 319.59 309.41 C 310.63 310.89 300.25 307.53 295.70 299.20 C 295.78 295.31 295.55 291.42 294.53 287.65 C 292.26 286.70 289.98 285.80 287.70 284.90 C 287.70 284.13 287.72 282.58 287.73 281.81 C 283.60 279.55 279.23 277.78 275.16 275.43 C 277.79 268.90 279.82 262.16 280.86 255.19 C 282.12 253.92 283.38 252.66 284.65 251.41 C 284.64 249.19 284.64 246.97 284.63 244.76 C 285.72 242.75 286.79 240.74 287.89 238.74 C 287.56 238.38 286.90 237.67 286.57 237.32 C 287.39 236.56 288.21 235.80 289.03 235.04 C 288.74 234.61 288.15 233.76 287.86 233.33 C 288.76 230.54 288.74 227.60 288.12 224.76 C 288.90 222.43 289.55 220.06 289.99 217.65 C 290.12 217.29 290.37 216.55 290.49 216.19 C 290.50 213.98 290.56 211.77 290.60 209.57 C 290.94 209.17 291.62 208.36 291.96 207.96 C 291.69 207.56 291.15 206.75 290.88 206.34 C 291.45 203.76 291.66 201.12 291.81 198.49 C 296.13 197.66 300.53 197.75 304.91 197.79 C 306.22 196.93 307.54 196.08 308.87 195.25 C 311.06 196.04 313.30 196.72 315.56 197.29 C 315.57 195.69 315.58 194.10 315.60 192.51 C 312.38 192.95 309.26 193.82 306.26 195.03 C 302.40 196.71 298.15 195.60 294.27 194.63 C 292.19 193.16 289.92 191.97 287.85 190.49 C 287.89 189.30 288.09 188.12 288.26 186.94 C 287.97 186.68 287.40 186.18 287.11 185.92 C 287.13 185.59 287.19 184.93 287.21 184.60 C 287.15 182.08 287.22 179.56 287.28 177.04 C 288.88 174.65 290.44 172.23 291.98 169.81 C 291.15 168.94 290.32 168.07 289.49 167.21 C 290.59 165.28 291.67 163.34 292.69 161.36 C 291.94 160.22 291.20 159.09 290.45 157.97 C 291.10 157.91 292.41 157.79 293.06 157.72 C 292.06 156.77 291.06 155.82 290.07 154.87 C 291.24 154.18 292.43 153.49 293.61 152.80 C 293.64 152.18 293.68 150.95 293.71 150.33 C 292.93 149.68 292.16 149.02 291.40 148.37 C 292.02 147.91 293.27 146.98 293.90 146.51 C 293.57 145.37 293.24 144.22 292.89 143.09 C 293.62 142.40 294.34 141.72 295.08 141.04 C 294.57 140.42 293.55 139.20 293.04 138.59 C 294.29 138.26 295.54 137.94 296.79 137.63 C 297.22 135.56 297.55 133.47 297.86 131.39 C 298.95 131.44 300.04 131.50 301.13 131.61 C 303.56 133.61 306.59 134.54 309.58 135.33 C 309.65 136.77 309.74 138.20 309.84 139.64 C 310.97 138.64 312.09 137.62 313.19 136.58 C 314.12 134.82 315.05 133.05 315.95 131.27 C 317.47 130.49 319.00 129.71 320.52 128.93 C 320.60 128.00 320.75 126.13 320.83 125.20 Z" />
<path fill="#a6d262" d=" M 748.58 128.96 C 748.84 129.15 749.36 129.52 749.62 129.71 C 751.68 129.29 753.80 129.14 755.92 129.37 C 757.71 129.88 759.51 130.36 761.32 130.87 C 761.06 131.23 760.56 131.96 760.31 132.32 C 760.65 133.42 760.99 134.52 761.34 135.63 C 762.00 136.37 762.67 137.11 763.35 137.86 C 766.39 138.55 769.50 138.91 772.63 139.04 C 774.43 140.80 776.21 142.57 778.00 144.36 C 777.83 148.48 777.97 152.72 780.08 156.40 C 778.05 157.63 776.04 158.88 774.02 160.11 C 771.74 158.69 769.59 156.97 767.04 156.06 C 762.44 156.06 757.97 157.44 753.44 158.07 C 752.48 158.99 751.54 159.92 750.61 160.86 C 752.23 163.33 754.16 165.60 756.42 167.53 C 758.77 170.49 761.92 172.57 765.21 174.36 C 764.67 175.79 764.17 177.22 763.68 178.66 C 762.81 179.56 761.95 180.46 761.10 181.37 C 761.13 184.89 761.05 188.42 760.45 191.89 C 760.73 193.68 760.98 195.47 761.24 197.27 C 759.26 198.35 757.30 199.45 755.40 200.64 C 751.83 201.49 747.91 201.63 744.83 203.83 C 740.98 206.41 736.51 207.84 732.18 209.38 C 730.64 209.69 727.99 210.77 727.57 208.52 C 726.81 205.24 726.34 201.91 725.53 198.65 C 724.61 195.23 725.66 191.76 725.71 188.31 C 725.10 186.86 724.21 185.56 723.37 184.25 C 723.28 183.76 723.10 182.80 723.02 182.32 C 722.56 181.87 721.65 180.99 721.20 180.54 C 721.16 180.00 721.09 178.91 721.05 178.37 C 717.78 175.29 714.94 171.82 712.17 168.30 C 712.16 167.41 712.15 166.52 712.16 165.64 C 714.41 162.89 716.24 159.84 718.21 156.89 C 718.83 156.88 720.09 156.88 720.72 156.87 C 721.19 156.36 722.11 155.32 722.58 154.81 C 725.04 154.87 727.50 154.94 729.97 155.08 C 731.80 155.50 733.65 155.84 735.52 156.17 C 736.26 155.31 737.00 154.45 737.76 153.59 C 738.05 149.74 739.39 146.03 741.81 143.00 C 741.96 142.23 742.12 141.47 742.30 140.70 C 743.78 138.48 744.88 136.04 745.49 133.43 C 746.52 131.95 747.56 130.47 748.58 128.96 Z" />
<path fill="#a6d262" d=" M 278.51 292.82 C 280.04 292.79 281.56 292.75 283.10 292.72 C 283.97 293.58 284.84 294.45 285.71 295.32 C 285.69 295.85 285.66 296.91 285.64 297.44 C 285.14 297.90 284.14 298.83 283.64 299.29 C 283.64 301.23 283.64 303.18 283.64 305.13 C 286.01 308.68 288.06 312.82 291.99 314.92 C 295.13 316.61 298.35 318.19 301.19 320.37 C 304.04 321.20 307.12 321.69 309.58 323.45 C 316.43 329.47 318.32 338.99 324.51 345.53 C 328.53 351.15 335.07 353.97 340.09 358.53 C 346.02 360.04 352.13 359.58 358.18 359.81 C 365.85 360.79 372.38 366.47 375.40 373.46 C 375.51 374.08 375.72 375.33 375.82 375.96 C 378.09 379.27 378.92 383.22 378.62 387.19 C 375.87 390.78 372.88 394.18 369.55 397.25 C 368.84 404.61 371.71 413.24 366.47 419.46 C 364.34 419.72 362.24 419.11 360.14 418.88 C 356.68 418.30 353.25 419.24 349.85 419.74 C 347.16 420.15 344.41 420.79 342.37 422.72 C 340.87 421.78 339.39 420.82 337.92 419.85 C 337.46 419.77 336.54 419.61 336.08 419.52 C 333.33 417.07 331.30 413.91 331.03 410.15 C 329.59 411.01 328.17 411.88 326.76 412.78 C 326.62 414.33 326.60 415.91 326.27 417.44 C 325.19 418.45 323.91 419.23 322.73 420.10 C 320.04 418.88 317.36 417.66 314.73 416.35 C 313.83 417.22 312.95 418.10 312.07 418.99 C 315.60 420.85 319.20 422.61 323.01 423.84 C 327.98 425.39 331.72 429.24 335.15 432.98 C 330.14 434.33 325.51 437.28 320.13 436.80 C 319.70 437.22 318.82 438.08 318.39 438.51 C 317.87 438.58 316.84 438.71 316.32 438.78 C 312.27 441.04 308.96 444.44 304.84 446.55 C 300.55 446.86 296.55 444.49 292.25 444.39 C 291.52 445.64 290.80 446.90 290.08 448.16 C 282.60 443.02 276.50 436.16 270.69 429.25 C 268.24 426.62 264.28 426.89 261.00 426.56 C 258.20 426.67 256.18 424.51 254.09 422.98 C 250.50 422.47 246.58 421.96 243.92 419.21 C 240.43 415.55 235.38 414.39 231.08 412.00 C 228.96 410.67 226.46 410.59 224.04 410.75 C 221.78 412.24 219.93 410.47 218.18 409.15 C 214.90 408.38 211.83 406.94 209.06 405.05 C 209.41 404.07 209.76 403.09 210.11 402.12 C 206.26 399.52 202.49 396.72 198.23 394.82 C 199.34 394.12 200.44 393.40 201.52 392.66 C 200.20 392.25 198.88 391.83 197.58 391.40 C 196.60 390.58 195.62 389.77 194.66 388.95 C 195.14 387.92 195.63 386.89 196.11 385.87 C 199.77 387.15 203.64 386.57 207.23 385.34 C 207.45 384.58 207.89 383.08 208.11 382.33 C 211.75 382.78 215.16 384.18 218.26 386.10 C 219.55 387.74 220.80 389.45 222.46 390.75 C 224.15 390.50 225.73 389.82 227.35 389.30 C 227.50 388.56 227.81 387.09 227.96 386.36 C 234.19 387.03 239.77 389.98 245.54 392.16 C 245.62 390.75 245.71 389.35 245.79 387.95 C 243.94 386.62 242.07 385.33 240.18 384.07 C 234.82 382.30 229.52 380.30 223.88 379.59 C 223.79 379.13 223.62 378.19 223.53 377.72 C 222.83 377.69 221.42 377.61 220.72 377.57 C 220.43 376.95 219.86 375.69 219.57 375.06 C 218.49 374.64 217.42 374.23 216.34 373.82 C 214.11 374.35 211.74 375.14 209.45 374.54 C 207.48 373.63 205.86 372.16 203.96 371.16 C 202.44 371.11 200.94 371.36 199.44 371.51 C 200.03 370.19 200.61 368.87 201.18 367.55 C 199.51 367.78 197.85 368.01 196.19 368.28 C 193.05 366.11 189.75 364.14 186.99 361.49 C 187.00 356.60 183.92 352.63 182.14 348.30 C 181.51 348.75 180.26 349.64 179.64 350.09 C 179.62 348.73 179.61 347.37 179.62 346.02 C 175.22 343.05 172.24 338.61 168.59 334.86 C 170.13 332.77 171.64 330.66 173.19 328.57 C 171.99 327.71 170.80 326.86 169.60 326.01 C 170.25 324.83 170.90 323.65 171.56 322.47 C 170.59 320.81 169.65 319.14 168.74 317.46 C 169.23 315.69 169.67 313.90 170.08 312.11 C 170.95 311.24 171.83 310.38 172.72 309.53 C 175.85 308.58 178.92 307.42 182.05 306.46 C 182.95 308.30 183.90 310.14 184.92 311.94 C 185.55 311.87 186.82 311.75 187.46 311.68 C 187.94 311.17 188.90 310.14 189.38 309.62 C 189.70 309.99 190.33 310.72 190.65 311.09 C 190.51 311.53 190.23 312.42 190.09 312.87 C 193.30 316.43 197.71 318.32 202.26 319.56 C 202.45 322.41 202.97 325.31 204.72 327.66 C 206.95 327.57 209.18 327.64 211.41 327.67 C 212.14 326.93 212.88 326.19 213.63 325.46 C 216.25 327.00 218.87 328.59 221.31 330.41 C 223.36 330.84 225.41 331.31 227.44 331.81 C 231.10 328.15 232.84 323.06 233.65 318.06 C 234.09 315.63 232.57 313.50 231.73 311.35 C 232.80 310.71 233.87 310.08 234.94 309.45 C 239.14 309.99 243.38 309.65 247.47 308.59 C 249.02 307.00 250.58 305.43 252.15 303.87 C 258.15 302.90 264.22 301.59 269.54 298.53 C 272.58 296.71 275.56 294.79 278.51 292.82 Z" />
<path fill="#a6d262" d=" M 96.28 339.89 C 99.20 339.60 102.09 339.09 104.98 338.61 C 106.93 339.76 108.91 340.85 110.87 341.97 C 110.87 342.65 110.88 344.00 110.88 344.68 C 112.40 344.71 113.92 344.75 115.45 344.80 C 117.90 348.88 122.54 350.60 125.80 353.87 C 125.62 354.38 125.27 355.39 125.10 355.89 C 127.46 358.05 130.23 359.75 133.48 360.08 C 134.28 360.74 135.07 361.41 135.86 362.08 C 135.86 362.60 135.87 363.62 135.87 364.13 C 134.57 365.02 133.27 365.93 131.99 366.85 C 131.89 366.24 131.71 365.01 131.62 364.40 C 129.79 364.74 127.97 365.09 126.15 365.48 C 125.85 365.18 125.24 364.59 124.94 364.29 C 123.91 365.24 122.88 366.21 121.85 367.17 C 120.96 365.84 120.06 364.52 119.15 363.20 C 118.59 363.67 117.45 364.62 116.88 365.09 C 115.91 364.17 114.94 363.24 113.97 362.32 C 112.88 363.28 111.80 364.24 110.71 365.20 C 110.99 363.77 111.28 362.35 111.56 360.92 C 111.17 360.51 110.39 359.69 110.00 359.28 C 109.60 359.67 108.79 360.44 108.38 360.83 C 108.10 360.53 107.54 359.94 107.26 359.64 C 105.90 360.11 104.53 360.58 103.16 361.04 C 102.74 361.49 101.90 362.39 101.48 362.84 C 101.11 362.46 100.38 361.71 100.01 361.33 C 99.56 361.70 98.65 362.43 98.20 362.80 C 95.39 360.51 91.77 361.66 88.49 361.05 C 87.92 361.38 87.35 361.72 86.78 362.07 C 85.93 360.77 85.06 359.49 84.19 358.21 C 83.70 358.60 82.72 359.38 82.23 359.77 C 79.32 358.65 76.30 357.84 73.20 357.43 C 73.05 356.97 72.74 356.06 72.58 355.60 C 71.85 355.66 70.38 355.77 69.65 355.83 C 65.53 359.36 60.61 361.76 55.78 364.14 C 54.44 362.75 53.08 361.37 51.72 360.00 C 55.13 359.82 58.38 358.76 61.50 357.46 C 65.19 354.87 69.01 352.48 72.63 349.79 C 73.59 349.75 74.55 349.71 75.52 349.68 C 75.97 349.26 76.87 348.42 77.31 348.00 C 79.73 347.41 82.62 347.40 84.53 345.66 C 84.88 344.11 84.96 342.52 85.14 340.95 C 88.20 341.65 91.35 341.78 94.49 341.82 C 94.93 341.34 95.83 340.37 96.28 339.89 Z" />
<path fill="#a6d262" d=" M 49.26 360.87 C 52.21 359.27 49.45 364.20 49.26 360.87 Z" />
<path fill="#a6d262" d=" M 168.42 380.84 C 169.23 379.97 170.04 379.11 170.86 378.25 C 171.91 379.25 172.96 380.26 174.01 381.27 C 172.84 381.80 171.66 382.35 170.49 382.89 C 169.97 382.38 168.93 381.36 168.42 380.84 Z" />
<path fill="#a6d262" d=" M 181.51 380.51 C 186.14 380.34 190.93 381.17 194.48 384.35 C 191.62 385.38 188.60 385.76 185.57 385.83 C 185.14 386.11 184.28 386.67 183.85 386.95 C 183.43 386.62 182.57 385.97 182.14 385.65 C 180.53 385.67 178.92 385.70 177.30 385.74 C 176.72 384.51 176.14 383.29 175.56 382.07 C 177.58 381.74 179.66 381.45 181.51 380.51 Z" />
<path fill="#a6d262" d=" M 194.22 386.30 C 194.80 386.72 194.80 386.72 194.22 386.30 Z" />
<path fill="#a6d262" d=" M 571.31 443.95 C 576.18 447.08 580.45 451.00 584.84 454.75 C 583.97 455.96 583.13 457.18 582.27 458.39 C 582.28 458.87 582.31 459.82 582.32 460.30 C 582.81 460.77 583.78 461.71 584.26 462.18 C 584.29 463.18 584.32 464.19 584.36 465.21 C 587.33 468.12 589.89 471.40 592.48 474.65 C 593.78 474.60 595.09 474.56 596.41 474.52 C 597.34 478.51 596.83 484.63 602.24 485.24 C 602.37 488.97 601.83 492.80 602.67 496.46 C 604.73 500.34 607.92 503.47 610.20 507.23 C 610.64 507.36 611.52 507.61 611.96 507.74 C 611.15 510.43 612.01 513.06 612.49 515.71 C 610.60 519.04 607.63 521.78 606.96 525.74 C 605.66 521.65 602.30 524.75 600.49 526.50 C 599.90 526.53 598.72 526.57 598.12 526.59 C 598.22 523.63 598.42 520.67 599.10 517.78 C 597.05 512.80 596.29 506.39 590.94 503.75 C 589.15 497.64 582.98 495.03 579.38 490.22 C 580.53 484.56 580.36 478.74 581.05 473.03 C 580.42 468.56 580.68 464.06 580.71 459.57 C 579.94 459.59 578.38 459.62 577.61 459.64 C 577.85 453.52 572.03 449.82 571.31 443.95 Z" />
<path fill="#a6d262" d=" M 404.44 469.34 C 408.88 469.77 413.38 470.70 417.11 473.29 C 417.58 473.42 418.53 473.67 419.01 473.80 C 421.25 476.01 423.56 478.17 425.96 480.23 C 428.68 486.71 434.98 491.74 434.61 499.34 C 432.11 496.19 430.09 492.66 427.21 489.83 C 424.47 487.03 421.10 484.99 417.83 482.90 C 415.54 482.38 413.12 482.06 411.07 480.85 C 409.02 479.28 407.46 477.18 405.75 475.27 C 405.35 473.28 404.88 471.31 404.44 469.34 Z" />
<path fill="#a6d262" d=" M 445.58 509.01 C 445.41 507.20 444.72 504.62 446.91 503.80 C 450.12 503.33 453.38 503.59 456.62 503.63 C 459.82 505.81 463.66 507.46 465.73 510.93 C 467.21 513.52 469.09 515.85 471.10 518.06 C 474.53 521.88 475.76 526.99 478.18 531.42 C 478.29 532.37 478.41 533.34 478.53 534.31 C 479.80 535.55 481.08 536.80 482.37 538.05 C 482.41 539.85 482.46 541.65 482.53 543.46 C 481.35 544.21 480.19 544.98 478.96 545.63 C 475.57 544.04 472.45 541.87 469.65 539.40 C 467.39 537.53 466.89 534.50 466.09 531.85 C 463.65 529.44 461.16 527.10 458.56 524.88 C 458.53 524.37 458.47 523.35 458.45 522.83 C 456.71 521.44 454.97 520.07 453.19 518.75 C 453.27 518.01 453.44 516.52 453.53 515.78 C 450.77 513.71 446.79 512.55 445.58 509.01 Z" />
<path fill="#a6d262" d=" M 428.92 558.74 C 429.51 558.67 430.70 558.52 431.30 558.44 C 433.00 560.83 434.57 563.30 435.94 565.89 C 432.87 564.30 430.32 561.93 428.92 558.74 Z" />
<path fill="#a6d262" d=" M 435.49 566.27 C 441.04 566.64 447.26 567.15 451.19 571.62 C 453.35 571.46 455.52 571.24 457.69 571.00 C 460.85 572.55 464.38 572.90 467.77 571.84 C 469.83 573.07 471.89 574.33 473.93 575.63 C 474.66 578.96 476.63 581.82 479.90 583.09 C 483.42 585.77 487.69 583.44 491.45 582.60 C 491.83 582.83 492.58 583.29 492.96 583.52 C 497.95 583.51 502.93 583.52 507.92 583.53 C 508.71 584.36 509.51 585.19 510.31 586.03 C 510.34 586.62 510.40 587.81 510.43 588.40 C 513.06 590.52 515.73 592.60 518.28 594.83 C 518.38 595.34 518.57 596.37 518.67 596.88 C 519.97 599.10 521.03 601.45 521.96 603.86 C 523.82 604.54 525.71 605.17 527.57 605.90 C 530.98 607.21 533.51 610.13 537.01 611.26 C 539.30 611.62 541.63 611.51 543.95 611.55 C 546.00 614.20 548.09 616.84 550.45 619.24 C 556.29 620.89 562.26 622.05 568.36 621.49 C 568.76 622.81 569.16 624.15 569.56 625.49 C 571.37 627.11 573.24 628.68 575.20 630.15 C 576.15 633.68 576.77 637.34 578.29 640.71 C 580.79 646.61 585.91 650.81 588.89 656.44 C 591.24 655.49 593.63 654.67 596.08 653.99 C 596.17 654.88 596.36 656.67 596.45 657.56 C 598.46 657.04 600.47 656.55 602.51 656.11 C 602.13 658.84 601.66 661.56 601.16 664.27 C 600.67 664.38 599.70 664.60 599.21 664.71 C 596.89 668.19 594.23 671.58 590.47 673.58 C 586.83 675.54 583.64 678.19 580.81 681.19 C 581.75 682.64 582.63 684.14 583.75 685.48 C 584.83 685.18 586.98 684.59 588.05 684.30 C 590.29 689.94 590.25 696.10 591.50 701.97 C 589.67 703.45 587.82 704.90 585.90 706.25 C 585.65 706.77 585.17 707.82 584.93 708.35 C 584.21 708.40 582.79 708.50 582.07 708.55 C 581.86 709.07 581.44 710.12 581.23 710.64 C 583.64 713.14 585.49 716.09 587.10 719.16 C 587.12 723.34 588.01 727.44 589.39 731.38 C 588.69 732.21 587.99 733.05 587.31 733.90 C 587.30 734.76 587.28 736.49 587.27 737.35 C 586.58 737.37 585.21 737.41 584.53 737.44 C 583.88 738.13 583.25 738.83 582.62 739.53 C 582.20 741.16 581.78 742.78 581.35 744.41 C 579.76 744.42 578.18 744.43 576.61 744.46 C 573.98 741.72 571.28 739.03 568.37 736.58 C 565.56 734.36 566.02 730.05 563.25 727.79 C 561.25 725.79 557.96 725.10 556.98 722.20 C 555.58 718.95 553.02 716.46 550.47 714.11 C 550.41 713.58 550.29 712.50 550.23 711.96 C 549.86 711.52 549.13 710.64 548.77 710.20 C 547.62 707.00 546.34 703.64 543.52 701.53 C 540.90 699.49 538.88 696.35 539.87 692.91 C 539.11 684.19 536.73 675.77 533.67 667.61 C 532.62 661.32 526.91 657.52 521.69 654.76 C 518.45 653.38 515.27 651.40 511.65 651.36 C 509.77 653.84 510.04 657.22 509.39 660.14 C 510.75 659.04 512.12 657.94 513.44 656.80 C 512.71 658.44 511.82 660.06 511.49 661.85 C 511.87 663.25 512.41 664.63 512.91 666.01 C 510.41 664.87 507.92 663.69 505.46 662.49 C 505.41 661.88 505.32 660.66 505.27 660.06 C 503.17 657.51 501.15 654.91 499.06 652.37 C 496.11 653.80 492.94 654.66 489.66 654.67 C 488.39 655.92 487.14 657.18 485.90 658.45 C 484.05 658.44 482.22 658.44 480.38 658.43 C 479.30 660.20 477.81 661.85 477.39 663.94 C 477.67 665.61 478.09 667.27 478.64 668.90 C 477.49 669.51 476.35 670.17 475.13 670.64 C 473.42 667.31 471.89 663.87 469.63 660.87 C 469.55 660.34 469.39 659.28 469.32 658.76 C 467.68 657.60 466.05 656.44 464.43 655.28 C 464.43 654.13 464.44 652.99 464.45 651.86 C 463.36 650.90 462.27 649.94 461.19 649.00 C 461.32 647.59 461.51 646.19 461.75 644.81 C 462.68 643.55 464.49 643.45 465.79 642.73 C 465.09 641.43 464.39 640.15 463.67 638.88 C 463.58 638.38 463.40 637.37 463.31 636.87 C 462.09 635.66 460.88 634.46 459.68 633.26 C 458.02 626.92 455.74 620.57 456.36 613.91 C 455.89 613.48 454.97 612.62 454.51 612.20 C 454.48 611.62 454.42 610.47 454.39 609.89 C 453.42 608.99 452.46 608.09 451.51 607.20 C 451.44 604.48 451.36 601.77 451.24 599.07 C 452.09 598.33 452.94 597.60 453.80 596.88 C 452.93 595.82 452.08 594.79 451.23 593.74 C 451.25 593.13 451.29 591.89 451.31 591.27 C 450.90 590.17 450.50 589.08 450.12 587.99 C 444.81 582.36 441.60 575.03 435.48 570.13 C 435.48 569.16 435.49 567.24 435.49 566.27 Z" />
<path fill="#a6d262" d=" M 488.18 706.22 C 490.03 707.39 491.52 709.03 493.07 710.56 C 495.72 710.41 498.37 710.07 500.98 709.50 C 501.59 710.14 502.21 710.78 502.83 711.44 C 503.56 711.42 505.02 711.38 505.75 711.36 C 507.52 712.79 509.67 713.93 510.93 715.90 C 512.41 719.41 512.68 723.33 514.36 726.78 C 516.15 730.42 518.29 733.98 519.05 738.03 C 519.55 741.06 519.94 744.11 520.51 747.14 C 516.19 748.25 511.89 749.51 507.87 751.45 C 507.40 750.93 506.46 749.88 505.99 749.35 C 505.32 749.45 503.97 749.65 503.30 749.75 C 499.08 743.06 491.78 739.10 487.66 732.34 C 485.61 729.18 484.46 725.52 484.15 721.79 C 484.77 721.29 486.00 720.30 486.62 719.80 C 486.14 718.93 485.66 718.07 485.18 717.22 C 486.31 715.52 487.44 713.83 488.57 712.16 C 487.12 710.53 484.99 707.28 488.18 706.22 Z" />
<path fill="#a6d262" d=" M 534.37 803.50 C 533.35 800.76 533.19 797.85 534.00 795.05 C 537.12 797.46 540.79 799.48 542.96 802.88 C 544.53 806.78 544.38 811.10 545.41 815.15 C 546.56 816.10 547.69 817.06 548.85 818.03 C 548.27 819.46 547.82 820.98 546.94 822.29 C 543.19 821.91 539.45 821.50 535.71 822.17 C 534.72 821.00 534.21 819.53 533.60 818.17 C 534.96 813.98 533.85 809.79 532.13 805.93 C 532.87 805.11 533.62 804.30 534.37 803.50 Z" />
<path fill="#a6d262" d=" M 423.50 863.80 C 433.67 863.39 442.88 857.97 452.98 857.34 C 456.18 858.87 459.03 861.09 462.06 862.96 C 463.50 864.11 465.79 865.04 465.56 867.27 C 461.85 872.59 455.33 874.59 449.50 876.63 C 448.62 879.40 447.67 882.18 447.36 885.09 C 449.96 887.05 453.35 886.28 456.24 885.56 C 461.40 884.14 466.48 882.17 471.90 882.08 C 472.85 883.08 473.81 884.07 474.77 885.09 C 472.72 885.99 470.65 886.88 468.58 887.73 C 465.10 890.98 461.24 893.79 457.85 897.14 C 457.28 897.21 456.15 897.33 455.59 897.39 C 452.67 900.24 450.06 903.40 447.99 906.93 C 446.82 907.47 445.65 908.03 444.49 908.59 C 444.45 909.33 444.37 910.82 444.33 911.57 C 443.21 911.03 442.09 910.51 440.98 909.99 C 439.51 910.67 438.05 911.36 436.59 912.06 C 436.57 912.66 436.53 913.86 436.51 914.46 C 439.06 917.17 440.96 920.38 442.87 923.57 C 450.40 918.31 459.81 917.46 468.63 916.04 C 469.12 916.28 470.11 916.77 470.61 917.02 C 474.83 916.07 479.09 917.38 483.35 917.25 C 484.44 916.52 485.52 915.75 486.72 915.21 C 490.44 915.72 493.41 918.33 494.76 921.78 C 495.26 922.00 496.26 922.44 496.76 922.66 C 495.48 923.32 494.22 924.02 492.96 924.72 C 494.00 926.27 495.03 927.84 496.06 929.42 C 497.42 928.94 498.78 928.48 500.16 928.03 C 500.38 929.38 500.62 930.74 500.86 932.12 C 500.24 932.76 499.62 933.41 499.00 934.08 C 499.61 934.76 500.23 935.46 500.84 936.17 C 502.97 936.43 505.12 936.54 507.26 936.76 C 507.70 937.14 508.58 937.89 509.03 938.27 C 510.16 938.20 511.29 938.15 512.44 938.10 C 515.08 936.38 517.92 935.02 520.75 933.66 C 524.91 935.01 529.34 935.17 533.50 936.48 C 536.87 938.32 539.63 941.06 542.45 943.64 C 542.40 944.36 542.30 945.80 542.25 946.53 C 540.57 948.52 538.99 950.59 537.40 952.67 C 537.35 953.18 537.25 954.22 537.20 954.74 C 541.02 958.55 545.74 961.24 549.76 964.80 C 547.98 967.98 545.78 970.90 543.91 974.02 C 542.59 975.74 543.95 977.82 544.39 979.61 C 543.25 978.48 542.09 977.40 540.93 976.32 C 537.43 975.78 533.94 975.23 530.42 975.01 C 530.39 975.81 530.34 977.40 530.31 978.19 C 529.46 978.20 527.76 978.21 526.92 978.21 C 523.99 975.43 521.20 972.51 518.69 969.35 C 516.05 965.87 511.14 965.85 507.97 963.07 C 505.17 960.61 502.41 958.12 499.51 955.79 C 497.53 956.19 495.66 956.99 494.89 959.01 C 497.45 961.57 499.55 964.53 501.60 967.51 C 503.68 970.59 507.19 972.09 510.18 974.10 C 511.36 974.15 512.54 974.21 513.73 974.28 C 514.93 975.11 516.15 975.95 517.38 976.78 C 517.37 978.42 517.37 980.08 517.37 981.74 C 514.82 982.72 511.73 983.38 510.76 986.31 C 511.33 986.82 512.48 987.83 513.05 988.34 C 514.98 988.11 516.92 987.90 518.86 987.66 C 519.51 987.75 520.17 987.86 520.83 987.98 C 522.28 987.75 523.73 987.54 525.19 987.37 C 523.64 988.72 522.09 990.07 520.56 991.43 C 526.86 994.03 533.87 993.41 540.22 995.72 C 542.49 995.41 544.77 995.14 547.05 994.93 C 548.78 997.84 550.48 1000.78 552.65 1003.41 C 552.04 1003.70 550.84 1004.27 550.24 1004.56 C 550.30 1006.16 550.36 1007.78 550.42 1009.42 C 552.75 1012.70 554.71 1016.26 557.57 1019.14 C 554.75 1019.29 551.94 1019.43 549.14 1019.70 C 546.67 1018.58 544.02 1018.07 541.32 1018.44 C 538.79 1017.81 536.66 1018.97 534.88 1020.66 C 536.11 1023.40 537.22 1026.61 540.34 1027.74 C 542.98 1029.57 546.16 1028.72 549.06 1028.20 C 547.78 1029.03 546.51 1029.86 545.23 1030.71 C 546.84 1032.21 548.44 1033.75 550.03 1035.29 C 555.28 1034.15 560.66 1033.98 566.02 1034.14 C 566.94 1035.61 567.85 1037.08 568.78 1038.58 C 564.95 1040.93 560.37 1042.15 557.32 1045.64 C 557.26 1046.98 557.20 1048.33 557.13 1049.70 C 556.33 1048.52 555.57 1047.39 554.81 1046.23 C 553.35 1045.71 551.90 1045.22 550.44 1044.75 C 550.37 1046.29 550.31 1047.85 550.25 1049.42 C 549.44 1048.66 548.63 1047.91 547.83 1047.17 C 547.12 1047.13 545.70 1047.05 544.99 1047.01 C 545.41 1047.50 546.24 1048.50 546.66 1048.99 C 543.28 1051.49 540.35 1054.51 537.39 1057.48 C 537.36 1058.19 537.31 1059.61 537.28 1060.32 C 532.84 1059.49 528.38 1058.75 523.94 1057.96 C 523.25 1057.42 522.57 1056.89 521.90 1056.38 C 519.86 1056.02 517.83 1055.63 515.82 1055.18 C 515.03 1055.36 514.24 1055.56 513.46 1055.77 C 511.45 1055.42 509.45 1055.14 507.44 1054.90 C 507.41 1055.58 507.35 1056.93 507.32 1057.61 C 510.71 1058.73 513.93 1060.52 517.52 1060.96 C 518.09 1060.41 519.23 1059.31 519.79 1058.76 C 519.22 1059.98 518.63 1061.17 518.09 1062.43 C 520.67 1066.95 525.34 1069.39 529.42 1072.33 C 529.33 1077.25 529.35 1082.17 529.36 1087.10 C 529.96 1087.11 531.15 1087.13 531.75 1087.14 C 532.57 1086.32 533.39 1085.50 534.21 1084.70 C 534.37 1081.44 534.88 1078.23 535.41 1075.02 C 537.87 1073.35 540.68 1072.36 543.54 1071.64 C 547.08 1069.93 550.83 1068.75 554.57 1067.59 C 556.43 1066.74 558.19 1068.17 559.92 1068.75 C 560.75 1070.90 561.66 1073.04 562.56 1075.18 C 560.74 1077.19 558.41 1078.97 557.56 1081.65 C 557.20 1083.61 557.27 1085.62 557.19 1087.63 C 558.11 1088.45 559.04 1089.29 559.97 1090.14 C 564.16 1087.94 568.74 1086.73 573.05 1084.80 C 571.37 1087.84 573.36 1090.56 575.18 1092.92 C 575.24 1094.13 575.30 1095.35 575.36 1096.59 C 574.54 1097.35 573.73 1098.12 572.93 1098.92 C 573.21 1099.36 573.79 1100.24 574.08 1100.68 C 574.35 1102.11 574.64 1103.56 574.95 1105.01 C 574.54 1105.34 573.73 1106.00 573.32 1106.33 C 573.29 1107.88 573.27 1109.44 573.26 1111.03 C 575.47 1112.08 577.87 1112.83 579.88 1114.27 C 580.82 1115.86 581.14 1117.71 581.61 1119.49 C 582.47 1120.91 583.33 1122.34 584.21 1123.77 C 585.03 1128.38 584.71 1133.06 584.17 1137.69 C 583.70 1138.12 582.77 1138.98 582.30 1139.41 C 582.27 1141.12 582.23 1142.83 582.21 1144.57 C 580.73 1143.61 579.26 1142.65 577.80 1141.69 C 576.73 1143.11 575.66 1144.54 574.64 1146.01 C 574.30 1145.67 573.63 1145.01 573.29 1144.68 C 573.28 1143.46 573.29 1142.27 573.30 1141.08 C 571.97 1141.05 570.64 1141.04 569.32 1141.05 C 569.32 1140.38 569.31 1139.04 569.31 1138.37 C 567.60 1137.99 565.90 1137.63 564.21 1137.24 C 564.27 1136.51 564.37 1135.05 564.43 1134.33 C 562.32 1132.76 560.28 1131.06 557.87 1130.01 C 556.58 1130.56 555.32 1131.20 554.10 1131.91 C 554.18 1131.14 554.34 1129.61 554.42 1128.84 C 551.69 1127.56 548.75 1126.95 545.75 1126.84 C 543.94 1125.14 542.16 1123.40 540.37 1121.69 C 540.32 1120.89 540.28 1120.12 540.24 1119.35 C 538.21 1117.68 536.26 1115.93 534.24 1114.28 C 534.59 1114.04 535.30 1113.56 535.65 1113.31 C 534.93 1111.27 534.16 1109.26 533.48 1107.23 C 533.66 1105.65 535.04 1103.73 533.37 1102.58 C 529.51 1098.84 524.81 1095.95 521.73 1091.44 C 520.65 1091.01 519.57 1090.60 518.51 1090.20 C 518.45 1089.78 518.32 1088.95 518.26 1088.53 C 516.30 1087.78 514.35 1087.02 512.42 1086.22 C 512.84 1084.78 513.23 1083.32 513.65 1081.90 C 512.56 1082.16 511.49 1082.44 510.42 1082.74 C 509.61 1081.88 508.81 1081.04 508.01 1080.21 C 507.56 1080.12 506.64 1079.93 506.19 1079.84 C 504.67 1078.81 503.12 1077.84 501.57 1076.90 C 501.49 1076.54 501.34 1075.81 501.26 1075.44 C 499.92 1074.97 498.59 1074.54 497.27 1074.11 C 497.36 1073.01 497.46 1071.93 497.57 1070.86 C 498.48 1069.39 499.58 1067.92 499.45 1066.10 C 495.49 1063.77 490.56 1064.58 486.57 1062.48 C 484.75 1059.75 483.01 1056.97 480.92 1054.43 C 479.62 1053.94 478.33 1053.46 477.05 1052.99 C 478.65 1051.34 480.25 1049.69 481.83 1048.04 C 480.27 1047.58 478.72 1047.16 477.16 1046.74 C 477.29 1044.29 477.65 1041.88 478.32 1039.54 C 477.30 1038.53 476.28 1037.53 475.27 1036.56 C 475.59 1036.32 476.23 1035.83 476.55 1035.58 C 473.39 1032.30 470.03 1029.16 465.91 1027.13 C 466.81 1023.24 465.03 1019.48 462.27 1016.82 C 463.20 1015.79 464.13 1014.79 465.07 1013.79 C 465.59 1011.47 466.39 1009.22 467.33 1007.05 C 467.37 1005.13 467.40 1003.22 467.43 1001.32 C 466.08 1000.41 464.76 999.52 463.43 998.62 C 467.11 999.09 470.92 999.58 474.50 998.27 C 472.72 997.48 470.94 996.77 469.15 996.06 C 469.57 994.60 470.02 993.13 470.50 991.71 C 469.33 990.52 468.17 989.36 467.01 988.19 C 465.15 988.18 463.29 988.17 461.44 988.19 C 461.44 986.93 461.44 985.69 461.45 984.46 C 459.81 984.12 458.17 983.78 456.54 983.44 C 456.50 982.95 456.42 981.97 456.38 981.48 C 455.52 981.24 453.80 980.75 452.94 980.51 C 453.57 979.94 454.84 978.79 455.47 978.22 C 455.21 976.74 454.29 975.53 453.57 974.27 C 453.49 972.58 453.44 970.90 453.40 969.23 C 451.68 969.19 449.97 969.17 448.27 969.15 C 446.98 968.27 445.68 967.39 444.39 966.54 C 445.24 965.71 446.09 964.88 446.94 964.07 C 446.29 963.46 444.99 962.24 444.34 961.64 C 444.75 961.21 445.58 960.36 445.99 959.94 C 445.47 959.65 444.44 959.08 443.92 958.79 C 442.77 956.41 441.49 954.10 440.13 951.84 C 439.35 950.95 438.56 950.04 437.80 949.16 C 436.38 949.54 434.96 949.93 433.55 950.33 C 434.52 949.67 436.45 948.34 437.42 947.68 C 435.50 946.75 433.44 946.31 431.32 946.39 C 431.34 946.05 431.37 945.36 431.39 945.02 C 427.89 943.04 426.38 939.00 422.94 936.94 C 423.70 935.03 424.50 933.14 425.30 931.26 C 424.92 929.49 424.58 927.73 424.28 925.98 C 425.94 925.48 427.61 924.99 429.28 924.51 C 427.89 923.51 426.49 922.55 425.06 921.64 C 424.35 921.19 423.63 920.76 422.93 920.33 C 422.21 920.30 420.79 920.24 420.07 920.21 C 419.23 919.39 418.39 918.59 417.56 917.80 C 417.49 917.20 417.36 915.99 417.29 915.39 C 415.19 913.91 413.17 912.33 411.17 910.73 C 413.59 910.36 415.94 909.55 417.32 907.38 C 418.80 907.30 420.28 907.21 421.77 907.17 C 422.28 901.15 417.32 897.37 413.43 893.70 C 413.76 893.33 414.40 892.60 414.72 892.23 C 413.75 890.87 412.80 889.52 411.85 888.17 C 410.63 888.58 409.43 889.03 408.22 889.47 C 410.83 885.16 413.54 880.70 417.97 878.02 C 418.43 878.08 419.35 878.20 419.81 878.25 C 420.75 876.00 421.95 873.88 423.46 871.97 C 421.04 869.59 419.28 866.61 419.14 863.16 C 420.58 863.34 422.04 863.56 423.50 863.80 Z" />
<path fill="#a6d262" d=" M 560.00 876.29 C 560.97 874.95 561.95 873.62 562.90 872.28 C 563.65 872.28 565.13 872.28 565.88 872.28 C 567.01 873.44 568.15 874.60 569.30 875.77 C 569.32 876.73 569.35 878.65 569.36 879.61 C 568.62 880.34 567.89 881.10 567.16 881.85 C 563.34 880.92 557.69 881.34 556.64 876.51 C 557.48 876.45 559.16 876.34 560.00 876.29 Z" />
<path fill="#a6d262" d=" M 531.66 992.99 C 529.17 992.00 528.00 989.93 528.24 987.35 C 529.72 988.99 531.05 990.80 531.66 992.99 Z" />
<path fill="#a6d262" d=" M 553.86 1135.55 C 554.33 1135.40 555.28 1135.11 555.76 1134.96 C 556.79 1137.96 558.09 1140.85 559.43 1143.73 C 556.87 1141.52 555.06 1138.67 553.86 1135.55 Z" />
<path fill="#a6d262" d=" M 589.31 1201.28 C 592.64 1201.47 587.71 1204.21 589.31 1201.28 Z" />
</svg>
