<?xml version="1.0" encoding="utf-8"?>
<!-- Generator: Adobe Illustrator 15.0.0, SVG Export Plug-In . SVG Version: 6.00 Build 0)  -->
<!DOCTYPE svg PUBLIC "-//W3C//DTD SVG 1.1//EN" "http://www.w3.org/Graphics/SVG/1.1/DTD/svg11.dtd">
<svg version="1.1" id="Layer_1" xmlns="http://www.w3.org/2000/svg" xmlns:xlink="http://www.w3.org/1999/xlink" x="0px" y="0px"
	 width="820px" height="1220px" viewBox="0 0 820 1220" enable-background="new 0 0 820 1220" xml:space="preserve">
<path fill="#A6D262" d="M0,0H0.06C0.04,0.01,0.01,0.04,0,0.06V0z"/>
<path fill="#A6D262" d="M761.56,74.93c2.8,0.01,5.6,0.01,8.42,0.01c0.03,0.66,0.09,1.98,0.12,2.65c1,0.95,2.02,1.91,3.04,2.87
	c-1.061,0.99-2.101,1.99-3.13,2.99c-0.021,0.55-0.05,1.65-0.061,2.2c1.84,1.73,3.82,3.61,6.561,3.2c1.83-0.14,3.67-0.3,5.51-0.53
	c0.65-0.11,1.97-0.33,2.62-0.44c1-1.07,1.99-2.14,3.01-3.21c1.811,0.44,3.62,0.92,5.43,1.41c-0.02,0.8-0.05,2.38-0.069,3.17
	c0.109,0.25,0.33,0.73,0.439,0.97c-0.21,1.9-0.22,3.82,0.04,5.71c-0.71,1.22-1.439,2.43-2.17,3.63c-0.43,2.35-0.97,4.67-1.6,6.97
	c-1.681-1.311-3.38-2.59-5.021-3.94c-1.02,4.74-4.59,8.05-8.02,11.14c-2.8,0.26-5.561,0.7-8.3,1.27c-0.46,0.5-1.381,1.5-1.841,2
	c-0.96-0.06-1.899-0.12-2.829-0.18c-2.461-1.65-5-3.17-7.421-4.89c-0.64-2.66-1.34-5.3-2.079-7.93c-0.091-2.99-0.171-5.99-0.45-8.97
	c-0.69-4.17,0.52-8.36,0.41-12.55C756.32,79.67,758.68,77.02,761.56,74.93z"/>
<path fill="#A6D262" d="M748.58,128.96c0.261,0.19,0.78,0.56,1.04,0.75c2.061-0.42,4.181-0.57,6.301-0.34
	c1.79,0.51,3.59,0.99,5.399,1.5c-0.26,0.36-0.76,1.09-1.01,1.45c0.34,1.1,0.68,2.2,1.03,3.31c0.659,0.74,1.33,1.48,2.01,2.23
	c3.04,0.69,6.149,1.05,9.28,1.18c1.8,1.76,3.58,3.53,5.369,5.32c-0.17,4.12-0.029,8.36,2.08,12.04c-2.029,1.23-4.04,2.48-6.06,3.71
	c-2.28-1.42-4.43-3.14-6.98-4.05c-4.6,0-9.069,1.38-13.6,2.01c-0.96,0.92-1.9,1.85-2.83,2.79c1.62,2.47,3.55,4.74,5.811,6.67
	c2.35,2.96,5.5,5.04,8.79,6.83c-0.54,1.43-1.04,2.86-1.53,4.3c-0.87,0.9-1.73,1.8-2.58,2.71c0.03,3.52-0.05,7.05-0.65,10.52
	c0.28,1.79,0.53,3.58,0.79,5.38c-1.979,1.08-3.939,2.18-5.84,3.37c-3.57,0.85-7.49,0.99-10.57,3.19
	c-3.85,2.58-8.319,4.01-12.649,5.55c-1.54,0.31-4.19,1.39-4.61-0.86c-0.76-3.28-1.229-6.61-2.04-9.87
	c-0.92-3.42,0.13-6.89,0.181-10.34c-0.61-1.45-1.5-2.75-2.341-4.06c-0.09-0.49-0.27-1.45-0.35-1.93c-0.46-0.45-1.37-1.33-1.82-1.78
	c-0.04-0.54-0.109-1.63-0.149-2.17c-3.271-3.08-6.11-6.55-8.88-10.07c-0.011-0.89-0.021-1.78-0.011-2.66
	c2.25-2.75,4.08-5.8,6.051-8.75c0.619-0.01,1.88-0.01,2.51-0.02c0.47-0.51,1.39-1.55,1.859-2.06c2.46,0.06,4.92,0.13,7.391,0.27
	c1.83,0.42,3.68,0.76,5.55,1.09c0.74-0.86,1.479-1.72,2.24-2.58c0.29-3.85,1.63-7.56,4.05-10.59c0.15-0.77,0.31-1.53,0.49-2.3
	c1.479-2.22,2.58-4.66,3.189-7.27C746.52,131.95,747.56,130.47,748.58,128.96z"/>
<path fill="#A6D262" d="M589.31,1201.28C592.64,1201.47,587.711,1204.21,589.31,1201.28z"/>
</svg>
