<?xml version="1.0" encoding="utf-8"?>
<!-- Generator: Adobe Illustrator 15.0.0, SVG Export Plug-In . SVG Version: 6.00 Build 0)  -->
<!DOCTYPE svg PUBLIC "-//W3C//DTD SVG 1.1//EN" "http://www.w3.org/Graphics/SVG/1.1/DTD/svg11.dtd">
<svg version="1.1" id="Layer_1" xmlns="http://www.w3.org/2000/svg" xmlns:xlink="http://www.w3.org/1999/xlink" x="0px" y="0px"
	 width="820px" height="1220px" viewBox="0 0 820 1220" enable-background="new 0 0 820 1220" xml:space="preserve">
<path fill="#A6D262" d="M0,0H0.06C0.04,0.01,0.01,0.04,0,0.06V0z"/>
<path fill="#A6D262" d="M707.08,185.26c-0.8-0.75-1.59-1.5-2.369-2.25c-3.37-0.75-6.75-1.44-10.091-2.28
	c-1.659-5.24-7.18-6.87-11.87-8.33c-2.449-1.56-5.21-2.53-8.079-2.89c-2.58-1.95-5.341-3.63-8.12-5.26
	c-2.15-0.59-4.261-1.31-6.32-2.12c-0.01-0.7-0.02-2.09-0.03-2.78c-2.109-2.05-4.21-4.1-6.33-6.13c0.66-2.41,1.63-4.729,2.101-7.189
	c0.18-2.82-0.74-5.58-0.79-8.39c0.021,0.004,0.04,0.01,0.061,0.016c-0.047-0.185-0.098-0.368-0.13-0.555
	c-0.023-0.14-0.036-0.281-0.051-0.421c-5.15-4.556-7.399-11.665-12.69-16.181c-0.1-0.46-0.279-1.38-0.38-1.84
	c-2.24-3.17-3.99-6.67-5.18-10.37c-2.79-2.67-5.39-5.69-6.09-9.62c-3.78-5.82-3.44-13.04-3.48-19.69c0.021-2.58-0.35-5.97-3.1-7.09
	c-3.351-1.35-7.141-2.48-10.76-1.65c-1.471,1.46-2.25,3.46-2.83,5.41c-2.13,10.13-5.03,20.63-2.19,30.94
	c1.97,1.93,3.92,3.87,5.88,5.8c0.01,0.55,0.021,1.65,0.021,2.2c0.5,0.44,1.489,1.31,1.989,1.75c0.011,0.56,0.021,1.67,0.03,2.22
	c0.94,0.91,1.891,1.82,2.83,2.74c0.74,6.96,2.93,13.97,1.39,20.96c-0.84,4.87,0.181,9.76,0.261,14.63
	c-0.785,4.03-2.235,8.173-0.876,12.225c0.078,0.231,0.171,0.462,0.268,0.693c0.182,0.161,0.333,0.328,0.476,0.502
	c0.052,0.037,0.106,0.073,0.145,0.116c0.085,0.097,0.147,0.201,0.211,0.308c0.022-0.001,0.045-0.002,0.067-0.003
	c2.22,3.05,3.64,6.56,4.89,10.1c0.37,1.83,0.8,3.66,1.39,5.45c-0.52,3.49-2.029,6.689-3.59,9.81c-1.29,2.1-2.42,4.3-3.479,6.53
	c-0.511,5.25,1.8,10.01,4.38,14.43c-1.92-0.3-3.72-0.99-5.32-2.09c-0.38-2.66-0.85-5.31-1.21-7.97c-2.52-1.771-5.14-3.37-7.68-5.1
	c-1.86-0.03-3.72-0.06-5.561-0.08c-0.93,0.84-1.859,1.69-2.779,2.53c0.1,3.04,0.47,6.07,1.5,8.95c1.81,5.52,1.229,12.05,5.33,16.63
	c3.109,3.14,5.43,6.89,7.97,10.48c1.62,5.03,3.12,10.41,7.229,14.04c0.051,0.52,0.16,1.57,0.221,2.09
	c0.46,0.43,1.399,1.29,1.859,1.72c0.03,0.57,0.101,1.69,0.13,2.25c4.71,4.11,8.391,9.17,12.58,13.77
	c0.681,3.29,1.101,7.57,4.771,8.91c2.88,1.86,5.43-1.2,7.68-2.67c-0.35-3.42,0.601-7.36-1.649-10.28
	c-2.45-3.21-5.54-6.16-6.561-10.21c-1.65-4.38-2.2-9.05-1.979-13.71c-0.45-0.44-1.351-1.33-1.801-1.77
	c-0.1-0.48-0.31-1.44-0.409-1.92c-2.95-4.69-5.03-9.92-6.051-15.37c-0.41-0.45-1.21-1.35-1.62-1.8c-0.06-1.63-0.119-3.25-0.17-4.87
	c5.351-2.07,8.66,3.72,12.07,6.73c0.021,0.56,0.07,1.67,0.09,2.23c0.47,0.44,1.431,1.31,1.91,1.74c0.03,0.54,0.09,1.63,0.13,2.17
	c0.351,0.45,1.05,1.36,1.41,1.81c0.89,2.16,1.92,4.27,3.02,6.34c0.75,2.72,1.69,5.39,2.74,8.02c2.23,3.12,5.59,5.31,7.17,8.92
	c0.95,0.53,1.91,1.07,2.88,1.61c1.44,1.8,2.971,3.53,4.53,5.24c0.061,0.54,0.17,1.61,0.23,2.15c0.729,0.7,1.47,1.4,2.21,2.11
	c1.149,0.16,2.31,0.32,3.47,0.49c5.45,1.04,11.02,0.6,16.53,0.59c0.83,0.8,1.66,1.6,2.51,2.4c1.9-1.66,3.81-3.31,5.81-4.88
	c0.45-1.42,0.92-2.83,1.41-4.23c-0.85-1.67-1.68-3.33-2.49-5c-1.199-0.48-2.39-0.96-3.56-1.43c-0.45-2.26-0.87-4.53-1.17-6.81
	c1.66-2.43,3.54-4.88,4.14-7.83c-0.14-2.74-1.5-5.21-2.34-7.77c-1.87-1.13-3.649-2.49-5.76-3.13c-3.44-0.5-6.94-0.22-10.4-0.27
	c-2.229-2.3-4.649-4.41-7.34-6.14c-4.92-3.09-8.37-8.01-11.02-13.07c-2.051-3.6-4.65-6.84-6.971-10.27
	c0.33-4.82-1.21-9.38-3.3-13.65c0.561-0.6,1.12-1.2,1.69-1.8c1.39,0.42,2.79,0.83,4.189,1.23c5.11,4.04,6.141,10.93,10.67,15.46
	c2.92,1.73,5.851,3.49,8.341,5.83c3.449,1.57,6.77,3.43,9.979,5.48c2.69-1.3,5.59-2.04,8.561-2.34c3.47-2.32,7.439-3.86,10.56-6.71
	c0.09-0.55,0.27-1.67,0.36-2.22c2.27-3.28,3.05-7.23,4.18-10.98C708.41,190.17,707.51,187.67,707.08,185.26z"/>
<path fill="#A6D262" d="M707.68,124.39c-2.88-3.41-6.061-6.53-9.22-9.67c-2.11,0.44-4.2,0.94-6.29,1.39
	c-0.521,1.91-1.011,3.83-1.45,5.77c-0.01,1.04-0.021,2.08-0.01,3.12c-0.28,1.81-0.521,3.62-0.73,5.44
	c-1.53,1.64-3.09,3.25-4.59,4.91c-1.33-0.55-3.05-0.55-4.01-1.71c-0.36-2.29-0.23-4.61-0.25-6.91c-0.25-0.37-0.74-1.11-0.99-1.48
	c-0.101-5.77,0.41-11.58-0.29-17.32c-0.74-3.82-1.67-8.42-5.47-10.35c-3.131-1.82-5.66-4.45-8.17-7.01
	c-0.011-0.55-0.021-1.65-0.021-2.19c-0.99-0.91-1.95-1.82-2.92-2.73c-0.47-2.1-0.93-4.21-1.32-6.33c-0.5-0.48-1.5-1.46-2-1.94
	c0.58-1.96,1.141-3.91,1.75-5.86c-1.069-5.89-2.38-11.76-4.37-17.42c-0.069-0.6-0.21-1.81-0.279-2.41
	c-2.521-2.43-3.71-5.75-4.09-9.17c-1.11,0.11-2.221,0.28-3.32,0.26c-2.84-2.36-4.76-5.59-7.271-8.26c-0.04-0.23-0.12-0.68-0.149-0.9
	c-1.71-0.05-3.34-0.49-4.9-1.16c-3.04,0.59-6.07-0.08-9.04-0.67c-0.02,0.78-0.05,2.33-0.069,3.1c-0.57,0.05-1.73,0.16-2.301,0.21
	c-0.92,0.86-1.84,1.72-2.77,2.56c0.399,0.33,1.18,0.98,1.57,1.31c-0.99,0.99-1.961,1.98-2.931,2.97c-0.649,0.04-1.95,0.12-2.6,0.16
	c0.02,1.11,0.05,2.22,0.08,3.33c2.5,3.68,5.85,6.6,9.81,8.61c5.7,3,9.19,8.92,15.15,11.46c0.41,1.5,0.859,2.99,1.029,4.55
	c-0.8,3.01-3.01,5.38-4.06,8.29c-1.8,4.69-2.68,9.92-1.54,14.87c1.061,4.48,5.04,7.31,6.94,11.38c3.59,5.55,1.779,12.93,6.3,18.09
	c0.906,5.08,2.734,9.942,3.529,15.05c0.012,0.027,0.012,0.056,0.026,0.083c0.107,0.203,0.218,0.403,0.318,0.607
	c1.486,1.43,1.255,4.353,1.666,6.289c2.59,2.86,5.7,5.43,9.6,6.16c12.26,2.87,23.42,10.39,36.33,10.25
	c0.88-2.24,0.44-4.45-1.31-6.15c-0.04-2.65,0.59-5.37,2.68-7.16c4.12-3.88,7.43-8.49,11.38-12.53c0.01-1.67,0.021-3.33,0.03-4.99
	C714.14,128.09,711.14,125.82,707.68,124.39z"/>
<path fill="#A6D262" d="M618.11,172.59c-0.252-0.365-0.697-1.017-1.003-1.454c-0.007-0.01-0.017-0.014-0.023-0.024
	c-0.12-0.184-0.287-0.3-0.357-0.519c-0.088-0.272-0.248-0.517-0.393-0.762c-0.162-0.276-0.333-0.546-0.491-0.823
	c-0.079-0.089-0.165-0.166-0.232-0.278c-1.649-3.47-1.07-7.44-2.17-11.05c-0.92-2.95-1.83-5.91-2.479-8.93
	c-0.15-0.39-0.461-1.16-0.62-1.55c0-5.73-0.58-11.8-3.601-16.8c-4.35-5.75-8.18-11.94-13.41-16.96c-0.06-0.94-0.1-1.88-0.14-2.82
	c-1.54-1.84-2.99-3.76-4.4-5.71c0.41-0.36,1.221-1.09,1.62-1.45c-1.39-1.31-2.77-2.62-4.149-3.93c0.01-1.72,0.029-3.44,0.06-5.15
	c-1.08-0.99-2.16-1.97-3.229-2.95c0.58-2.34,1.14-4.69,1.739-7.02c-0.54-1.95-1.069-3.9-1.64-5.84c0.32-0.26,0.96-0.78,1.28-1.04
	c-0.42-0.39-1.271-1.17-1.69-1.561c0.42-0.37,1.25-1.13,1.67-1.51c-1.06-0.94-2.09-1.88-3.13-2.82c-0.03-0.48-0.1-1.43-0.13-1.9
	c-2.93-2.03-5.28-4.71-7.58-7.39c-0.58-0.97-1.85-0.54-2.75-0.75c-0.54-0.01-1.62-0.03-2.16-0.04c-1.399,0.18-2.8,0.36-4.18,0.54
	c-1.08,5.18-2.01,10.39-3.01,15.59c0.21,0.23,0.63,0.69,0.85,0.92c1.07,10.02-4.26,21.03,1.75,30.19
	c0.61,4.47,1.021,9.08,3.05,13.19c0.061,1.52,0.12,3.05,0.181,4.58c0.489,0.44,1.479,1.33,1.97,1.78c0.01,0.99,0.03,1.98,0.05,2.97
	c4.09,4.29,6.72,9.7,10.64,14.14c0.551,4.86,2.521,9.38,3.591,14.12c0.39,0.44,1.149,1.33,1.54,1.78c0.31,4.07,1,8.09,1.319,12.16
	c3.07,2.75,5.561,6.03,7.721,9.53c4.55,6.7,13.17,8.38,20.71,9.08c2.22-2.51,4.43-5.48,4.319-9.01
	C618.94,179.6,618.22,176.12,618.11,172.59z"/>
<path fill="#A6D262" d="M761.56,74.93c2.8,0.01,5.6,0.01,8.42,0.01c0.03,0.66,0.09,1.98,0.12,2.65c1,0.95,2.02,1.91,3.04,2.87
	c-1.061,0.99-2.101,1.99-3.13,2.99c-0.021,0.55-0.05,1.65-0.061,2.2c1.84,1.73,3.82,3.61,6.561,3.2c1.83-0.14,3.67-0.3,5.51-0.53
	c0.65-0.11,1.97-0.33,2.62-0.44c1-1.07,1.99-2.14,3.01-3.21c1.811,0.44,3.62,0.92,5.43,1.41c-0.02,0.8-0.05,2.38-0.069,3.17
	c0.109,0.25,0.33,0.73,0.439,0.97c-0.21,1.9-0.22,3.82,0.04,5.71c-0.71,1.22-1.439,2.43-2.17,3.63c-0.43,2.35-0.97,4.67-1.6,6.97
	c-1.681-1.311-3.38-2.59-5.021-3.94c-1.02,4.74-4.59,8.05-8.02,11.14c-2.8,0.26-5.561,0.7-8.3,1.27c-0.46,0.5-1.381,1.5-1.841,2
	c-0.96-0.06-1.899-0.12-2.829-0.18c-2.461-1.65-5-3.17-7.421-4.89c-0.64-2.66-1.34-5.3-2.079-7.93c-0.091-2.99-0.171-5.99-0.45-8.97
	c-0.69-4.17,0.52-8.36,0.41-12.55C756.32,79.67,758.68,77.02,761.56,74.93z"/>
<path fill="#A6D262" d="M748.58,128.96c0.261,0.19,0.78,0.56,1.04,0.75c2.061-0.42,4.181-0.57,6.301-0.34
	c1.79,0.51,3.59,0.99,5.399,1.5c-0.26,0.36-0.76,1.09-1.01,1.45c0.34,1.1,0.68,2.2,1.03,3.31c0.659,0.74,1.33,1.48,2.01,2.23
	c3.04,0.69,6.149,1.05,9.28,1.18c1.8,1.76,3.58,3.53,5.369,5.32c-0.17,4.12-0.029,8.36,2.08,12.04c-2.029,1.23-4.04,2.48-6.06,3.71
	c-2.28-1.42-4.43-3.14-6.98-4.05c-4.6,0-9.069,1.38-13.6,2.01c-0.96,0.92-1.9,1.85-2.83,2.79c1.62,2.47,3.55,4.74,5.811,6.67
	c2.35,2.96,5.5,5.04,8.79,6.83c-0.54,1.43-1.04,2.86-1.53,4.3c-0.87,0.9-1.73,1.8-2.58,2.71c0.03,3.52-0.05,7.05-0.65,10.52
	c0.28,1.79,0.53,3.58,0.79,5.38c-1.979,1.08-3.939,2.18-5.84,3.37c-3.57,0.85-7.49,0.99-10.57,3.19
	c-3.85,2.58-8.319,4.01-12.649,5.55c-1.54,0.31-4.19,1.39-4.61-0.86c-0.76-3.28-1.229-6.61-2.04-9.87
	c-0.92-3.42,0.13-6.89,0.181-10.34c-0.61-1.45-1.5-2.75-2.341-4.06c-0.09-0.49-0.27-1.45-0.35-1.93c-0.46-0.45-1.37-1.33-1.82-1.78
	c-0.04-0.54-0.109-1.63-0.149-2.17c-3.271-3.08-6.11-6.55-8.88-10.07c-0.011-0.89-0.021-1.78-0.011-2.66
	c2.25-2.75,4.08-5.8,6.051-8.75c0.619-0.01,1.88-0.01,2.51-0.02c0.47-0.51,1.39-1.55,1.859-2.06c2.46,0.06,4.92,0.13,7.391,0.27
	c1.83,0.42,3.68,0.76,5.55,1.09c0.74-0.86,1.479-1.72,2.24-2.58c0.29-3.85,1.63-7.56,4.05-10.59c0.15-0.77,0.31-1.53,0.49-2.3
	c1.479-2.22,2.58-4.66,3.189-7.27C746.52,131.95,747.56,130.47,748.58,128.96z"/>
</svg>
