<?xml version="1.0" encoding="utf-8"?>
<!-- Generator: Adobe Illustrator 15.0.0, SVG Export Plug-In . SVG Version: 6.00 Build 0)  -->
<!DOCTYPE svg PUBLIC "-//W3C//DTD SVG 1.1//EN" "http://www.w3.org/Graphics/SVG/1.1/DTD/svg11.dtd">
<svg version="1.1" xmlns="http://www.w3.org/2000/svg" xmlns:xlink="http://www.w3.org/1999/xlink" x="0px" y="0px" width="512px"
	 height="512px" viewBox="0 0 512 512" enable-background="new 0 0 512 512" xml:space="preserve">
<g id="Layer_2" display="none">
	<rect x="-65.5" y="-31.5" display="inline" fill="#1F5AFF" stroke="#FFFFFF" stroke-miterlimit="10" width="651" height="581"/>
</g>
<g id="Layer_1">
	<path d="M72.628,97.126V35.57c0-8.506,6.882-15.389,15.389-15.389c8.508,0,15.389,6.883,15.389,15.389v61.557
		c0,8.507-6.88,15.389-15.389,15.389C79.51,112.515,72.628,105.633,72.628,97.126z M334.241,112.515
		c8.509,0,15.39-6.882,15.39-15.389V35.57c0-8.506-6.881-15.389-15.39-15.389c-8.506,0-15.388,6.883-15.388,15.389v61.557
		C318.853,105.633,325.735,112.515,334.241,112.515z M503.521,389.519c0,67.988-55.124,123.112-123.112,123.112
		c-67.989,0-123.112-55.124-123.112-123.112c0-67.989,55.123-123.112,123.112-123.112
		C448.397,266.406,503.521,321.529,503.521,389.519z M472.744,389.519c0-50.916-41.42-92.335-92.335-92.335
		c-50.914,0-92.335,41.419-92.335,92.335c0,50.915,41.421,92.335,92.335,92.335C431.324,481.854,472.744,440.434,472.744,389.519z
		 M134.184,204.85H72.628v61.557h61.556V204.85z M72.628,358.74h61.556v-61.557H72.628V358.74z M164.962,266.406h61.557V204.85
		h-61.557V266.406z M164.962,358.74h61.557v-61.557h-61.557V358.74z M41.85,386.453V174.072h338.559v61.557h30.778V115.582
		c0-18.696-14.908-33.845-33.331-33.845H365.02v15.389c0,16.953-13.797,30.778-30.779,30.778c-16.979,0-30.777-13.826-30.777-30.778
		V81.737H118.795v15.389c0,16.953-13.796,30.778-30.778,30.778c-16.98,0-30.778-13.826-30.778-30.778V81.737H44.42
		c-18.425,0-33.349,15.148-33.349,33.845v270.871c0,18.635,14.923,33.844,33.349,33.844h182.099v-30.778H44.42
		C43.023,389.519,41.85,388.076,41.85,386.453z M318.853,266.406V204.85h-61.557v61.557H318.853z M426.577,389.519h-46.168v-46.168
		c0-8.506-6.881-15.388-15.389-15.388s-15.39,6.882-15.39,15.388v61.557c0,8.508,6.882,15.39,15.39,15.39h61.557
		c8.507,0,15.388-6.882,15.388-15.39C441.965,396.401,435.084,389.519,426.577,389.519z"/>
	<path fill="#FFFFFF" d="M72.628,76.938V15.381c0-8.506,6.882-15.389,15.389-15.389c8.508,0,15.389,6.883,15.389,15.389v61.557
		c0,8.507-6.881,15.389-15.389,15.389C79.51,92.327,72.628,85.445,72.628,76.938z M334.241,92.327c8.509,0,15.39-6.882,15.39-15.389
		V15.381c0-8.506-6.881-15.389-15.39-15.389c-8.506,0-15.388,6.883-15.388,15.389v61.557
		C318.853,85.445,325.735,92.327,334.241,92.327z M503.521,369.33c0,67.989-55.124,123.113-123.112,123.113
		c-67.989,0-123.112-55.124-123.112-123.113s55.123-123.112,123.112-123.112C448.397,246.218,503.521,301.341,503.521,369.33z
		 M472.744,369.33c0-50.916-41.42-92.334-92.335-92.334c-50.914,0-92.335,41.418-92.335,92.334s41.421,92.334,92.335,92.334
		C431.324,461.664,472.744,420.246,472.744,369.33z M134.184,184.662H72.628v61.557h61.556V184.662z M72.628,338.553h61.556v-61.557
		H72.628V338.553z M164.962,246.218h61.557v-61.557h-61.557V246.218z M164.962,338.553h61.557v-61.557h-61.557V338.553z
		 M41.85,366.264v-212.38h338.559v61.556h30.778V95.393c0-18.696-14.908-33.844-33.331-33.844H365.02v15.389
		c0,16.953-13.797,30.778-30.779,30.778c-16.979,0-30.777-13.826-30.777-30.778V61.549H118.795v15.389
		c0,16.953-13.796,30.778-30.778,30.778c-16.98,0-30.778-13.826-30.778-30.778V61.549H44.42c-18.425,0-33.349,15.148-33.349,33.844
		v270.871c0,18.637,14.923,33.845,33.349,33.845h182.099V369.33H44.42C43.023,369.33,41.85,367.888,41.85,366.264z M318.853,246.218
		v-61.557h-61.557v61.557H318.853z M426.577,369.33h-46.168v-46.167c0-8.507-6.881-15.39-15.389-15.39s-15.39,6.883-15.39,15.39
		v61.557c0,8.506,6.882,15.389,15.39,15.389h61.557c8.507,0,15.388-6.883,15.388-15.389
		C441.965,376.213,435.084,369.33,426.577,369.33z"/>
</g>
</svg>
