<?xml version="1.0" encoding="utf-8"?>
<!-- Generator: Adobe Illustrator 15.0.0, SVG Export Plug-In . SVG Version: 6.00 Build 0)  -->
<!DOCTYPE svg PUBLIC "-//W3C//DTD SVG 1.1//EN" "http://www.w3.org/Graphics/SVG/1.1/DTD/svg11.dtd">
<svg version="1.1" id="Layer_1" xmlns="http://www.w3.org/2000/svg" xmlns:xlink="http://www.w3.org/1999/xlink" x="0px" y="0px"
	 width="50px" height="50px" viewBox="-18 -18 50 50" enable-background="new -18 -18 50 50" xml:space="preserve">
<path d="M7.959-13.917C-3.617-13.917-13-4.534-13,7.042C-13,18.617-3.617,28,7.959,28c11.575,0,20.958-9.383,20.958-20.958
	C28.917-4.534,19.534-13.917,7.959-13.917z M7.959,22.013c-8.271,0-14.971-6.702-14.971-14.971c0-8.271,6.7-14.971,14.971-14.971
	c8.269,0,14.971,6.7,14.971,14.971C22.93,15.311,16.228,22.013,7.959,22.013z M13.946,4.048h-2.994V-1.94
	c0-1.655-1.339-2.995-2.993-2.995c-1.657,0-2.994,1.339-2.994,2.995v8.982c0,1.654,1.337,2.993,2.994,2.993h5.987
	c1.655,0,2.994-1.339,2.994-2.993C16.94,5.386,15.602,4.048,13.946,4.048z"/>
<path fill="#FFFFFF" d="M6.709-15.25c-11.576,0-20.959,9.383-20.959,20.959c0,11.575,9.383,20.958,20.959,20.958
	c11.575,0,20.958-9.383,20.958-20.958C27.667-5.867,18.284-15.25,6.709-15.25z M6.709,20.68c-8.271,0-14.971-6.702-14.971-14.971
	c0-8.271,6.7-14.971,14.971-14.971c8.269,0,14.971,6.7,14.971,14.971C21.68,13.978,14.978,20.68,6.709,20.68z M12.696,2.715H9.702
	v-5.988c0-1.655-1.339-2.995-2.993-2.995c-1.657,0-2.994,1.339-2.994,2.995v8.982c0,1.654,1.337,2.993,2.994,2.993h5.987
	c1.655,0,2.994-1.339,2.994-2.993C15.69,4.053,14.352,2.715,12.696,2.715z"/>
</svg>
