<?xml version="1.0" encoding="utf-8"?>
<!-- Generator: Adobe Illustrator 15.0.0, SVG Export Plug-In . SVG Version: 6.00 Build 0)  -->
<!DOCTYPE svg PUBLIC "-//W3C//DTD SVG 1.1//EN" "http://www.w3.org/Graphics/SVG/1.1/DTD/svg11.dtd">
<svg version="1.1" id="Layer_1" xmlns="http://www.w3.org/2000/svg" xmlns:xlink="http://www.w3.org/1999/xlink" x="0px" y="0px"
	 width="68px" height="68px" viewBox="0 0 68 68" enable-background="new 0 0 68 68" xml:space="preserve">
<g id="Background" display="none">
	<rect x="-8.25" y="-5.125" display="inline" fill="#3F8DFF" width="81.5" height="85.375"/>
</g>
<g id="Layer_1_2_">
	<g id="Circle">
		<circle fill="none" stroke="#FFFFFF" stroke-width="2" stroke-miterlimit="10" cx="33.5" cy="34.164" r="32.5"/>
		<g enable-background="new    ">
			<path fill="#FFFFFF" d="M36.883,10.4h-1.731l-2.795-4.86h-0.04C32.373,6.398,32.4,7.011,32.4,7.377V10.4h-1.217V3.976h1.718
				l2.79,4.812h0.031c-0.044-0.834-0.066-1.425-0.066-1.771V3.976h1.227V10.4z"/>
		</g>
		<g enable-background="new    ">
			<path fill="#FFFFFF" d="M36.101,62.63c0,0.58-0.208,1.037-0.626,1.371s-0.999,0.501-1.743,0.501
				c-0.686,0-1.292-0.129-1.819-0.387V62.85c0.434,0.193,0.8,0.33,1.101,0.408c0.3,0.08,0.575,0.119,0.824,0.119
				c0.299,0,0.528-0.057,0.688-0.172c0.159-0.113,0.239-0.283,0.239-0.51c0-0.125-0.035-0.237-0.105-0.336
				c-0.07-0.098-0.173-0.192-0.31-0.283c-0.136-0.091-0.414-0.235-0.833-0.436c-0.393-0.184-0.687-0.361-0.883-0.531
				s-0.353-0.367-0.47-0.594c-0.117-0.225-0.176-0.488-0.176-0.791c0-0.567,0.192-1.015,0.578-1.34s0.918-0.488,1.598-0.488
				c0.334,0,0.652,0.04,0.957,0.119c0.303,0.079,0.619,0.19,0.951,0.334l-0.439,1.059c-0.344-0.141-0.627-0.238-0.852-0.294
				c-0.223-0.056-0.444-0.083-0.661-0.083c-0.258,0-0.456,0.06-0.593,0.18s-0.207,0.277-0.207,0.471c0,0.12,0.028,0.225,0.083,0.313
				c0.056,0.09,0.144,0.176,0.266,0.26c0.121,0.083,0.409,0.233,0.863,0.45c0.602,0.287,1.013,0.575,1.235,0.863
				C35.989,61.857,36.101,62.211,36.101,62.63z"/>
		</g>
		<g enable-background="new    ">
			<path fill="#FFFFFF" d="M63.008,37.539h-3.699v-6.425h3.699v1.116H60.67v1.41h2.176v1.117H60.67v1.656h2.338V37.539z"/>
		</g>
		<g enable-background="new    ">
			<path fill="#FFFFFF" d="M7.474,31.489h1.375l-2.184,6.425H5.18L3,31.489h1.375l1.208,3.823c0.067,0.226,0.137,0.488,0.209,0.789
				c0.071,0.3,0.116,0.509,0.134,0.626c0.032-0.27,0.142-0.741,0.33-1.415L7.474,31.489z"/>
		</g>
	</g>
</g>
</svg>
