<?xml version="1.0" encoding="utf-8"?>
<!-- Generator: Adobe Illustrator 15.0.0, SVG Export Plug-In . SVG Version: 6.00 Build 0)  -->
<!DOCTYPE svg PUBLIC "-//W3C//DTD SVG 1.1//EN" "http://www.w3.org/Graphics/SVG/1.1/DTD/svg11.dtd">
<svg version="1.1" id="Layer_1" xmlns="http://www.w3.org/2000/svg" xmlns:xlink="http://www.w3.org/1999/xlink" x="0px" y="0px"
	 width="820px" height="1220px" viewBox="0 0 820 1220" enable-background="new 0 0 820 1220" xml:space="preserve">
<path fill="#00BF2B" d="M0,0H0.06C0.04,0.01,0.01,0.04,0,0.06V0z"/>
<path fill="#00BF2B" d="M628.28,31.79c2.97,0.59,6,1.26,9.04,0.67c1.561,0.67,3.19,1.11,4.9,1.16c0.029,0.22,0.109,0.67,0.149,0.9
	c2.511,2.67,4.431,5.9,7.271,8.26c1.1,0.02,2.21-0.15,3.32-0.26c0.38,3.42,1.569,6.74,4.09,9.17c0.069,0.6,0.21,1.81,0.279,2.41
	c1.99,5.66,3.301,11.53,4.37,17.42c-0.609,1.95-1.17,3.9-1.75,5.86c0.5,0.48,1.5,1.46,2,1.94c0.391,2.12,0.851,4.23,1.32,6.33
	c0.97,0.91,1.93,1.82,2.92,2.73c0,0.54,0.01,1.64,0.021,2.19c2.51,2.56,5.039,5.19,8.17,7.01c3.8,1.93,4.729,6.53,5.47,10.35
	c0.7,5.74,0.189,11.55,0.29,17.32c0.25,0.37,0.74,1.11,0.99,1.48c0.02,2.3-0.11,4.62,0.25,6.91c0.96,1.16,2.68,1.16,4.01,1.71
	c1.5-1.66,3.06-3.27,4.59-4.91c0.21-1.82,0.45-3.63,0.73-5.44c-0.011-1.04,0-2.08,0.01-3.12c0.439-1.94,0.93-3.86,1.45-5.77
	c2.09-0.45,4.18-0.95,6.29-1.39c3.159,3.14,6.34,6.26,9.22,9.67c3.46,1.43,6.46,3.7,9.46,5.9c-0.01,1.66-0.021,3.32-0.03,4.99
	c-3.95,4.04-7.26,8.65-11.38,12.53c-2.09,1.79-2.72,4.51-2.68,7.16c1.75,1.7,2.189,3.91,1.31,6.15
	c-12.91,0.14-24.07-7.38-36.33-10.25c-3.899-0.73-7.01-3.3-9.6-6.16c-0.521-2.45,0-6.49-3.25-7.07c0.05,2.81,0.97,5.57,0.79,8.39
	c-0.471,2.46-1.44,4.78-2.101,7.189c2.12,2.03,4.221,4.08,6.33,6.13c0.011,0.69,0.021,2.08,0.03,2.78c2.06,0.81,4.17,1.53,6.32,2.12
	c2.779,1.63,5.54,3.31,8.12,5.26c2.869,0.36,5.63,1.33,8.079,2.89c4.69,1.46,10.211,3.09,11.87,8.33
	c3.341,0.84,6.721,1.53,10.091,2.28c0.779,0.75,1.569,1.5,2.369,2.25c0.431,2.41,1.33,4.91,0.48,7.34
	c-1.13,3.75-1.91,7.7-4.18,10.98c-0.091,0.55-0.271,1.67-0.36,2.22c-3.12,2.85-7.09,4.39-10.56,6.71
	c-2.971,0.3-5.87,1.04-8.561,2.34c-3.21-2.05-6.53-3.91-9.979-5.48c-2.49-2.34-5.421-4.1-8.341-5.83
	c-4.529-4.53-5.56-11.42-10.67-15.46c-1.399-0.4-2.8-0.81-4.189-1.23c-0.57,0.6-1.13,1.2-1.69,1.8c2.09,4.27,3.63,8.83,3.3,13.65
	c2.32,3.43,4.92,6.67,6.971,10.27c2.649,5.06,6.1,9.98,11.02,13.07c2.69,1.73,5.11,3.84,7.34,6.14c3.46,0.05,6.96-0.23,10.4,0.27
	c2.11,0.64,3.89,2,5.76,3.13c0.84,2.56,2.2,5.03,2.34,7.77c-0.6,2.95-2.479,5.4-4.14,7.83c0.3,2.28,0.72,4.55,1.17,6.81
	c1.17,0.47,2.36,0.95,3.56,1.43c0.811,1.67,1.641,3.33,2.49,5c-0.49,1.4-0.96,2.81-1.41,4.23c-2,1.57-3.909,3.22-5.81,4.88
	c-0.85-0.8-1.68-1.6-2.51-2.4c-5.511,0.01-11.08,0.45-16.53-0.59c-1.16-0.17-2.32-0.33-3.47-0.49c-0.74-0.71-1.48-1.41-2.21-2.11
	c-0.061-0.54-0.17-1.61-0.23-2.15c-1.56-1.71-3.09-3.44-4.53-5.24c-0.97-0.54-1.93-1.08-2.88-1.61c-1.58-3.61-4.939-5.8-7.17-8.92
	c-1.05-2.63-1.99-5.3-2.74-8.02c-1.1-2.07-2.13-4.18-3.02-6.34c-0.36-0.45-1.06-1.36-1.41-1.81c-0.04-0.54-0.1-1.63-0.13-2.17
	c-0.479-0.43-1.44-1.3-1.91-1.74c-0.02-0.56-0.069-1.67-0.09-2.23c-3.41-3.01-6.72-8.8-12.07-6.73c0.051,1.62,0.11,3.24,0.17,4.87
	c0.41,0.45,1.21,1.35,1.62,1.8c1.021,5.45,3.101,10.68,6.051,15.37c0.1,0.48,0.31,1.44,0.409,1.92c0.45,0.44,1.351,1.33,1.801,1.77
	c-0.221,4.66,0.329,9.33,1.979,13.71c1.021,4.05,4.11,7,6.561,10.21c2.25,2.92,1.3,6.86,1.649,10.28c-2.25,1.47-4.8,4.53-7.68,2.67
	c-3.67-1.34-4.09-5.62-4.771-8.91c-4.189-4.6-7.87-9.66-12.58-13.77c-0.029-0.56-0.1-1.68-0.13-2.25
	c-0.46-0.43-1.399-1.29-1.859-1.72c-0.061-0.52-0.17-1.57-0.221-2.09c-4.109-3.63-5.609-9.01-7.229-14.04
	c-2.54-3.59-4.86-7.34-7.97-10.48c-4.101-4.58-3.521-11.11-5.33-16.63c-1.03-2.88-1.4-5.91-1.5-8.95c0.92-0.84,1.85-1.69,2.779-2.53
	c1.841,0.02,3.7,0.05,5.561,0.08c2.54,1.73,5.16,3.33,7.68,5.1c0.36,2.66,0.83,5.31,1.21,7.97c1.601,1.1,3.4,1.79,5.32,2.09
	c-2.58-4.42-4.891-9.18-4.38-14.43c1.06-2.23,2.189-4.43,3.479-6.53c1.561-3.12,3.07-6.32,3.59-9.81c-0.59-1.79-1.02-3.62-1.39-5.45
	c-1.25-3.54-2.67-7.05-4.89-10.1c-1.37,0.07-2.73,0.14-4.08,0.21c0.29,0.41,0.85,1.23,1.14,1.65c0.11,3.53,0.83,7.01,1.09,10.53
	c0.11,3.53-2.1,6.5-4.319,9.01c-7.54-0.7-16.16-2.38-20.71-9.08c-2.16-3.5-4.65-6.78-7.721-9.53c-0.319-4.07-1.01-8.09-1.319-12.16
	c-0.391-0.45-1.15-1.34-1.54-1.78c-1.07-4.74-3.04-9.26-3.591-14.12c-3.92-4.44-6.55-9.85-10.64-14.14
	c-0.02-0.99-0.04-1.98-0.05-2.97c-0.49-0.45-1.48-1.34-1.97-1.78c-0.061-1.53-0.12-3.06-0.181-4.58
	c-2.029-4.11-2.439-8.72-3.05-13.19c-6.01-9.16-0.68-20.17-1.75-30.19c-0.22-0.23-0.64-0.69-0.85-0.92c1-5.2,1.93-10.41,3.01-15.59
	c1.38-0.18,2.78-0.36,4.18-0.54c0.54,0.01,1.62,0.03,2.16,0.04c0.9,0.21,2.17-0.22,2.75,0.75c2.3,2.68,4.65,5.36,7.58,7.39
	c0.03,0.47,0.1,1.42,0.13,1.9c1.04,0.94,2.07,1.88,3.13,2.82c-0.42,0.38-1.25,1.14-1.67,1.51c0.42,0.39,1.271,1.17,1.69,1.561
	c-0.32,0.26-0.96,0.78-1.28,1.04c0.57,1.94,1.1,3.89,1.64,5.84c-0.6,2.33-1.159,4.68-1.739,7.02c1.069,0.98,2.149,1.96,3.229,2.95
	c-0.03,1.71-0.05,3.43-0.06,5.15c1.38,1.31,2.76,2.62,4.149,3.93c-0.399,0.36-1.21,1.09-1.62,1.45c1.41,1.95,2.86,3.87,4.4,5.71
	c0.04,0.94,0.08,1.88,0.14,2.82c5.23,5.02,9.061,11.21,13.41,16.96c3.021,5,3.601,11.07,3.601,16.8c0.159,0.39,0.47,1.16,0.62,1.55
	c0.649,3.02,1.56,5.98,2.479,8.93c1.1,3.61,0.521,7.58,2.17,11.05c0.94,1.57,3.07,0.88,4.601,1.23c-1.891-4.32-0.29-8.76,0.55-13.07
	c-0.08-4.87-1.101-9.76-0.261-14.63c1.54-6.99-0.649-14-1.39-20.96c-0.939-0.92-1.89-1.83-2.83-2.74c-0.01-0.55-0.02-1.66-0.03-2.22
	c-0.5-0.44-1.489-1.31-1.989-1.75c0-0.55-0.011-1.65-0.021-2.2c-1.96-1.93-3.91-3.87-5.88-5.8c-2.84-10.31,0.061-20.81,2.19-30.94
	c0.58-1.95,1.359-3.95,2.83-5.41c3.619-0.83,7.409,0.3,10.76,1.65c2.75,1.12,3.12,4.51,3.1,7.09c0.04,6.65-0.3,13.87,3.48,19.69
	c0.7,3.93,3.3,6.95,6.09,9.62c1.189,3.7,2.939,7.2,5.18,10.37c0.101,0.46,0.28,1.38,0.38,1.84c5.74,4.9,7.891,12.86,14.061,17.29
	c-0.79-5.13-2.63-10.01-3.54-15.11c-4.521-5.16-2.71-12.54-6.3-18.09c-1.9-4.07-5.88-6.9-6.94-11.38
	c-1.14-4.95-0.26-10.18,1.54-14.87c1.05-2.91,3.26-5.28,4.06-8.29c-0.17-1.56-0.619-3.05-1.029-4.55
	c-5.96-2.54-9.45-8.46-15.15-11.46c-3.96-2.01-7.31-4.93-9.81-8.61c-0.03-1.11-0.061-2.22-0.08-3.33c0.649-0.04,1.95-0.12,2.6-0.16
	c0.97-0.99,1.94-1.98,2.931-2.97c-0.391-0.33-1.171-0.979-1.57-1.31c0.93-0.84,1.85-1.7,2.77-2.56c0.57-0.05,1.73-0.16,2.301-0.21
	C628.23,34.12,628.26,32.57,628.28,31.79z"/>
<path fill="#00BF2B" d="M504.02,57.23c2.32-0.31,4.65-0.64,6.96-1.1c2.87,2.81,5.7,5.66,8.59,8.46c-0.359,0.21-1.09,0.62-1.46,0.83
	c2.24,2.11,4.47,4.22,6.86,6.16c0.52,1.24,1.04,2.48,1.59,3.71c-0.35,0.27-1.05,0.81-1.4,1.08c1.03,1.4,2.061,2.81,3.12,4.2
	c0.03,0.54,0.09,1.63,0.12,2.17c0.54,0.41,1.62,1.22,2.16,1.62c-0.33,0.33-0.99,0.97-1.33,1.29c1.77,4.16,2.69,8.59,3.32,13.05
	c0.33,2.41,2.199,4.13,3.71,5.87c0.04,1.66,0.069,3.32,0.1,4.99c0.99,0.93,1.98,1.85,2.99,2.78c0,0.55,0.01,1.66,0.01,2.21
	c0.93,0.9,1.851,1.81,2.771,2.72c0.649,4.68,1.63,9.51,4.699,13.27c1.69,7,7.42,11.91,10.36,18.32c1.57,3.57,3.94,6.68,6.7,9.41
	c0.95,2.61,2.1,5.15,3.359,7.62c0.04,2.88,0.061,5.75,0.061,8.63c0.99,0.92,1.979,1.85,2.99,2.78c0.01,0.56,0.029,1.7,0.04,2.27
	c0.979,0.9,1.96,1.81,2.949,2.72c0.021,0.56,0.04,1.68,0.061,2.24c5.77,4.729,9.74,11.03,13.899,17.12
	c-0.02,4.49,0.271,8.99-0.079,13.47c-0.381,4.5-5.391,8.14-9.73,6.27c-7.26-1.76-11.9-7.92-17.78-12
	c-4.58-4.54-6.02-11.92-2.479-17.51c0.13-6.48,0.74-13.09-0.96-19.43c-3.36-3.26-5.53-7.44-8.351-11.12
	c-2.85-3.7-5.409-7.67-6.989-12.09c-0.36-0.42-1.08-1.271-1.431-1.69c-0.06-0.51-0.189-1.52-0.25-2.03
	c-2.54-3.64-4.93-7.44-8.229-10.46c-2.33-2.1-4.061-4.73-5.59-7.44c0.09-0.28,0.279-0.85,0.369-1.14
	c-2.43-3.76-2.369-8.54-5.069-12.17c-0.561-1.6-1.101-3.21-1.62-4.82c-1.58-1.97-3.88-4.05-3.08-6.87
	c-1.63-3.53-3.21-7.13-3.94-10.98c-0.13-0.34-0.399-1.02-0.529-1.36c-0.011-1.67-0.05-3.34-0.09-5.01
	c-0.48-0.4-1.431-1.19-1.91-1.58c-0.69-4.14-1.08-8.51-3.57-12.05c0.56-2.04-0.31-3.87-1.4-5.54c0.021-0.92,0.061-1.85,0.11-2.77
	c1.12-0.73,2.25-1.47,3.39-2.2C506.7,59.82,505.37,58.52,504.02,57.23z"/>
<path fill="#00BF2B" d="M761.56,74.93c2.8,0.01,5.6,0.01,8.42,0.01c0.03,0.66,0.09,1.98,0.12,2.65c1,0.95,2.02,1.91,3.04,2.87
	c-1.061,0.99-2.101,1.99-3.13,2.99c-0.021,0.55-0.05,1.65-0.061,2.2c1.84,1.73,3.82,3.61,6.561,3.2c1.83-0.14,3.67-0.3,5.51-0.53
	c0.65-0.11,1.97-0.33,2.62-0.44c1-1.07,1.99-2.14,3.01-3.21c1.811,0.44,3.62,0.92,5.43,1.41c-0.02,0.8-0.05,2.38-0.069,3.17
	c0.109,0.25,0.33,0.73,0.439,0.97c-0.21,1.9-0.22,3.82,0.04,5.71c-0.71,1.22-1.439,2.43-2.17,3.63c-0.43,2.35-0.97,4.67-1.6,6.97
	c-1.681-1.311-3.38-2.59-5.021-3.94c-1.02,4.74-4.59,8.05-8.02,11.14c-2.8,0.26-5.561,0.7-8.3,1.27c-0.46,0.5-1.381,1.5-1.841,2
	c-0.96-0.06-1.899-0.12-2.829-0.18c-2.461-1.65-5-3.17-7.421-4.89c-0.64-2.66-1.34-5.3-2.079-7.93c-0.091-2.99-0.171-5.99-0.45-8.97
	c-0.69-4.17,0.52-8.36,0.41-12.55C756.32,79.67,758.68,77.02,761.56,74.93z"/>
<path fill="#00BF2B" d="M417.41,90.95c2.53,1.9,5.46,3.17,8.67,3.27c1.49,1.37,2.95,2.75,4.431,4.14c-0.021,0.7-0.061,2.1-0.08,2.81
	c1.649,0.38,3.3,0.73,4.97,1.07c0.061,0.52,0.16,1.55,0.21,2.06c1.44,0.28,2.88,0.55,4.33,0.82c0.91,0.77,1.82,1.54,2.74,2.31
	c-0.431,0.39-1.3,1.16-1.73,1.54c0.99,0.97,2,1.95,3.011,2.92c1.229,0.04,2.449,0.09,3.689,0.14c4.98,3.439,10.4,6.37,14.44,11
	c-3.65,1.62-7.29,3.28-10.7,5.38c-3.271,1.93-5.68,4.96-8.66,7.28c-5.46,4.19-9.78,9.61-14.05,14.95c-0.8,1.92,1.58,3.31,2.399,4.83
	c0.841,3.59,2.381,6.97,3.381,10.521c-0.421,3.09-3.16,5.27-3.881,8.27c-0.51,4.23-0.359,8.65,1.551,12.54
	c0.319,3.42,1.42,6.68,2.6,9.87c0.43,0.4,1.29,1.2,1.72,1.59c0.011,0.59,0.03,1.771,0.04,2.36c0.49,0.4,1.49,1.2,1.98,1.59
	c-0.01,0.6-0.021,1.81-0.03,2.41c2.11,2.06,4.39,4.03,7.271,4.93c0.43-6.78-6.36-10.46-7.761-16.61
	c-1.149-3.79-2.14-7.63-2.729-11.54c0.46-0.44,1.37-1.3,1.819-1.74c1.08-2.87,2.46-5.62,3.74-8.4c0.58-0.62,1.16-1.25,1.75-1.87
	c0.101-4.33-0.22-8.66-1.22-12.88c0.89,0.771,1.78,1.56,2.68,2.34c0.74,0.02,2.23,0.05,2.98,0.06c1.39-1.42,2.79-2.83,4.189-4.25
	c1.9,0.34,3.811,0.7,5.721,1.09c3.689-4.19,9.14-5.81,14.25-7.51c5.64,2,10.35-2.97,15.79-3.21c4.67,0.41,7.47,4.54,10.64,7.46
	l-1.38,0.92c0.46,0.42,1.359,1.26,1.81,1.68c-3.47,2.44-7,4.79-10.6,7.03c0.02,0.78,0.04,2.32,0.06,3.09
	c-1.3,2.17-2.6,4.33-3.979,6.44c0,0.66,0,1.97,0,2.63c-1.25,1.31-2.48,2.61-3.71,3.93c1.66,0.56,3.33,1.13,5,1.7
	c0.71-0.57,1.42-1.14,2.14-1.7c2.58-0.56,5.33-1.06,7.4-2.85c3.38-2.78,7.58-4.37,11.84-5.17c2.439-0.74,4.5,1.13,6.6,2.04
	c3.891,2.12,8.32,2.91,12.4,4.49c2.88,3.55,8.32,6.96,6.67,12.22c-0.39,2.64-0.51,5.31-0.71,7.97c-0.851,2.11-1.561,4.28-2.07,6.49
	c-1.34,1.81-2.43,4.05-4.6,4.99c-2.69,1.26-5.69,1.42-8.59,1.71c-2.17-2.9-4.42-5.73-6.931-8.32c-1.64,0.03-3.26,0.06-4.89,0.09
	c1.26,5.19,2.89,10.36,2.42,15.78c1.41,1.12,2.83,2.22,4.25,3.35c1.85,2.73,4.55,4.65,7.14,6.63c4.221,0.4,8.471,1.71,12.73,1.02
	c4.29-2.05,7.77-5.79,12.58-6.79c2.99-0.45,5.89,1,8.25,2.71c2.07,1.98,3.189,4.72,5.09,6.85c3.17,0.6,6.42,0.43,9.62,0.81
	c-1.88,0.36-3.75,0.73-5.62,1.09c1.97,3.08,6.01,2.1,8.71,4.07c8.37,1,14.84,7.92,23.49,7.58c2.649,1.85,5.17,3.88,7.47,6.17
	c0.46,3.71,1.061,7.43,2.1,11.04c-0.329,2.09-0.699,4.17-1.06,6.26c-1.07,0.53-2.15,1.06-3.21,1.6c-6.06-1.24-10.29-6.22-16.19-7.74
	c-2.92-1.72-5.949-3.38-9.34-3.92c-7.59-1.33-15.189-2.64-22.67-4.52c-1.729,0.86-3.45,1.73-5.2,2.53
	c1.12-0.89,2.261-1.76,3.41-2.62c-1.399-1.28-2.84-2.51-4.279-3.72c-0.7,2.31-1.28,4.65-1.73,7.02c-2.66,4.28-4.09,10.26-0.49,14.44
	c3.38,2.37,7.36,3.9,10.21,7.01c3.141,0.73,6.37,1.1,9.42,2.2c4.82,1.81,7.271,6.82,11.63,9.33c4.521,2.74,9.891,3.89,14.11,7.17
	c3.18,2.39,6.33,4.82,9.62,7.07c4.01,2.68,6.87,7.02,11.61,8.57c7.25,1.98,12.71,8,16.319,14.34c-4.39-1.07-8.689-2.68-12.359-5.37
	c-4.311-3.41-9.931-4.09-14.9-6.11c-7.56-3.05-15.75-3.66-23.64-5.41c-2.74-0.69-5.5,0.03-8.19,0.54c-0.02,1.92-0.03,3.84-0.05,5.77
	c4.04,4.18,10.06,5.02,15.6,5.25c2.12,2.06,4.591,4.1,5.15,7.19c2.67,2.46,5.729,4.44,8.7,6.5c0.529,0.07,1.59,0.21,2.109,0.28
	c1.851,2.69,4,5.15,6.33,7.44c0.061,0.52,0.2,1.56,0.271,2.08c0.96,1.14,1.92,2.29,2.89,3.45c-4.74,2.35-9.74,4.35-13.79,7.84
	c-4.22,0.09-8.43,0.08-12.64,0c-1.58-1.1-3.19-2.17-4.79-3.23c-1.29,0.59-2.58,1.18-3.86,1.77c0.05,1.61,0.11,3.21,0.19,4.83
	c1.58,2.33,3.58,4.88,2.66,7.9c-1.771,9.1-2.04,18.34-1.811,27.58c0.54,0.09,1.63,0.26,2.17,0.35c0.34,4.09-0.79,8.01-3.399,11.18
	c-1.48-0.26-2.99-0.38-4.42-0.82c-3.57-3.53-6.471-7.69-9.08-11.97c-0.45-2.05-0.94-4.08-1.391-6.12
	c-1.239-1.23-2.479-2.45-3.72-3.67c-0.05-0.56-0.13-1.7-0.18-2.27c-2.311-2.27-4.601-4.56-6.92-6.82c0.01-1.68,0.02-3.35,0.05-5.01
	c-0.62-0.57-1.23-1.13-1.84-1.68c2.05-1.7,1.77-4.38,1.859-6.75c-1.08-2.99-2.149-5.99-2.88-9.08c-0.68-2.24,0.91-4.19,1.811-6.1
	c3.18,0,6.359-0.1,9.51-0.56c-0.76-0.56-2.28-1.69-3.04-2.26c0.86-0.12,1.72-0.23,2.59-0.35c0.42-5.41-1.25-10.66-1.229-16.05
	c-0.61-0.76-1.221-1.51-1.82-2.26c-0.03-3.67-0.03-7.33-0.01-10.99c-0.48-0.44-1.45-1.31-1.931-1.75c-0.029-0.56-0.09-1.7-0.12-2.26
	c-2.29-2.26-4.56-4.53-6.859-6.78c-0.04-0.55-0.12-1.65-0.16-2.2c-0.86-0.9-1.7-1.8-2.54-2.7c-0.59-2.34-1.34-4.66-2.49-6.79
	c-2.5-4.43-3.56-9.7-7.34-13.34c-2.88-1.37-4.72-4.02-6.81-6.3c-1.721-0.45-3.761-0.56-4.73-2.29c-3.439-4.9-9.06-7.6-12.55-12.46
	c-0.3-0.01-0.9-0.02-1.2-0.03c-3.729-2.86-7.92-5.04-12.36-6.56c-1.689,1.18-3.39,2.33-5.1,3.47c8.771,6.74,14.78,16.31,22.83,23.84
	c1.79,1.08,3.26,2.57,4.53,4.22c0.45-0.02,1.33-0.08,1.77-0.11c6.141,3.68,9.311,10.28,12.75,16.25c0.96,3.81,1.54,8.07,4.431,10.99
	c1.189,1.29,2.46,2.5,3.72,3.74c1.12,7.19,0.93,14.5,2.06,21.68c0.88,6.03-2.91,11.54-1.96,17.63c-1.25,0.79-2.5,1.57-3.75,2.36
	c-2.01,5.19-0.43,10.46,1.01,15.55c-2.649-1.05-3.819-3.61-4.71-6.11c-4.619-6.22-6.84-14.11-12.729-19.38
	c-4.351-3.99-9.03-7.59-13.12-11.86c-4.82-0.34-8.36-3.91-11.1-7.54c-2.66-3.91-3.101-8.76-4.811-13.07
	c-1.21-2.05-2.27-4.18-3.13-6.39c-0.83-0.89-1.64-1.77-2.45-2.64c-0.01-0.6-0.01-1.8-0.02-2.4c-3.181-4.06-9.431-3.46-11.88-8.2
	c-1.92-0.05-3.841-0.08-5.761-0.1c-0.72-0.74-1.439-1.49-2.149-2.23c-3.9,0.61-7.67,2.12-11.65,2.2c-2.74-1.69-3.7-4.99-5.5-7.49
	c-2.53-4.27-6.91-6.87-10.939-9.51c-0.051-1.16-0.091-2.32-0.12-3.47c-2.811-2.69-5.76-5.22-8.45-8.02
	c-3.64-2.19-7.51-3.96-11.101-6.22c-0.85-3.05-1.92-6.03-3.17-8.94c-0.93-6.89-1.979-13.89-4.26-20.49
	c-4.15-2.58-6.68-6.85-9.97-10.32c0.02-0.78,0.05-2.32,0.06-3.1c-1.5-1.12-3.01-2.22-4.51-3.32c-1.4-4.31-4.11-7.95-6.4-11.8
	c-2.21-3.55-0.149-8.08-2.01-11.74c-0.77-1.7-1.68-3.34-2.479-5.02c-0.561-0.63-1.12-1.27-1.67-1.9c0.02-0.75,0.05-2.26,0.069-3.01
	c-0.66-0.61-1.319-1.22-1.97-1.83c0.12-3.561-0.07-7.17-1.64-10.43c-1.421-5.48-3.431-11.04-7.62-15.03
	c0.34-1.79,0.72-3.57,1.13-5.34c-0.82-1.27-1.62-2.54-2.41-3.81c-0.71-0.01-2.14-0.01-2.86-0.02c0.46-0.56,1.38-1.68,1.83-2.24
	c-1.75-0.2-3.51-0.37-5.26-0.5c1.13,1.48,2.3,2.94,3.44,4.42c-1.761-1.45-3.46-2.95-5.181-4.42c-2.95-0.17-5.819-0.83-8.54-1.97
	c0.07-1.41,0.141-2.82,0.221-4.24c1.92-4.39,2.42-9.26,4.609-13.56c1.601-2.93,1.101-6.34,1.24-9.54c0.35,0.04,1.05,0.12,1.39,0.16
	c1.25,3.21,3.36,5.93,5.5,8.6c2.53,3.3,3.29,7.5,3.33,11.57c3.78-1.51,7.71-3,10.561-6.05c1.16-0.13,2.33-0.24,3.51-0.36
	c3.54-1.77,6.78-4.08,9.5-6.98c0.07-0.32,0.229-0.97,0.3-1.3c2.93-1.57,5.92-3.34,7.811-6.18c-0.061-1.61-0.351-3.18-0.891-4.72
	c1.55-0.75,3.101-1.51,4.63-2.3c1.91-0.51,3.801-1.06,5.71-1.62c-0.5-0.45-1.489-1.35-1.989-1.81c2.39-0.97,4.92-1.33,7.489-1.13
	c0.04-0.45,0.13-1.35,0.181-1.8c0.979,0,2.939-0.02,3.92-0.02C417.48,94.25,417.44,92.6,417.41,90.95z"/>
<path fill="#00BF2B" d="M320.83,125.2c5.59,3.72,11.3,7.48,15.95,12.39c-1.7,3.17-2.87,6.59-3.5,10.14c0.7,0.38,2.1,1.14,2.8,1.52
	c1.96-2.95,3.26-6.93,6.771-8.36c6.97,2.12,14.33,6.32,16.26,13.89c2,1.55,3.979,3.13,5.93,4.75c-0.7,2.33-1.62,4.58-2.59,6.8
	c0.86,0.5,1.73,1,2.61,1.51c0.8,2.42,1.91,4.73,3.34,6.85c0.08,1.13,0.17,2.26,0.25,3.39c2.01,4.18,4.24,8.48,4.02,13.26
	c2.08,3.81,4.78,7.26,6.7,11.18c1.23,2.53,2.97,4.75,4.87,6.82c0.91,2.44,1.82,4.87,2.62,7.35c1.24,1.24,2.49,2.49,3.75,3.73
	c-0.42,0.44-1.271,1.32-1.7,1.76c2.561,2.41,5.74,4.01,9.33,3.83c3.62,3.51,5.63,8.18,8.03,12.52c0.97,4.14,1.8,8.31,2.41,12.52
	c-1.2,1.66-2.17,3.54-3.631,4.99c-1.76,1.24-3.939,1.6-5.97,2.13c-0.87,0.64-1.74,1.28-2.6,1.93c0.03,1.38,0.069,2.76,0.109,4.15
	c4.801,1.66,10.271,1.05,14.551,4.12c3.399,0.8,6.949,1.56,9.89,3.55c0.86,1.47,1.3,3.13,1.83,4.74c4.061,4.92,9.86,7.8,14.67,11.84
	c2.92,4.12,3.38,9.41,5.061,14.09c1.58,0.28,3.18,0.58,4.77,0.88c2.69-0.45,5.41-0.7,8.14-0.82c1.601,1.16,3.23,2.29,4.881,3.4
	c0.01,0.64,0.04,1.91,0.05,2.54c3.37,3.23,7.46,5.53,11.069,8.46c-0.039,1.78-0.069,3.56-0.1,5.34c1.68,1.62,3.35,3.26,5.04,4.89
	c-0.02,3.29-0.03,6.58-0.07,9.88c-3.149,0.74-6.33,1.31-9.52,1.85c-3.38,0.57-6.101,2.82-9.101,4.32
	c-2.829,4.92-6.25,9.47-10.52,13.23c-0.55,0.07-1.65,0.21-2.2,0.28c-0.64,0.5-1.28,1.02-1.91,1.54c-1.569,0.47-3.13,0.98-4.67,1.5
	c4.94,2.93,11.15,3.85,16.25,0.7c4.98-3.6,8.561-9.78,15.03-10.9c7.64-0.6,12.31,6.79,19.21,8.64c6.33,3.28,11.71,8.72,14.63,15.3
	c1.19,2.69,2.57,5.29,4.26,7.71c0.99,2.05,2.03,4.08,3.101,6.1c1.01,3.29,2.68,6.32,4.899,8.96c-5,3.34-11.39,3.61-16.25,7.29
	c-0.09,0.42-0.279,1.28-0.369,1.7c-3.29,1.19-6.671,2.96-10.29,2.19c-5.471-1.19-10.091-5.44-15.95-4.92
	c-4.9,0.14-9.88-1.28-13.351-4.86c-0.79-0.04-2.37-0.13-3.149-0.17c-0.021,1.14-0.03,2.29-0.03,3.44c2.56,1.64,5.06,3.39,7.32,5.43
	c3.34,0.98,6.81,1.11,10.229,1.65c4.221,0.58,6.98,4.41,11.061,5.39c4.069,0.81,7.71,3.54,12,3.18c4.35-0.14,8.39-1.94,12.43-3.39
	c3.8-1.5,7.88-0.29,11.71,0.45c0.53,0.97,1.07,1.94,1.61,2.92c2.97-0.03,5.96-0.06,8.939-0.08c0.19,2.55-0.17,5.1-0.08,7.65
	c0.73,1.89,2.11,3.42,3.271,5.05c0.63,2.79,1.62,5.48,2.93,8.03c-0.479,1.21-0.97,2.41-1.43,3.63c0.62,2.04,1.39,4.05,2.1,6.07
	c-0.149,2.02-0.24,4.04-0.319,6.07c-0.37,0.46-1.12,1.39-1.49,1.85c0.04,2.93-0.86,5.71-2.5,8.13c0.84,0.84,1.68,1.67,2.54,2.51
	c-1.511,0.29-2.99,0.6-4.49,0.9c0.04-1.97,0.07-3.94,0.11-5.9c-1.08,0.02-3.25,0.08-4.341,0.1c0.311,0.76,0.931,2.29,1.24,3.05
	c-0.95,1.92-2,3.8-2.93,5.74c1.55,1.24,3.11,2.49,4.689,3.71c1.04,2.82,1.721,5.82,3.171,8.46c4.649,4.11,10.279,6.86,15.42,10.29
	c-1.75,3.21-4.08,6.46-4.08,10.27c1.069,6.68-1.16,13.45,0.989,20.04c0.37,0.46,1.11,1.39,1.49,1.85c0.41,1.74,0.87,3.49,1.37,5.22
	c-1.72,3.06-3.53,6.08-5.25,9.15c-0.34,0.04-1.02,0.12-1.36,0.15c-1.29-1.28-2.579-2.56-3.859-3.83
	c-3.931-0.42-7.74-1.43-11.53-2.46c-0.02-0.57-0.07-1.7-0.09-2.26c-2.12-2.09-4.23-4.18-6.35-6.25c-1.631-0.34-3.23-0.69-4.83-1.09
	c-0.65-0.06-1.96-0.18-2.62-0.24c-2.34-3.5-5.061-6.82-8.8-8.9c-0.16-1.19-0.33-2.39-0.471-3.57c-1.25-1.23-2.5-2.45-3.74-3.67
	c-0.05-0.57-0.14-1.71-0.189-2.28c-5.14-4.43-8.92-10.87-15.7-13c-3.13-2.66-6.42-5.17-9.06-8.34c-0.99-0.06-1.99-0.12-2.971-0.16
	c-1.989-2.18-3.859-4.47-5.59-6.85c-0.47-0.06-1.41-0.19-1.88-0.25c-3.06-2.66-6.38-4.99-9.58-7.47c-0.26-1.82,0.24-3.63,0.58-5.39
	c-0.52-3.13-1.64-6.12-3.49-8.7c-0.109-1.38-0.22-2.77-0.34-4.13c-2.34-7.89-5.01-15.69-7.87-23.4
	c-7.77,0.36-15.09,3.78-22.949,3.35c-1.61-4.17-3.381-8.39-6.7-11.52c-0.7-4.17-2.021-8.21-2.711-12.37
	c0.461-6.96,0.65-13.94,0.4-20.92c-0.29-5.6-3.04-10.67-6.22-15.14c-2.08-2.49-1.72-5.81-1.79-8.82
	c-5.521-4.29-12.12-7.54-15.87-13.72c-0.05-2.39-0.11-4.77-0.22-7.15c-1.141,0.85-2.261,1.73-3.38,2.61
	c-3.391,0.01-6.79,0.01-10.181-0.02c-0.51-0.58-1.54-1.74-2.05-2.32c-0.39,0.4-1.17,1.21-1.55,1.61c-0.9,1.17-1.76,2.38-2.83,3.38
	c-3.44,0.53-6.95,0.49-10.36,1.18c-5.01-0.92-10.189-1.08-15.01-2.82c-7.06-2.83-11.87-8.97-17.04-14.25
	c-0.72-3.31-2.13-6.42-4.59-8.8c1.68-1.76,3.38-3.48,5.1-5.19c0.681-3.5,1.021-7.05,0.44-10.59c2.149-1.21,4.67-1.41,7.03-1.98
	c-1.33-1.48-2.65-2.96-3.98-4.43c-3.15,0.55-6.25,1.29-9.33,2.15c-0.439,2.79,1.061,6.61-1.03,8.78
	c-8.96,1.48-19.34-1.88-23.89-10.21c0.08-3.89-0.15-7.78-1.17-11.55c-2.27-0.95-4.55-1.85-6.83-2.75c0-0.77,0.021-2.32,0.03-3.09
	c-4.13-2.26-8.5-4.03-12.57-6.38c2.63-6.53,4.66-13.27,5.7-20.24c1.26-1.27,2.52-2.53,3.79-3.78c-0.01-2.22-0.01-4.44-0.021-6.65
	c1.091-2.01,2.16-4.02,3.261-6.02c-0.33-0.36-0.99-1.07-1.32-1.42c0.82-0.76,1.64-1.52,2.46-2.28c-0.29-0.43-0.88-1.28-1.17-1.71
	c0.9-2.79,0.88-5.73,0.26-8.57c0.78-2.33,1.43-4.7,1.87-7.11c0.13-0.36,0.38-1.1,0.5-1.46c0.01-2.21,0.07-4.42,0.11-6.62
	c0.34-0.4,1.02-1.21,1.359-1.61c-0.27-0.4-0.81-1.21-1.08-1.62c0.57-2.58,0.78-5.22,0.931-7.85c4.319-0.83,8.72-0.74,13.1-0.7
	c1.311-0.86,2.63-1.71,3.96-2.54c2.19,0.79,4.43,1.47,6.69,2.04c0.01-1.6,0.02-3.19,0.04-4.78c-3.221,0.44-6.34,1.31-9.34,2.521
	c-3.86,1.68-8.11,0.57-11.99-0.4c-2.08-1.47-4.351-2.66-6.42-4.14c0.04-1.19,0.239-2.37,0.41-3.55c-0.29-0.26-0.86-0.76-1.15-1.02
	c0.02-0.33,0.08-0.99,0.1-1.32c-0.06-2.52,0.011-5.04,0.07-7.56c1.6-2.39,3.16-4.81,4.7-7.23c-0.83-0.87-1.66-1.74-2.49-2.6
	c1.1-1.93,2.18-3.87,3.2-5.85c-0.75-1.14-1.49-2.27-2.24-3.39c0.65-0.06,1.96-0.18,2.61-0.25c-1-0.95-2-1.9-2.99-2.85
	c1.17-0.69,2.36-1.38,3.54-2.07c0.03-0.62,0.07-1.85,0.1-2.47c-0.779-0.65-1.55-1.31-2.31-1.96c0.62-0.46,1.87-1.39,2.5-1.86
	c-0.33-1.14-0.66-2.29-1.01-3.42c0.729-0.69,1.449-1.37,2.189-2.05c-0.51-0.62-1.53-1.84-2.04-2.45c1.25-0.33,2.5-0.65,3.75-0.96
	c0.431-2.07,0.76-4.16,1.07-6.24c1.09,0.05,2.18,0.11,3.27,0.22c2.431,2,5.46,2.93,8.45,3.72c0.07,1.44,0.16,2.87,0.26,4.31
	c1.131-1,2.25-2.02,3.351-3.06c0.93-1.76,1.859-3.53,2.76-5.31c1.521-0.78,3.05-1.56,4.57-2.34
	C320.6,128,320.75,126.13,320.83,125.2z"/>
<path fill="#00BF2B" d="M748.58,128.96c0.261,0.19,0.78,0.56,1.04,0.75c2.061-0.42,4.181-0.57,6.301-0.34
	c1.79,0.51,3.59,0.99,5.399,1.5c-0.26,0.36-0.76,1.09-1.01,1.45c0.34,1.1,0.68,2.2,1.03,3.31c0.659,0.74,1.33,1.48,2.01,2.23
	c3.04,0.69,6.149,1.05,9.28,1.18c1.8,1.76,3.58,3.53,5.369,5.32c-0.17,4.12-0.029,8.36,2.08,12.04c-2.029,1.23-4.04,2.48-6.06,3.71
	c-2.28-1.42-4.43-3.14-6.98-4.05c-4.6,0-9.069,1.38-13.6,2.01c-0.96,0.92-1.9,1.85-2.83,2.79c1.62,2.47,3.55,4.74,5.811,6.67
	c2.35,2.96,5.5,5.04,8.79,6.83c-0.54,1.43-1.04,2.86-1.53,4.3c-0.87,0.9-1.73,1.8-2.58,2.71c0.03,3.52-0.05,7.05-0.65,10.52
	c0.28,1.79,0.53,3.58,0.79,5.38c-1.979,1.08-3.939,2.18-5.84,3.37c-3.57,0.85-7.49,0.99-10.57,3.19
	c-3.85,2.58-8.319,4.01-12.649,5.55c-1.54,0.31-4.19,1.39-4.61-0.86c-0.76-3.28-1.229-6.61-2.04-9.87
	c-0.92-3.42,0.13-6.89,0.181-10.34c-0.61-1.45-1.5-2.75-2.341-4.06c-0.09-0.49-0.27-1.45-0.35-1.93c-0.46-0.45-1.37-1.33-1.82-1.78
	c-0.04-0.54-0.109-1.63-0.149-2.17c-3.271-3.08-6.11-6.55-8.88-10.07c-0.011-0.89-0.021-1.78-0.011-2.66
	c2.25-2.75,4.08-5.8,6.051-8.75c0.619-0.01,1.88-0.01,2.51-0.02c0.47-0.51,1.39-1.55,1.859-2.06c2.46,0.06,4.92,0.13,7.391,0.27
	c1.83,0.42,3.68,0.76,5.55,1.09c0.74-0.86,1.479-1.72,2.24-2.58c0.29-3.85,1.63-7.56,4.05-10.59c0.15-0.77,0.31-1.53,0.49-2.3
	c1.479-2.22,2.58-4.66,3.189-7.27C746.52,131.95,747.56,130.47,748.58,128.96z"/>
<path fill="#00BF2B" d="M278.51,292.82c1.529-0.03,3.05-0.07,4.59-0.1c0.87,0.86,1.739,1.73,2.609,2.6
	c-0.02,0.53-0.05,1.59-0.069,2.12c-0.5,0.46-1.5,1.39-2,1.85c0,1.94,0,3.89,0,5.84c2.37,3.55,4.42,7.69,8.35,9.79
	c3.14,1.69,6.36,3.27,9.2,5.45c2.85,0.83,5.93,1.32,8.39,3.08c6.851,6.02,8.74,15.54,14.931,22.08c4.02,5.62,10.56,8.44,15.579,13
	c5.931,1.51,12.04,1.05,18.091,1.28c7.67,0.98,14.199,6.66,17.22,13.65c0.11,0.62,0.32,1.87,0.42,2.5c2.27,3.31,3.1,7.26,2.8,11.23
	c-2.75,3.59-5.74,6.99-9.07,10.06c-0.71,7.36,2.16,15.99-3.079,22.21c-2.131,0.26-4.23-0.35-6.33-0.58
	c-3.46-0.58-6.891,0.36-10.29,0.86c-2.69,0.41-5.44,1.05-7.48,2.98c-1.5-0.94-2.979-1.9-4.45-2.87c-0.46-0.08-1.38-0.24-1.84-0.33
	c-2.75-2.45-4.78-5.61-5.05-9.37c-1.44,0.86-2.86,1.73-4.27,2.63c-0.141,1.55-0.16,3.13-0.49,4.66c-1.08,1.01-2.36,1.79-3.54,2.66
	c-2.69-1.22-5.37-2.44-8-3.75c-0.9,0.87-1.78,1.75-2.66,2.64c3.53,1.86,7.13,3.62,10.94,4.85c4.97,1.55,8.71,5.4,12.14,9.14
	c-5.01,1.35-9.64,4.3-15.021,3.82c-0.43,0.42-1.31,1.28-1.739,1.71c-0.521,0.07-1.551,0.2-2.07,0.27
	c-4.05,2.26-7.36,5.66-11.48,7.77c-4.29,0.31-8.29-2.06-12.59-2.16c-0.729,1.25-1.45,2.51-2.17,3.77
	c-7.479-5.14-13.58-12-19.39-18.91c-2.45-2.63-6.41-2.36-9.69-2.69c-2.8,0.11-4.819-2.05-6.91-3.58c-3.59-0.51-7.51-1.02-10.17-3.77
	c-3.489-3.66-8.54-4.82-12.84-7.21c-2.12-1.33-4.62-1.41-7.04-1.25c-2.26,1.49-4.109-0.28-5.859-1.6c-3.28-0.77-6.351-2.21-9.12-4.1
	c0.35-0.98,0.699-1.96,1.05-2.93c-3.851-2.6-7.62-5.4-11.88-7.3c1.109-0.7,2.21-1.42,3.29-2.16c-1.32-0.41-2.641-0.83-3.94-1.26
	c-0.979-0.82-1.96-1.63-2.92-2.45c0.48-1.03,0.97-2.06,1.45-3.08c3.66,1.28,7.53,0.7,11.12-0.53c0.22-0.76,0.66-2.26,0.88-3.01
	c3.64,0.45,7.05,1.85,10.149,3.77c1.29,1.64,2.54,3.35,4.2,4.65c1.69-0.25,3.271-0.93,4.891-1.45c0.149-0.74,0.46-2.21,0.609-2.94
	c6.23,0.67,11.811,3.62,17.58,5.8c0.08-1.41,0.17-2.81,0.25-4.21c-1.85-1.33-3.72-2.62-5.609-3.88
	c-5.36-1.77-10.66-3.77-16.301-4.48c-0.09-0.46-0.26-1.4-0.35-1.87c-0.7-0.03-2.11-0.11-2.81-0.15c-0.29-0.62-0.86-1.88-1.15-2.51
	c-1.08-0.42-2.15-0.83-3.23-1.24c-2.229,0.53-4.6,1.32-6.89,0.72c-1.97-0.91-3.59-2.38-5.49-3.38c-1.52-0.05-3.02,0.2-4.52,0.35
	c0.59-1.32,1.17-2.64,1.74-3.96c-1.671,0.23-3.33,0.46-4.99,0.73c-3.141-2.17-6.44-4.14-9.2-6.79c0.01-4.89-3.07-8.86-4.85-13.19
	c-0.631,0.45-1.881,1.34-2.5,1.79c-0.021-1.36-0.03-2.72-0.021-4.07c-4.399-2.97-7.38-7.41-11.03-11.16
	c1.54-2.09,3.051-4.2,4.601-6.29c-1.2-0.86-2.391-1.71-3.59-2.56c0.649-1.18,1.3-2.36,1.96-3.54c-0.971-1.66-1.91-3.33-2.82-5.01
	c0.49-1.77,0.93-3.56,1.34-5.35c0.87-0.87,1.75-1.73,2.641-2.58c3.13-0.95,6.199-2.11,9.329-3.07c0.9,1.84,1.851,3.68,2.87,5.48
	c0.63-0.07,1.9-0.19,2.54-0.26c0.48-0.51,1.44-1.54,1.92-2.06c0.32,0.37,0.95,1.1,1.271,1.47c-0.141,0.44-0.42,1.33-0.561,1.78
	c3.21,3.56,7.62,5.45,12.17,6.69c0.19,2.85,0.711,5.75,2.461,8.1c2.229-0.09,4.46-0.02,6.689,0.01c0.73-0.74,1.47-1.48,2.22-2.21
	c2.62,1.54,5.24,3.13,7.681,4.95c2.05,0.43,4.1,0.9,6.13,1.4c3.66-3.66,5.399-8.75,6.21-13.75c0.439-2.43-1.08-4.56-1.92-6.71
	c1.069-0.64,2.14-1.27,3.21-1.9c4.2,0.54,8.439,0.2,12.53-0.86c1.55-1.59,3.109-3.16,4.68-4.72c6-0.97,12.07-2.28,17.39-5.34
	C272.58,296.71,275.56,294.79,278.51,292.82z"/>
<path fill="#00BF2B" d="M96.28,339.89c2.92-0.29,5.81-0.8,8.7-1.28c1.95,1.15,3.93,2.24,5.89,3.36c0,0.68,0.01,2.03,0.01,2.71
	c1.521,0.03,3.04,0.07,4.57,0.12c2.45,4.08,7.09,5.8,10.35,9.07c-0.18,0.51-0.529,1.52-0.699,2.02c2.359,2.16,5.13,3.86,8.38,4.19
	c0.8,0.66,1.59,1.33,2.38,2c0,0.52,0.01,1.54,0.01,2.05c-1.3,0.89-2.6,1.8-3.88,2.72c-0.1-0.61-0.28-1.84-0.37-2.45
	c-1.83,0.34-3.649,0.69-5.47,1.08c-0.3-0.3-0.91-0.89-1.21-1.19c-1.03,0.95-2.061,1.92-3.09,2.88c-0.891-1.33-1.79-2.65-2.7-3.97
	c-0.561,0.47-1.7,1.42-2.271,1.89c-0.97-0.92-1.939-1.85-2.909-2.77c-1.091,0.96-2.171,1.92-3.261,2.88
	c0.28-1.43,0.57-2.85,0.851-4.28c-0.391-0.41-1.17-1.23-1.561-1.64c-0.399,0.39-1.21,1.16-1.62,1.55
	c-0.279-0.3-0.84-0.89-1.119-1.19c-1.36,0.47-2.73,0.94-4.101,1.4c-0.42,0.45-1.26,1.35-1.68,1.8c-0.37-0.38-1.101-1.13-1.47-1.51
	c-0.45,0.37-1.36,1.1-1.811,1.47c-2.81-2.29-6.43-1.14-9.71-1.75c-0.57,0.33-1.14,0.67-1.71,1.02c-0.85-1.3-1.72-2.58-2.59-3.86
	c-0.49,0.39-1.47,1.17-1.96,1.56c-2.91-1.12-5.931-1.93-9.03-2.34c-0.15-0.46-0.46-1.37-0.62-1.83c-0.729,0.06-2.2,0.17-2.93,0.23
	c-4.12,3.53-9.04,5.93-13.87,8.31c-1.34-1.39-2.7-2.77-4.06-4.14c3.409-0.18,6.659-1.24,9.779-2.54c3.69-2.59,7.511-4.98,11.13-7.67
	c0.96-0.04,1.92-0.08,2.891-0.11c0.45-0.42,1.35-1.26,1.79-1.68c2.42-0.59,5.31-0.6,7.22-2.34c0.35-1.55,0.43-3.14,0.61-4.71
	c3.06,0.7,6.21,0.83,9.35,0.87C94.93,341.34,95.83,340.37,96.28,339.89z"/>
<path fill="#00BF2B" d="M49.26,360.87C52.21,359.27,49.45,364.2,49.26,360.87z"/>
<path fill="#00BF2B" d="M168.42,380.84c0.811-0.87,1.62-1.73,2.44-2.59c1.05,1,2.1,2.01,3.149,3.02c-1.17,0.53-2.35,1.08-3.52,1.62
	C169.97,382.38,168.93,381.36,168.42,380.84z"/>
<path fill="#00BF2B" d="M181.51,380.51c4.631-0.17,9.421,0.66,12.971,3.84c-2.86,1.03-5.88,1.41-8.91,1.48
	c-0.43,0.28-1.29,0.84-1.72,1.12c-0.42-0.33-1.28-0.98-1.71-1.3c-1.61,0.02-3.221,0.05-4.841,0.09
	c-0.579-1.23-1.159-2.45-1.739-3.67C177.58,381.74,179.66,381.45,181.51,380.51z"/>
<path fill="#00BF2B" d="M194.22,386.3C194.8,386.72,194.8,386.72,194.22,386.3z"/>
<path fill="#00BF2B" d="M571.31,443.95c4.87,3.13,9.14,7.05,13.53,10.8c-0.87,1.21-1.71,2.43-2.57,3.64
	c0.01,0.48,0.04,1.43,0.05,1.91c0.49,0.47,1.46,1.41,1.94,1.88c0.029,1,0.06,2.01,0.1,3.03c2.97,2.91,5.53,6.19,8.12,9.44
	c1.3-0.05,2.61-0.09,3.93-0.13c0.931,3.99,0.42,10.11,5.83,10.72c0.13,3.73-0.41,7.56,0.431,11.22c2.06,3.88,5.25,7.01,7.529,10.77
	c0.44,0.13,1.32,0.38,1.761,0.51c-0.811,2.69,0.05,5.32,0.529,7.97c-1.89,3.33-4.859,6.07-5.529,10.03
	c-1.301-4.09-4.66-0.99-6.471,0.76c-0.59,0.03-1.77,0.07-2.37,0.09c0.101-2.96,0.301-5.92,0.98-8.81
	c-2.05-4.98-2.811-11.39-8.16-14.03c-1.79-6.11-7.96-8.72-11.56-13.53c1.149-5.66,0.979-11.48,1.67-17.19
	c-0.63-4.47-0.37-8.97-0.34-13.46c-0.771,0.02-2.33,0.05-3.101,0.07C577.85,453.52,572.03,449.82,571.31,443.95z"/>
<path fill="#00BF2B" d="M404.44,469.34c4.439,0.43,8.939,1.36,12.67,3.95c0.47,0.13,1.42,0.38,1.9,0.51
	c2.239,2.21,4.55,4.37,6.95,6.43c2.72,6.48,9.02,11.51,8.649,19.11c-2.5-3.15-4.52-6.68-7.399-9.51c-2.74-2.8-6.11-4.84-9.381-6.93
	c-2.29-0.52-4.71-0.84-6.76-2.05c-2.05-1.57-3.61-3.67-5.32-5.58C405.35,473.28,404.88,471.31,404.44,469.34z"/>
<path fill="#00BF2B" d="M445.58,509.01c-0.17-1.81-0.859-4.39,1.33-5.21c3.21-0.47,6.471-0.21,9.71-0.17
	c3.2,2.18,7.04,3.83,9.11,7.3c1.48,2.59,3.36,4.92,5.37,7.13c3.43,3.82,4.66,8.93,7.08,13.36c0.109,0.95,0.229,1.92,0.35,2.89
	c1.271,1.24,2.55,2.49,3.84,3.74c0.04,1.8,0.091,3.6,0.16,5.41c-1.18,0.75-2.34,1.52-3.569,2.17c-3.391-1.59-6.511-3.76-9.311-6.23
	c-2.26-1.87-2.76-4.9-3.56-7.55c-2.44-2.41-4.931-4.75-7.53-6.97c-0.03-0.51-0.09-1.53-0.11-2.05c-1.739-1.39-3.479-2.76-5.26-4.08
	c0.08-0.74,0.25-2.23,0.34-2.97C450.77,513.71,446.79,512.55,445.58,509.01z"/>
<path fill="#00BF2B" d="M428.921,558.74c0.59-0.07,1.779-0.22,2.38-0.3c1.699,2.39,3.27,4.86,4.64,7.45
	C432.87,564.3,430.32,561.93,428.921,558.74z"/>
<path fill="#00BF2B" d="M435.49,566.27c5.55,0.37,11.771,0.88,15.7,5.35c2.16-0.16,4.33-0.38,6.5-0.62
	c3.16,1.55,6.69,1.9,10.08,0.84c2.06,1.23,4.12,2.49,6.16,3.79c0.729,3.33,2.7,6.19,5.97,7.46c3.521,2.68,7.79,0.35,11.55-0.49
	c0.38,0.23,1.13,0.69,1.511,0.92c4.989-0.01,9.97,0,14.96,0.01c0.79,0.83,1.59,1.66,2.39,2.5c0.03,0.59,0.09,1.78,0.12,2.37
	c2.63,2.12,5.3,4.2,7.85,6.43c0.101,0.51,0.29,1.54,0.391,2.05c1.3,2.22,2.359,4.57,3.29,6.98c1.859,0.68,3.75,1.31,5.609,2.04
	c3.41,1.31,5.94,4.229,9.44,5.359c2.29,0.36,4.62,0.25,6.939,0.29c2.05,2.65,4.141,5.29,6.5,7.69c5.84,1.649,11.811,2.81,17.91,2.25
	c0.4,1.319,0.8,2.66,1.2,4c1.81,1.62,3.68,3.189,5.64,4.66c0.95,3.529,1.57,7.189,3.09,10.56c2.5,5.9,7.62,10.1,10.601,15.73
	c2.35-0.95,4.74-1.771,7.189-2.45c0.091,0.89,0.28,2.68,0.37,3.569c2.011-0.52,4.021-1.01,6.061-1.449
	c-0.38,2.729-0.851,5.449-1.351,8.159c-0.489,0.11-1.46,0.33-1.949,0.44c-2.32,3.48-4.98,6.87-8.74,8.87
	c-3.641,1.96-6.83,4.61-9.66,7.61c0.939,1.449,1.82,2.949,2.939,4.29c1.08-0.301,3.23-0.891,4.301-1.181
	c2.239,5.641,2.199,11.8,3.449,17.67c-1.829,1.48-3.68,2.931-5.6,4.28c-0.25,0.52-0.729,1.57-0.97,2.1
	c-0.72,0.051-2.141,0.15-2.86,0.2c-0.21,0.521-0.63,1.57-0.84,2.09c2.41,2.5,4.26,5.45,5.87,8.521c0.02,4.18,0.91,8.28,2.29,12.22
	c-0.7,0.83-1.4,1.67-2.08,2.521c-0.01,0.859-0.03,2.59-0.04,3.449c-0.69,0.021-2.06,0.061-2.74,0.091
	c-0.649,0.689-1.28,1.39-1.91,2.09c-0.42,1.63-0.84,3.25-1.27,4.88c-1.59,0.01-3.17,0.02-4.74,0.05c-2.63-2.74-5.33-5.43-8.24-7.88
	c-2.81-2.22-2.35-6.53-5.12-8.79c-2-2-5.289-2.69-6.27-5.59c-1.4-3.25-3.96-5.74-6.51-8.09c-0.061-0.53-0.181-1.61-0.24-2.15
	c-0.37-0.44-1.1-1.32-1.46-1.76c-1.15-3.2-2.43-6.561-5.25-8.67c-2.62-2.04-4.64-5.181-3.65-8.62c-0.76-8.72-3.14-17.141-6.199-25.3
	c-1.051-6.29-6.761-10.091-11.98-12.851c-3.24-1.38-6.42-3.359-10.04-3.399c-1.88,2.479-1.61,5.859-2.26,8.779
	c1.359-1.1,2.729-2.199,4.05-3.34c-0.729,1.641-1.62,3.26-1.95,5.05c0.38,1.4,0.92,2.78,1.42,4.16c-2.5-1.14-4.989-2.319-7.449-3.52
	c-0.051-0.61-0.141-1.83-0.19-2.431c-2.1-2.55-4.12-5.149-6.21-7.689c-2.95,1.43-6.12,2.29-9.4,2.3c-1.27,1.25-2.52,2.51-3.76,3.78
	c-1.85-0.01-3.68-0.01-5.52-0.021c-1.08,1.771-2.57,3.42-2.99,5.511c0.28,1.67,0.7,3.329,1.25,4.96
	c-1.15,0.609-2.29,1.27-3.51,1.739c-1.71-3.33-3.24-6.77-5.5-9.77c-0.08-0.53-0.24-1.59-0.311-2.11
	c-1.64-1.16-3.27-2.319-4.89-3.479c0-1.15,0.01-2.29,0.02-3.42c-1.09-0.96-2.18-1.92-3.26-2.86c0.13-1.41,0.32-2.81,0.56-4.19
	c0.931-1.26,2.74-1.359,4.04-2.079c-0.699-1.301-1.399-2.58-2.119-3.851c-0.091-0.5-0.271-1.51-0.36-2.01
	c-1.22-1.21-2.43-2.41-3.63-3.61c-1.66-6.34-3.94-12.689-3.32-19.35c-0.47-0.43-1.39-1.29-1.85-1.71
	c-0.03-0.58-0.09-1.73-0.12-2.311c-0.97-0.899-1.93-1.8-2.88-2.689c-0.07-2.72-0.15-5.431-0.271-8.13
	c0.851-0.74,1.7-1.471,2.561-2.19c-0.87-1.06-1.721-2.09-2.57-3.14c0.02-0.61,0.06-1.85,0.08-2.47c-0.41-1.1-0.811-2.19-1.19-3.28
	c-5.31-5.63-8.52-12.96-14.64-17.86C435.48,569.16,435.49,567.24,435.49,566.27z"/>
<path fill="#00BF2B" d="M488.18,706.22c1.85,1.17,3.34,2.811,4.89,4.34c2.65-0.149,5.3-0.489,7.91-1.06
	c0.61,0.64,1.23,1.28,1.85,1.94c0.73-0.021,2.19-0.061,2.92-0.08c1.771,1.43,3.921,2.569,5.181,4.54
	c1.479,3.51,1.75,7.43,3.43,10.88c1.79,3.64,3.93,7.2,4.69,11.25c0.5,3.029,0.89,6.08,1.46,9.109c-4.32,1.11-8.62,2.37-12.641,4.311
	c-0.47-0.521-1.409-1.57-1.88-2.101c-0.67,0.101-2.02,0.301-2.689,0.4c-4.221-6.69-11.521-10.65-15.641-17.41
	c-2.05-3.16-3.199-6.82-3.51-10.55c0.62-0.5,1.85-1.49,2.47-1.99c-0.479-0.87-0.96-1.729-1.439-2.58c1.13-1.7,2.26-3.39,3.39-5.06
	C487.12,710.53,484.99,707.28,488.18,706.22z"/>
<path fill="#00BF2B" d="M534.37,803.5c-1.02-2.74-1.18-5.65-0.37-8.45c3.12,2.41,6.79,4.431,8.961,7.83
	c1.569,3.9,1.42,8.22,2.449,12.271c1.15,0.949,2.28,1.909,3.44,2.88c-0.58,1.43-1.03,2.95-1.91,4.26
	c-3.75-0.38-7.49-0.79-11.229-0.12c-0.99-1.17-1.5-2.64-2.11-4c1.36-4.189,0.25-8.38-1.47-12.24
	C532.87,805.11,533.62,804.3,534.37,803.5z"/>
<path fill="#00BF2B" d="M423.5,863.8c10.171-0.41,19.381-5.83,29.48-6.46c3.2,1.53,6.05,3.75,9.08,5.62
	c1.439,1.15,3.729,2.08,3.5,4.31c-3.71,5.32-10.23,7.32-16.061,9.36c-0.88,2.771-1.829,5.55-2.14,8.46
	c2.601,1.96,5.99,1.19,8.88,0.47c5.16-1.42,10.24-3.39,15.66-3.479c0.95,1,1.91,1.99,2.87,3.01c-2.05,0.9-4.12,1.79-6.19,2.641
	c-3.479,3.25-7.34,6.06-10.729,9.409c-0.57,0.07-1.7,0.19-2.26,0.25c-2.92,2.851-5.53,6.011-7.601,9.54
	c-1.17,0.54-2.34,1.101-3.5,1.66c-0.04,0.74-0.12,2.23-0.16,2.98c-1.119-0.54-2.239-1.061-3.35-1.58
	c-1.47,0.68-2.93,1.37-4.39,2.069c-0.021,0.601-0.061,1.801-0.08,2.4c2.55,2.71,4.45,5.92,6.359,9.11
	c7.53-5.261,16.94-6.11,25.761-7.53c0.489,0.24,1.479,0.729,1.979,0.979c4.22-0.949,8.48,0.36,12.74,0.23
	c1.09-0.73,2.17-1.5,3.37-2.04c3.72,0.51,6.689,3.12,8.04,6.57c0.5,0.22,1.5,0.66,2,0.88c-1.28,0.66-2.54,1.359-3.8,2.06
	c1.039,1.55,2.069,3.12,3.1,4.7c1.36-0.479,2.72-0.939,4.1-1.39c0.221,1.35,0.46,2.71,0.7,4.09c-0.62,0.64-1.24,1.29-1.86,1.96
	c0.61,0.68,1.23,1.38,1.841,2.09c2.13,0.26,4.279,0.37,6.42,0.59c0.439,0.38,1.319,1.13,1.77,1.51c1.13-0.069,2.26-0.119,3.41-0.17
	c2.64-1.72,5.48-3.08,8.31-4.439c4.16,1.35,8.591,1.51,12.75,2.82c3.37,1.84,6.131,4.579,8.95,7.159
	c-0.05,0.721-0.149,2.16-0.2,2.891c-1.68,1.989-3.26,4.06-4.85,6.14c-0.05,0.51-0.15,1.55-0.2,2.07c3.82,3.81,8.54,6.5,12.561,10.06
	c-1.78,3.181-3.98,6.101-5.851,9.22c-1.319,1.721,0.04,3.801,0.48,5.591c-1.141-1.13-2.3-2.21-3.46-3.29
	c-3.5-0.54-6.99-1.09-10.51-1.311c-0.03,0.8-0.08,2.391-0.11,3.181c-0.85,0.01-2.55,0.02-3.39,0.02c-2.931-2.78-5.721-5.7-8.23-8.86
	c-2.64-3.479-7.55-3.5-10.72-6.279c-2.8-2.46-5.561-4.95-8.46-7.28c-1.98,0.4-3.851,1.2-4.62,3.22c2.56,2.561,4.66,5.521,6.71,8.5
	c2.08,3.08,5.59,4.58,8.58,6.59c1.18,0.051,2.359,0.11,3.55,0.181c1.2,0.83,2.42,1.67,3.65,2.5c-0.011,1.64-0.011,3.3-0.011,4.96
	c-2.55,0.979-5.64,1.64-6.609,4.569c0.569,0.511,1.72,1.521,2.29,2.03c1.93-0.229,3.87-0.439,5.81-0.68
	c0.65,0.09,1.311,0.2,1.97,0.32c1.45-0.23,2.9-0.44,4.36-0.61c-1.55,1.35-3.1,2.7-4.63,4.06c6.3,2.601,13.31,1.98,19.66,4.29
	c2.27-0.31,4.55-0.58,6.83-0.79c1.729,2.91,3.43,5.851,5.6,8.48c-0.61,0.29-1.81,0.859-2.41,1.149
	c0.061,1.601,0.12,3.221,0.181,4.86c2.329,3.28,4.29,6.84,7.149,9.72c-2.82,0.15-5.63,0.29-8.43,0.561
	c-2.47-1.12-5.12-1.63-7.82-1.26c-2.53-0.631-4.66,0.529-6.439,2.22c1.229,2.74,2.34,5.95,5.46,7.08
	c2.64,1.83,5.819,0.979,8.72,0.46c-1.28,0.83-2.55,1.66-3.83,2.51c1.61,1.5,3.21,3.04,4.8,4.58c5.25-1.14,10.63-1.31,15.99-1.15
	c0.92,1.471,1.83,2.94,2.76,4.44c-3.83,2.35-8.41,3.57-11.46,7.06c-0.06,1.341-0.12,2.69-0.189,4.061
	c-0.801-1.181-1.561-2.311-2.32-3.47c-1.46-0.521-2.91-1.011-4.37-1.48c-0.07,1.54-0.13,3.1-0.19,4.67
	c-0.81-0.76-1.619-1.51-2.42-2.25c-0.71-0.04-2.13-0.12-2.84-0.16c0.42,0.49,1.25,1.49,1.67,1.98c-3.38,2.5-6.31,5.52-9.27,8.49
	c-0.03,0.709-0.08,2.13-0.11,2.84c-4.439-0.83-8.899-1.57-13.34-2.36c-0.69-0.54-1.37-1.07-2.04-1.58c-2.04-0.36-4.07-0.75-6.08-1.2
	c-0.79,0.181-1.58,0.381-2.359,0.59c-2.011-0.35-4.011-0.63-6.021-0.869c-0.03,0.68-0.09,2.029-0.12,2.71
	c3.391,1.12,6.61,2.909,10.2,3.35c0.57-0.55,1.71-1.649,2.27-2.2c-0.569,1.221-1.159,2.41-1.699,3.67
	c2.58,4.521,7.25,6.96,11.33,9.9c-0.091,4.92-0.07,9.84-0.061,14.77c0.601,0.011,1.79,0.03,2.39,0.04
	c0.82-0.819,1.641-1.64,2.461-2.439c0.159-3.261,0.67-6.47,1.199-9.681c2.46-1.67,5.271-2.659,8.13-3.38
	c3.54-1.71,7.29-2.89,11.03-4.05c1.86-0.85,3.62,0.58,5.351,1.16c0.829,2.15,1.739,4.29,2.64,6.43c-1.82,2.01-4.15,3.79-5,6.471
	c-0.36,1.96-0.29,3.97-0.37,5.979c0.92,0.82,1.85,1.66,2.78,2.51c4.189-2.2,8.77-3.409,13.08-5.34c-1.681,3.04,0.31,5.761,2.13,8.12
	c0.06,1.21,0.12,2.43,0.18,3.67c-0.82,0.76-1.63,1.53-2.43,2.33c0.28,0.44,0.859,1.32,1.149,1.76c0.271,1.431,0.561,2.881,0.87,4.33
	c-0.41,0.33-1.22,0.99-1.63,1.32c-0.03,1.55-0.05,3.109-0.06,4.7c2.21,1.05,4.609,1.8,6.62,3.239c0.939,1.591,1.26,3.44,1.729,5.221
	c0.86,1.42,1.72,2.85,2.601,4.279c0.819,4.61,0.5,9.291-0.04,13.92c-0.471,0.431-1.4,1.291-1.87,1.721
	c-0.03,1.71-0.07,3.42-0.09,5.16c-1.48-0.96-2.95-1.92-4.41-2.881c-1.07,1.421-2.141,2.851-3.16,4.32c-0.34-0.34-1.01-1-1.351-1.33
	c-0.01-1.22,0-2.41,0.011-3.6c-1.33-0.03-2.66-0.04-3.98-0.03c0-0.67-0.01-2.01-0.01-2.68c-1.71-0.38-3.41-0.74-5.1-1.13
	c0.06-0.73,0.159-2.19,0.22-2.91c-2.11-1.57-4.15-3.27-6.561-4.32c-1.29,0.551-2.55,1.19-3.77,1.9c0.08-0.771,0.24-2.3,0.32-3.07
	c-2.73-1.279-5.671-1.89-8.671-2c-1.81-1.7-3.59-3.439-5.38-5.15c-0.05-0.8-0.09-1.569-0.13-2.34c-2.029-1.67-3.979-3.42-6-5.069
	c0.351-0.24,1.061-0.72,1.41-0.97c-0.72-2.041-1.49-4.051-2.17-6.08c0.18-1.58,1.56-3.5-0.11-4.65
	c-3.859-3.74-8.56-6.63-11.64-11.141c-1.08-0.43-2.16-0.84-3.22-1.239c-0.061-0.42-0.19-1.25-0.25-1.67
	c-1.96-0.75-3.91-1.511-5.84-2.311c0.42-1.439,0.81-2.899,1.229-4.319c-1.09,0.26-2.16,0.539-3.229,0.84
	c-0.811-0.86-1.61-1.7-2.41-2.53c-0.45-0.09-1.37-0.28-1.82-0.37c-1.52-1.029-3.07-2-4.62-2.939c-0.08-0.36-0.229-1.09-0.31-1.461
	c-1.34-0.47-2.67-0.899-3.99-1.329c0.09-1.101,0.19-2.181,0.3-3.25c0.91-1.471,2.01-2.94,1.88-4.761
	c-3.96-2.33-8.89-1.52-12.88-3.619c-1.82-2.73-3.56-5.511-5.649-8.051c-1.301-0.49-2.591-0.97-3.87-1.439
	c1.6-1.65,3.199-3.301,4.779-4.95c-1.56-0.46-3.109-0.88-4.67-1.3c0.13-2.45,0.49-4.86,1.16-7.2c-1.02-1.01-2.04-2.01-3.05-2.979
	c0.32-0.24,0.96-0.73,1.28-0.98c-3.16-3.28-6.521-6.42-10.641-8.45c0.9-3.89-0.88-7.649-3.64-10.31c0.93-1.03,1.86-2.03,2.8-3.03
	c0.521-2.32,1.32-4.57,2.26-6.74c0.04-1.92,0.07-3.83,0.101-5.729c-1.351-0.91-2.67-1.801-4-2.7c3.68,0.47,7.49,0.96,11.069-0.351
	c-1.779-0.789-3.56-1.5-5.35-2.21c0.42-1.46,0.87-2.93,1.35-4.35c-1.17-1.19-2.329-2.35-3.489-3.52c-1.86-0.011-3.721-0.021-5.57,0
	c0-1.261,0-2.5,0.01-3.73c-1.64-0.34-3.279-0.68-4.91-1.02c-0.04-0.49-0.119-1.471-0.159-1.96c-0.86-0.24-2.58-0.73-3.44-0.971
	c0.63-0.569,1.9-1.72,2.53-2.29c-0.26-1.479-1.181-2.689-1.9-3.95c-0.08-1.689-0.13-3.369-0.17-5.039
	c-1.72-0.04-3.43-0.061-5.13-0.08c-1.29-0.881-2.59-1.761-3.88-2.61c0.85-0.83,1.7-1.66,2.55-2.47c-0.65-0.61-1.95-1.83-2.6-2.431
	c0.409-0.43,1.239-1.279,1.649-1.699c-0.52-0.29-1.55-0.86-2.069-1.15c-1.15-2.38-2.431-4.69-3.79-6.95
	c-0.78-0.89-1.57-1.8-2.33-2.68c-1.42,0.38-2.84,0.77-4.25,1.17c0.97-0.66,2.899-1.99,3.87-2.65c-1.921-0.93-3.98-1.37-6.101-1.29
	c0.021-0.34,0.05-1.029,0.07-1.37c-3.5-1.979-5.01-6.02-8.45-8.079c0.76-1.91,1.56-3.801,2.36-5.681
	c-0.38-1.77-0.721-3.529-1.021-5.279c1.66-0.5,3.33-0.99,5-1.471c-1.39-1-2.79-1.96-4.22-2.87c-0.71-0.449-1.43-0.88-2.13-1.31
	c-0.72-0.03-2.141-0.09-2.86-0.12c-0.84-0.82-1.68-1.62-2.51-2.41c-0.07-0.6-0.2-1.81-0.271-2.41c-2.1-1.479-4.12-3.06-6.12-4.659
	c2.42-0.37,4.771-1.181,6.15-3.351c1.479-0.08,2.96-0.17,4.45-0.21c0.51-6.02-4.45-9.8-8.34-13.47c0.33-0.37,0.97-1.101,1.29-1.47
	c-0.971-1.36-1.921-2.711-2.87-4.061c-1.221,0.41-2.42,0.86-3.63,1.3c2.609-4.31,5.319-8.77,9.75-11.45
	c0.46,0.061,1.38,0.181,1.84,0.23c0.939-2.25,2.14-4.37,3.65-6.28c-2.421-2.38-4.181-5.359-4.32-8.81
	C420.58,863.34,422.04,863.56,423.5,863.8z"/>
<path fill="#00BF2B" d="M560,876.29c0.971-1.34,1.95-2.67,2.9-4.01c0.75,0,2.23,0,2.98,0c1.13,1.16,2.27,2.319,3.42,3.489
	c0.02,0.961,0.05,2.881,0.06,3.841c-0.74,0.729-1.47,1.489-2.2,2.239c-3.819-0.93-9.47-0.51-10.52-5.34
	C557.48,876.45,559.16,876.34,560,876.29z"/>
<path fill="#00BF2B" d="M531.66,992.99c-2.489-0.99-3.66-3.061-3.42-5.641C529.72,988.99,531.051,990.8,531.66,992.99z"/>
<path fill="#00BF2B" d="M553.86,1135.55c0.47-0.149,1.42-0.439,1.9-0.59c1.029,3,2.33,5.89,3.67,8.771
	C556.87,1141.52,555.06,1138.67,553.86,1135.55z"/>
<path fill="#00BF2B" d="M589.31,1201.28C592.64,1201.47,587.711,1204.21,589.31,1201.28z"/>
</svg>
