<?xml version="1.0" encoding="utf-8"?>
<!-- Generator: Adobe Illustrator 15.0.0, SVG Export Plug-In . SVG Version: 6.00 Build 0)  -->
<!DOCTYPE svg PUBLIC "-//W3C//DTD SVG 1.1//EN" "http://www.w3.org/Graphics/SVG/1.1/DTD/svg11.dtd">
<svg version="1.1" id="Layer_1" xmlns="http://www.w3.org/2000/svg" xmlns:xlink="http://www.w3.org/1999/xlink" x="0px" y="0px"
	 width="600px" height="291.289px" viewBox="-150 0 600 291.289" enable-background="new -150 0 600 291.289" xml:space="preserve">
<g>
	<path fill="#3C3B38" d="M174.036,236.695c-18.342,0-22.545,12.282-22.545,25.104c0,12.818,4.203,25.104,22.545,25.104
		c18.344,0,22.541-12.286,22.541-25.104C196.577,248.978,192.379,236.695,174.036,236.695 M174.036,283.817
		c-11.311,0-12.343-11.776-12.343-22.019c0-10.244,1.032-22.018,12.343-22.018c11.315,0,12.348,11.773,12.348,22.018
		C186.383,272.041,185.352,283.817,174.036,283.817"/>
	<path fill="#3C3B38" d="M107.99,275.235c0,3.119-3.826,8.146-10.428,8.146c-7.004,0-9.63-3.309-9.63-11.789
		c0-9.745,4.377-12.12,20.058-12.12V275.235z M98.391,240.712c8.843,0,9.6,3.449,9.6,7.06v8.036
		c-15.466,0-30.607,1.654-30.607,16.378c0,10.929,8.724,14.719,17.567,14.719c11.404,0,15.077-6.668,15.077-6.668
		c1.059,3.788,4.111,5.769,8.168,5.769h5.349v-3.262h-1.383c-2.705,0-3.966-1.338-3.966-4.633v-25.693
		c0-10.037-4.438-15.729-19.12-15.729c-11.023,0-18.225,5.731-18.225,5.731v5.623C80.851,248.042,88.478,240.712,98.391,240.712"/>
	<path fill="#3C3B38" d="M72.838,241.21v-3.271h-7.995v-12.475l-10.191,5.867v44.795c0,6.949,2.861,9.875,10.097,9.875
		c0.875,0.037,8.09,0.013,8.09,0.013v-3.271h-3.723c-3.321,0-4.272-1.754-4.272-4.617V241.21H72.838L72.838,241.21z"/>
	<path fill="#3C3B38" d="M148.248,241.21v-3.271h-7.995v-12.475l-10.199,5.867v44.795c0,6.949,2.868,9.875,10.104,9.875
		c0.876,0.037,8.091,0.013,8.091,0.013v-3.271h-3.727c-3.321,0-4.269-1.754-4.269-4.617V241.21H148.248L148.248,241.21z"/>
	<polygon fill="#3C3B38" points="215.737,237.867 205.559,237.867 205.559,261.934 205.559,286.003 215.737,286.003 
		215.737,261.934 	"/>
	<polygon fill="#3C3B38" points="215.737,222.259 205.559,222.259 205.559,226.994 205.559,231.727 215.737,231.727 
		215.737,226.994 	"/>
	<path fill="#3C3B38" d="M22.156,282.525c9.368,0,14.106-5.919,14.106-11.874c0-5.317-2.698-9.077-8.611-11.735
		c-1.929-0.869-9.899-4.51-12.826-5.988c-6.448-3.262-10.447-8.533-10.447-15.244c0-10.635,10.591-16.615,21.127-16.615
		c12.253,0,18.634,5.309,18.634,5.309v5.834c0,0-8.101-6.926-17.99-6.926c-6.125,0-12.042,2.969-12.471,8.854
		c-0.279,3.821,1.291,6.45,7.133,9.25c2.524,1.211,10.516,4.981,12.577,5.92c7.167,3.262,13.408,8.92,13.408,18.437
		c0,11.273-9.474,19.213-24.017,19.213c-11.289,0-18.991-5.603-18.991-5.603v-6.062C3.788,275.294,12.604,282.525,22.156,282.525"/>
	<polygon fill="#3C3B38" points="226.321,222.179 226.321,254.089 226.321,286.003 236.517,286.003 236.517,254.089 
		236.517,222.179 	"/>
</g>
<g>
	<g>
		<defs>
			<path id="SVGID_1_" d="M150.779,74.557l-52.903,30.542c-0.63,0.366-0.943,0.845-0.94,1.33c15.221-6.2,34.787-9.932,56.126-9.932
				c21.342,0,40.901,3.732,56.125,9.928c0.004-0.482-0.31-0.96-0.942-1.327l-52.899-30.542c-0.632-0.359-1.451-0.54-2.282-0.54
				C152.233,74.017,151.405,74.197,150.779,74.557"/>
		</defs>
		<clipPath id="SVGID_2_">
			<use xlink:href="#SVGID_1_"  overflow="visible"/>
		</clipPath>
		
			<radialGradient id="SVGID_3_" cx="-352.6172" cy="-572.3169" r="3.4888" gradientTransform="matrix(18.3645 0 0 18.3645 6636.3687 10598.8438)" gradientUnits="userSpaceOnUse">
			<stop  offset="0" style="stop-color:#F7C4D7"/>
			<stop  offset="0.2846" style="stop-color:#E793BA"/>
			<stop  offset="0.58" style="stop-color:#D9619D"/>
			<stop  offset="0.7253" style="stop-color:#D44B91"/>
			<stop  offset="1" style="stop-color:#A71971"/>
		</radialGradient>
		<rect x="96.933" y="74.017" clip-path="url(#SVGID_2_)" fill="url(#SVGID_3_)" width="112.258" height="32.413"/>
	</g>
</g>
<g>
	<g>
		<defs>
			<path id="SVGID_4_" d="M96.936,106.429c0.004,0.474,0.32,0.949,0.94,1.308l52.903,30.543c1.257,0.726,3.308,0.726,4.563,0
				l52.9-30.543c0.627-0.359,0.939-0.834,0.942-1.312c-15.224-6.196-34.783-9.928-56.125-9.928
				C131.723,96.498,112.156,100.229,96.936,106.429"/>
		</defs>
		<clipPath id="SVGID_5_">
			<use xlink:href="#SVGID_4_"  overflow="visible"/>
		</clipPath>
		
			<linearGradient id="SVGID_6_" gradientUnits="userSpaceOnUse" x1="-360.5313" y1="-581.5356" x2="-357.043" y2="-581.5356" gradientTransform="matrix(32.1801 0 0 32.1801 11698.8652 18831.6055)">
			<stop  offset="0" style="stop-color:#F7C4D7"/>
			<stop  offset="0.1045" style="stop-color:#F3BBD1"/>
			<stop  offset="0.2904" style="stop-color:#EB9FC1"/>
			<stop  offset="0.5342" style="stop-color:#DD71A5"/>
			<stop  offset="0.6923" style="stop-color:#D44B91"/>
			<stop  offset="1" style="stop-color:#A71971"/>
		</linearGradient>
		<rect x="96.936" y="96.498" clip-path="url(#SVGID_5_)" fill="url(#SVGID_6_)" width="112.251" height="42.508"/>
	</g>
</g>
<g>
	<g>
		<defs>
			<path id="SVGID_7_" d="M96.936,106.429c15.221-5.718,34.787-9.153,56.126-9.153c21.342,0,40.901,3.436,56.125,9.15
				c-15.224-6.68-34.783-10.7-56.125-10.7C131.723,95.726,112.156,99.746,96.936,106.429"/>
		</defs>
		<clipPath id="SVGID_8_">
			<use xlink:href="#SVGID_7_"  overflow="visible"/>
		</clipPath>
		
			<linearGradient id="SVGID_9_" gradientUnits="userSpaceOnUse" x1="-377.4727" y1="-608.6948" x2="-373.9844" y2="-608.6948" gradientTransform="matrix(-32.1801 0 0 -32.1801 -11937.9102 -19486.7852)">
			<stop  offset="0" style="stop-color:#D44B91"/>
			<stop  offset="0.0355" style="stop-color:#D65496"/>
			<stop  offset="0.0902" style="stop-color:#DA6BA3"/>
			<stop  offset="0.1573" style="stop-color:#E18CB7"/>
			<stop  offset="0.2342" style="stop-color:#EBB7D3"/>
			<stop  offset="0.3182" style="stop-color:#F8E8F2"/>
			<stop  offset="0.3571" style="stop-color:#FFFFFF"/>
			<stop  offset="0.4111" style="stop-color:#FAEDF5"/>
			<stop  offset="0.5686" style="stop-color:#ECBBD6"/>
			<stop  offset="0.7119" style="stop-color:#E18FB9"/>
			<stop  offset="0.8361" style="stop-color:#DA6CA3"/>
			<stop  offset="0.9363" style="stop-color:#D65496"/>
			<stop  offset="1" style="stop-color:#D44B91"/>
		</linearGradient>
		<rect x="96.936" y="95.728" clip-path="url(#SVGID_8_)" fill="url(#SVGID_9_)" width="112.251" height="10.702"/>
	</g>
</g>
<g>
	<g>
		<defs>
			<path id="SVGID_10_" d="M230.674,98.867v31.628c0,0.75,0.531,1.674,1.183,2.047l27.396,15.816c0.33,0.187,0.627,0.204,0.843,0.08
				c-6.726-5.223-13.46-13.034-18.984-22.601c-5.524-9.569-8.922-19.308-10.087-27.743
				C230.812,98.221,230.674,98.485,230.674,98.867"/>
		</defs>
		<clipPath id="SVGID_11_">
			<use xlink:href="#SVGID_10_"  overflow="visible"/>
		</clipPath>
		
			<radialGradient id="SVGID_12_" cx="-425.9565" cy="-588.6641" r="3.4881" gradientTransform="matrix(-4.7556 -8.2356 8.2356 -4.7556 3057.8711 -6183.001)" gradientUnits="userSpaceOnUse">
			<stop  offset="0" style="stop-color:#F7C4D7"/>
			<stop  offset="0.2846" style="stop-color:#E793BA"/>
			<stop  offset="0.58" style="stop-color:#D9619D"/>
			<stop  offset="0.7253" style="stop-color:#D44B91"/>
			<stop  offset="1" style="stop-color:#A71971"/>
		</radialGradient>
		<polygon clip-path="url(#SVGID_11_)" fill="url(#SVGID_12_)" points="238.029,161.302 208.818,110.716 252.735,85.355 
			281.95,135.943 		"/>
	</g>
</g>
<g>
	<g>
		<defs>
			<path id="SVGID_13_" d="M231.022,98.095c1.165,8.436,4.563,18.174,10.087,27.743c5.524,9.567,12.261,17.378,18.984,22.601
				c0.211-0.126,0.344-0.393,0.344-0.766l-0.004-31.63c0-0.75-0.531-1.671-1.183-2.047l-27.396-15.813
				c-0.187-0.111-0.367-0.164-0.526-0.164C231.22,98.019,231.114,98.046,231.022,98.095"/>
		</defs>
		<clipPath id="SVGID_14_">
			<use xlink:href="#SVGID_13_"  overflow="visible"/>
		</clipPath>
		
			<linearGradient id="SVGID_15_" gradientUnits="userSpaceOnUse" x1="-402.3867" y1="-591.2056" x2="-398.8974" y2="-591.2056" gradientTransform="matrix(-8.3332 -14.4311 14.4311 -8.3332 5438.8315 -10585.1133)">
			<stop  offset="0" style="stop-color:#F7C4D7"/>
			<stop  offset="0.1045" style="stop-color:#F3BBD1"/>
			<stop  offset="0.2904" style="stop-color:#EB9FC1"/>
			<stop  offset="0.5342" style="stop-color:#DD71A5"/>
			<stop  offset="0.6923" style="stop-color:#D44B91"/>
			<stop  offset="1" style="stop-color:#A71971"/>
		</linearGradient>
		<polygon clip-path="url(#SVGID_14_)" fill="url(#SVGID_15_)" points="238.377,161.175 209.19,110.626 253.079,85.282 
			282.27,135.829 		"/>
	</g>
</g>
<g>
	<g>
		<defs>
			<path id="SVGID_16_" d="M231.022,98.095c0.947,8.562,4.21,18.373,9.739,27.94c5.524,9.572,12.39,17.302,19.332,22.403
				c-6.511-5.349-13.112-13.231-18.642-22.8C235.928,116.066,232.405,106.404,231.022,98.095z"/>
		</defs>
		<clipPath id="SVGID_17_">
			<use xlink:href="#SVGID_16_"  overflow="visible"/>
		</clipPath>
		
			<linearGradient id="SVGID_18_" gradientUnits="userSpaceOnUse" x1="-335.6177" y1="-599.5308" x2="-332.1289" y2="-599.5308" gradientTransform="matrix(8.3331 14.4309 -14.4309 8.3331 -5624.0122 9937.2969)">
			<stop  offset="0" style="stop-color:#D44B91"/>
			<stop  offset="0.0355" style="stop-color:#D65496"/>
			<stop  offset="0.0902" style="stop-color:#DA6BA3"/>
			<stop  offset="0.1573" style="stop-color:#E18CB7"/>
			<stop  offset="0.2342" style="stop-color:#EBB7D3"/>
			<stop  offset="0.3182" style="stop-color:#F8E8F2"/>
			<stop  offset="0.3571" style="stop-color:#FFFFFF"/>
			<stop  offset="0.4111" style="stop-color:#FAEDF5"/>
			<stop  offset="0.5686" style="stop-color:#ECBBD6"/>
			<stop  offset="0.7119" style="stop-color:#E18FB9"/>
			<stop  offset="0.8361" style="stop-color:#DA6CA3"/>
			<stop  offset="0.9363" style="stop-color:#D65496"/>
			<stop  offset="1" style="stop-color:#D44B91"/>
		</linearGradient>
		<polygon clip-path="url(#SVGID_17_)" fill="url(#SVGID_18_)" points="252.825,85.507 281.895,135.85 238.292,161.027 
			209.221,110.684 		"/>
	</g>
</g>
<g>
	<g>
		<defs>
			<path id="SVGID_19_" d="M241.188,50.498c-8.102,14.023-17.977,25.469-27.828,33.121c0.317,0.184,0.753,0.16,1.227-0.119
				l40.156-23.176c0.953-0.55,1.733-1.904,1.73-3.003l0.007-46.362c0-0.556-0.198-0.945-0.515-1.123
				C254.265,22.195,249.288,36.468,241.188,50.498"/>
		</defs>
		<clipPath id="SVGID_20_">
			<use xlink:href="#SVGID_19_"  overflow="visible"/>
		</clipPath>
		
			<radialGradient id="SVGID_21_" cx="-354.9526" cy="-630.6206" r="3.4874" gradientTransform="matrix(-6.9703 12.0711 -12.0711 -6.9703 -9842.9043 -52.3163)" gradientUnits="userSpaceOnUse">
			<stop  offset="0" style="stop-color:#F7C4D7"/>
			<stop  offset="0.2846" style="stop-color:#E793BA"/>
			<stop  offset="0.58" style="stop-color:#D9619D"/>
			<stop  offset="0.7253" style="stop-color:#D44B91"/>
			<stop  offset="1" style="stop-color:#A71971"/>
		</radialGradient>
		<polygon clip-path="url(#SVGID_20_)" fill="url(#SVGID_21_)" points="288.511,28.332 245.697,102.478 181.329,65.308 
			224.142,-8.838 		"/>
	</g>
</g>
<g>
	<g>
		<defs>
			<path id="SVGID_22_" d="M254.745,9.957l-40.156,23.18c-0.949,0.548-1.729,1.897-1.729,3l-0.003,46.362
				c0,0.552,0.188,0.935,0.504,1.121c9.852-7.652,19.729-19.098,27.828-33.121c8.102-14.03,13.077-28.303,14.777-40.662
				c-0.131-0.079-0.283-0.116-0.446-0.116C255.284,9.721,255.021,9.797,254.745,9.957"/>
		</defs>
		<clipPath id="SVGID_23_">
			<use xlink:href="#SVGID_22_"  overflow="visible"/>
		</clipPath>
		
			<linearGradient id="SVGID_24_" gradientUnits="userSpaceOnUse" x1="-361.8696" y1="-615.1499" x2="-358.382" y2="-615.1499" gradientTransform="matrix(-12.2139 21.152 -21.152 -12.2139 -17175.6719 150.5119)">
			<stop  offset="0" style="stop-color:#F7C4D7"/>
			<stop  offset="0.1045" style="stop-color:#F3BBD1"/>
			<stop  offset="0.2904" style="stop-color:#EB9FC1"/>
			<stop  offset="0.5342" style="stop-color:#DD71A5"/>
			<stop  offset="0.6923" style="stop-color:#D44B91"/>
			<stop  offset="1" style="stop-color:#A71971"/>
		</linearGradient>
		<polygon clip-path="url(#SVGID_23_)" fill="url(#SVGID_24_)" points="287.965,28.199 245.183,102.287 180.854,65.141 
			223.637,-8.947 		"/>
	</g>
</g>
<g>
	<g>
		<defs>
			<path id="SVGID_25_" d="M240.68,50.202c-8.102,14.026-17.785,25.58-27.32,33.417c10.176-7.469,20.238-18.802,28.34-32.832
				c8.098-14.026,12.883-28.412,14.266-40.951C253.944,22.009,248.777,36.175,240.68,50.202"/>
		</defs>
		<clipPath id="SVGID_26_">
			<use xlink:href="#SVGID_25_"  overflow="visible"/>
		</clipPath>
		
			<linearGradient id="SVGID_27_" gradientUnits="userSpaceOnUse" x1="-376.1372" y1="-575.5884" x2="-372.6489" y2="-575.5884" gradientTransform="matrix(12.2139 -21.152 21.152 12.2139 16982.2969 -842.2551)">
			<stop  offset="0" style="stop-color:#D44B91"/>
			<stop  offset="0.0355" style="stop-color:#D65496"/>
			<stop  offset="0.0902" style="stop-color:#DA6BA3"/>
			<stop  offset="0.1573" style="stop-color:#E18CB7"/>
			<stop  offset="0.2342" style="stop-color:#EBB7D3"/>
			<stop  offset="0.3182" style="stop-color:#F8E8F2"/>
			<stop  offset="0.3571" style="stop-color:#FFFFFF"/>
			<stop  offset="0.4111" style="stop-color:#FAEDF5"/>
			<stop  offset="0.5686" style="stop-color:#ECBBD6"/>
			<stop  offset="0.7119" style="stop-color:#E18FB9"/>
			<stop  offset="0.8361" style="stop-color:#DA6CA3"/>
			<stop  offset="0.9363" style="stop-color:#D65496"/>
			<stop  offset="1" style="stop-color:#D44B91"/>
		</linearGradient>
		<polygon clip-path="url(#SVGID_26_)" fill="url(#SVGID_27_)" points="181.406,65.17 224.012,-8.615 287.915,28.286 
			245.31,102.069 		"/>
	</g>
</g>
<g>
	<g>
		<defs>
			<path id="SVGID_28_" d="M262.028,92.151c-13.564,0-25.998-2.371-35.673-6.311c-0.004,0.305,0.19,0.612,0.597,0.845l33.625,19.416
				c0.801,0.46,2.105,0.46,2.902,0l33.632-19.416c0.402-0.233,0.601-0.54,0.597-0.845C288.03,89.78,275.597,92.151,262.028,92.151"
				/>
		</defs>
		<clipPath id="SVGID_29_">
			<use xlink:href="#SVGID_28_"  overflow="visible"/>
		</clipPath>
		
			<radialGradient id="SVGID_30_" cx="-397.4683" cy="-631.9863" r="3.4893" gradientTransform="matrix(-11.674 0 0 -11.674 -4382.8691 -7280.6138)" gradientUnits="userSpaceOnUse">
			<stop  offset="0" style="stop-color:#F7C4D7"/>
			<stop  offset="0.2846" style="stop-color:#E793BA"/>
			<stop  offset="0.58" style="stop-color:#D9619D"/>
			<stop  offset="0.7253" style="stop-color:#D44B91"/>
			<stop  offset="1" style="stop-color:#A71971"/>
		</radialGradient>
		<rect x="226.352" y="85.84" clip-path="url(#SVGID_29_)" fill="url(#SVGID_30_)" width="71.359" height="20.722"/>
	</g>
</g>
<g>
	<g>
		<defs>
			<path id="SVGID_31_" d="M260.577,65.592l-33.625,19.416c-0.402,0.226-0.597,0.526-0.597,0.833
				c9.675,3.94,22.108,6.311,35.673,6.311c13.568,0,26.002-2.371,35.68-6.311c0-0.307-0.201-0.606-0.597-0.833l-33.632-19.416
				c-0.396-0.23-0.923-0.346-1.451-0.346C261.504,65.247,260.979,65.362,260.577,65.592"/>
		</defs>
		<clipPath id="SVGID_32_">
			<use xlink:href="#SVGID_31_"  overflow="visible"/>
		</clipPath>
		
			<linearGradient id="SVGID_33_" gradientUnits="userSpaceOnUse" x1="-386.1265" y1="-615.5913" x2="-382.6382" y2="-615.5913" gradientTransform="matrix(-20.4561 0 0 -20.4561 -7600.9243 -12513.8984)">
			<stop  offset="0" style="stop-color:#F7C4D7"/>
			<stop  offset="0.1045" style="stop-color:#F3BBD1"/>
			<stop  offset="0.2904" style="stop-color:#EB9FC1"/>
			<stop  offset="0.5342" style="stop-color:#DD71A5"/>
			<stop  offset="0.6923" style="stop-color:#D44B91"/>
			<stop  offset="1" style="stop-color:#A71971"/>
		</linearGradient>
		<rect x="226.355" y="65.247" clip-path="url(#SVGID_32_)" fill="url(#SVGID_33_)" width="71.353" height="26.904"/>
	</g>
</g>
<g>
	<g>
		<defs>
			<path id="SVGID_34_" d="M262.028,91.655c-13.564,0-25.998-2.18-35.673-5.815c9.675,4.25,22.108,6.803,35.673,6.803
				c13.568,0,26.002-2.553,35.68-6.803C288.03,89.475,275.597,91.655,262.028,91.655"/>
		</defs>
		<clipPath id="SVGID_35_">
			<use xlink:href="#SVGID_34_"  overflow="visible"/>
		</clipPath>
		
			<linearGradient id="SVGID_36_" gradientUnits="userSpaceOnUse" x1="-351.877" y1="-574.6411" x2="-348.3887" y2="-574.6411" gradientTransform="matrix(20.4561 0 0 20.4561 7424.3784 11844.1543)">
			<stop  offset="0" style="stop-color:#D44B91"/>
			<stop  offset="0.0355" style="stop-color:#D65496"/>
			<stop  offset="0.0902" style="stop-color:#DA6BA3"/>
			<stop  offset="0.1573" style="stop-color:#E18CB7"/>
			<stop  offset="0.2342" style="stop-color:#EBB7D3"/>
			<stop  offset="0.3182" style="stop-color:#F8E8F2"/>
			<stop  offset="0.3571" style="stop-color:#FFFFFF"/>
			<stop  offset="0.4111" style="stop-color:#FAEDF5"/>
			<stop  offset="0.5686" style="stop-color:#ECBBD6"/>
			<stop  offset="0.7119" style="stop-color:#E18FB9"/>
			<stop  offset="0.8361" style="stop-color:#DA6CA3"/>
			<stop  offset="0.9363" style="stop-color:#D65496"/>
			<stop  offset="1" style="stop-color:#D44B91"/>
		</linearGradient>
		<rect x="226.355" y="85.842" clip-path="url(#SVGID_35_)" fill="url(#SVGID_36_)" width="71.353" height="6.801"/>
	</g>
</g>
<g>
	<g>
		<defs>
			<path id="SVGID_37_" d="M155.075,7.701c11.493,8.926,23.008,22.273,32.453,38.633c9.446,16.36,15.247,33.005,17.229,47.418
				c0.373-0.209,0.604-0.663,0.604-1.308l-0.004-54.071c0-1.284-0.909-2.86-2.021-3.505l-46.828-27.03
				c-0.324-0.189-0.631-0.276-0.899-0.276C155.409,7.561,155.231,7.61,155.075,7.701"/>
		</defs>
		<clipPath id="SVGID_38_">
			<use xlink:href="#SVGID_37_"  overflow="visible"/>
		</clipPath>
		
			<radialGradient id="SVGID_39_" cx="-337.4355" cy="-599.3823" r="3.4887" gradientTransform="matrix(8.1285 14.0786 -14.0786 8.1285 -5498.5703 9671.3926)" gradientUnits="userSpaceOnUse">
			<stop  offset="0" style="stop-color:#F7C4D7"/>
			<stop  offset="0.2846" style="stop-color:#E793BA"/>
			<stop  offset="0.58" style="stop-color:#D9619D"/>
			<stop  offset="0.7253" style="stop-color:#D44B91"/>
			<stop  offset="1" style="stop-color:#A71971"/>
		</radialGradient>
		<polygon clip-path="url(#SVGID_38_)" fill="url(#SVGID_39_)" points="192.788,-14.213 242.683,72.204 167.645,115.528 
			117.749,29.11 		"/>
	</g>
</g>
<g>
	<g>
		<defs>
			<path id="SVGID_40_" d="M154.488,8.999v54.075c0,1.284,0.91,2.859,2.021,3.502L203.34,93.61c0.553,0.322,1.054,0.353,1.418,0.143
				c-1.982-14.413-7.783-31.059-17.229-47.418s-20.96-29.707-32.454-38.633C154.713,7.914,154.488,8.363,154.488,8.999"/>
		</defs>
		<clipPath id="SVGID_41_">
			<use xlink:href="#SVGID_40_"  overflow="visible"/>
		</clipPath>
		
			<linearGradient id="SVGID_42_" gradientUnits="userSpaceOnUse" x1="-351.8682" y1="-597.3237" x2="-348.3803" y2="-597.3237" gradientTransform="matrix(14.2434 24.6696 -24.6696 14.2434 -9569.1191 17196.2461)">
			<stop  offset="0" style="stop-color:#F7C4D7"/>
			<stop  offset="0.1045" style="stop-color:#F3BBD1"/>
			<stop  offset="0.2904" style="stop-color:#EB9FC1"/>
			<stop  offset="0.5342" style="stop-color:#DD71A5"/>
			<stop  offset="0.6923" style="stop-color:#D44B91"/>
			<stop  offset="1" style="stop-color:#A71971"/>
		</linearGradient>
		<polygon clip-path="url(#SVGID_41_)" fill="url(#SVGID_42_)" points="192.191,-14.069 242.114,72.395 167.055,115.73 
			117.133,29.267 		"/>
	</g>
</g>
<g>
	<g>
		<defs>
			<path id="SVGID_43_" d="M155.075,7.701c11.121,9.14,22.414,22.614,31.86,38.974c9.446,16.361,15.466,32.878,17.821,47.078
				c-1.613-14.626-7.189-31.401-16.637-47.764C178.674,29.631,166.936,16.411,155.075,7.701z"/>
		</defs>
		<clipPath id="SVGID_44_">
			<use xlink:href="#SVGID_43_"  overflow="visible"/>
		</clipPath>
		
			<linearGradient id="SVGID_45_" gradientUnits="userSpaceOnUse" x1="-386.1362" y1="-593.4146" x2="-382.6479" y2="-593.4146" gradientTransform="matrix(-14.2433 -24.6696 24.6696 -14.2433 9344.1855 -17884.252)">
			<stop  offset="0" style="stop-color:#D44B91"/>
			<stop  offset="0.0355" style="stop-color:#D65496"/>
			<stop  offset="0.0902" style="stop-color:#DA6BA3"/>
			<stop  offset="0.1573" style="stop-color:#E18CB7"/>
			<stop  offset="0.2342" style="stop-color:#EBB7D3"/>
			<stop  offset="0.3182" style="stop-color:#F8E8F2"/>
			<stop  offset="0.3571" style="stop-color:#FFFFFF"/>
			<stop  offset="0.4111" style="stop-color:#FAEDF5"/>
			<stop  offset="0.5686" style="stop-color:#ECBBD6"/>
			<stop  offset="0.7119" style="stop-color:#E18FB9"/>
			<stop  offset="0.8361" style="stop-color:#DA6CA3"/>
			<stop  offset="0.9363" style="stop-color:#D65496"/>
			<stop  offset="1" style="stop-color:#D44B91"/>
		</linearGradient>
		<polygon clip-path="url(#SVGID_44_)" fill="url(#SVGID_45_)" points="167.495,115.268 117.811,29.214 192.338,-13.815 
			242.021,72.238 		"/>
	</g>
</g>
<g>
	<g>
		<defs>
			<path id="SVGID_46_" d="M213.444,113.391l-52.889,30.541c-1.258,0.726-2.282,2.507-2.282,3.955l0.003,61.073
				c0,0.729,0.26,1.242,0.678,1.479c2.242-16.279,8.789-35.082,19.459-53.563c10.668-18.477,23.676-33.553,36.649-43.634
				c-0.174-0.104-0.381-0.157-0.606-0.157C214.149,113.084,213.806,113.183,213.444,113.391"/>
		</defs>
		<clipPath id="SVGID_47_">
			<use xlink:href="#SVGID_46_"  overflow="visible"/>
		</clipPath>
		
			<radialGradient id="SVGID_48_" cx="-381.7559" cy="-569.0776" r="3.4868" gradientTransform="matrix(9.1797 -15.9013 15.9013 9.1797 12728.8281 -700.1946)" gradientUnits="userSpaceOnUse">
			<stop  offset="0" style="stop-color:#F7C4D7"/>
			<stop  offset="0.2846" style="stop-color:#E793BA"/>
			<stop  offset="0.58" style="stop-color:#D9619D"/>
			<stop  offset="0.7253" style="stop-color:#D44B91"/>
			<stop  offset="1" style="stop-color:#A71971"/>
		</radialGradient>
		<polygon clip-path="url(#SVGID_47_)" fill="url(#SVGID_48_)" points="116.118,186.104 172.467,88.494 257.217,137.42 
			200.868,235.028 		"/>
	</g>
</g>
<g>
	<g>
		<defs>
			<path id="SVGID_49_" d="M178.413,156.876c-10.67,18.479-17.217,37.283-19.459,53.562c0.412,0.233,0.979,0.203,1.603-0.16
				l52.894-30.541c1.256-0.724,2.281-2.5,2.281-3.952l-0.003-61.075c0-0.719-0.256-1.231-0.665-1.47
				C202.088,123.322,189.081,138.399,178.413,156.876"/>
		</defs>
		<clipPath id="SVGID_50_">
			<use xlink:href="#SVGID_49_"  overflow="visible"/>
		</clipPath>
		
			<linearGradient id="SVGID_51_" gradientUnits="userSpaceOnUse" x1="-377.1611" y1="-580.0298" x2="-373.6716" y2="-580.0298" gradientTransform="matrix(16.0854 -27.8637 27.8637 16.0854 22387.8086 -968.4298)">
			<stop  offset="0" style="stop-color:#F7C4D7"/>
			<stop  offset="0.1045" style="stop-color:#F3BBD1"/>
			<stop  offset="0.2904" style="stop-color:#EB9FC1"/>
			<stop  offset="0.5342" style="stop-color:#DD71A5"/>
			<stop  offset="0.6923" style="stop-color:#D44B91"/>
			<stop  offset="1" style="stop-color:#A71971"/>
		</linearGradient>
		<polygon clip-path="url(#SVGID_50_)" fill="url(#SVGID_51_)" points="116.769,186.318 173.146,88.659 257.917,137.595 
			201.54,235.253 		"/>
	</g>
</g>
<g>
	<g>
		<defs>
			<path id="SVGID_52_" d="M177.745,156.49c-10.67,18.479-16.968,37.424-18.791,53.948c2.661-16.04,9.461-34.698,20.129-53.175
				c10.666-18.48,23.42-33.7,35.979-44.022C201.668,123.082,188.411,138.011,177.745,156.49"/>
		</defs>
		<clipPath id="SVGID_53_">
			<use xlink:href="#SVGID_52_"  overflow="visible"/>
		</clipPath>
		
			<linearGradient id="SVGID_54_" gradientUnits="userSpaceOnUse" x1="-360.8442" y1="-610.7109" x2="-357.356" y2="-610.7109" gradientTransform="matrix(-16.0854 27.8637 -27.8637 -16.0854 -22605.9336 344.1786)">
			<stop  offset="0" style="stop-color:#D44B91"/>
			<stop  offset="0.0355" style="stop-color:#D65496"/>
			<stop  offset="0.0902" style="stop-color:#DA6BA3"/>
			<stop  offset="0.1573" style="stop-color:#E18CB7"/>
			<stop  offset="0.2342" style="stop-color:#EBB7D3"/>
			<stop  offset="0.3182" style="stop-color:#F8E8F2"/>
			<stop  offset="0.3571" style="stop-color:#FFFFFF"/>
			<stop  offset="0.4111" style="stop-color:#FAEDF5"/>
			<stop  offset="0.5686" style="stop-color:#ECBBD6"/>
			<stop  offset="0.7119" style="stop-color:#E18FB9"/>
			<stop  offset="0.8361" style="stop-color:#DA6CA3"/>
			<stop  offset="0.9363" style="stop-color:#D65496"/>
			<stop  offset="1" style="stop-color:#D44B91"/>
		</linearGradient>
		<polygon clip-path="url(#SVGID_53_)" fill="url(#SVGID_54_)" points="257.15,137.536 201.038,234.733 116.87,186.143 
			172.979,88.947 		"/>
	</g>
</g>
</svg>
